<?xml version="1.0" encoding="UTF-8"?>
<svg version="1.1" xmlns="http://www.w3.org/2000/svg" width="1536" height="1024">
<path d="M0 0 C506.88 0 1013.76 0 1536 0 C1536 337.92 1536 675.84 1536 1024 C1029.12 1024 522.24 1024 0 1024 C0 686.08 0 348.16 0 0 Z " fill="#121926" transform="translate(0,0)"/>
<path d="M0 0 C1.40852486 -0.01065742 1.40852486 -0.01065742 2.84550476 -0.02153015 C22.77149813 -0.13785589 42.38309334 -0.20907073 62.0703125 3.203125 C63.13309418 3.38482239 63.13309418 3.38482239 64.21734619 3.57019043 C69.96713006 4.55543552 75.70822217 5.58407645 81.4453125 6.640625 C82.23712921 6.7856546 83.02894592 6.9306842 83.84475708 7.08010864 C92.29737095 8.64642776 100.41607873 10.42934492 108.53515625 13.3203125 C110.70243413 14.07501943 112.81539739 14.68467304 115.046875 15.20703125 C134.72639057 19.86637157 153.67041306 27.96907713 172.0703125 36.203125 C173.87773926 37.00919189 173.87773926 37.00919189 175.72167969 37.83154297 C178.84467114 39.22860692 181.96063992 40.64045188 185.072052 42.06311035 C186.81125279 42.85792233 188.55291567 43.64734008 190.29467773 44.43652344 C198.28956188 48.14460484 205.66431596 52.44836735 213.0703125 57.203125 C211.57749351 60.99884153 209.91159404 64.62449075 208.0703125 68.265625 C207.5546875 69.28785156 207.0390625 70.31007813 206.5078125 71.36328125 C205.79625 72.76900391 205.79625 72.76900391 205.0703125 74.203125 C204.40310782 75.53618919 203.73633593 76.86947024 203.0703125 78.203125 C202.34142822 77.82091797 201.61254395 77.43871094 200.86157227 77.04492188 C152.90129629 51.91291899 152.90129629 51.91291899 101.36328125 35.9765625 C98.66346167 35.34244117 96.08445617 34.60024856 93.44140625 33.7734375 C87.67853865 32.02006011 81.85833738 30.83045447 75.9453125 29.703125 C74.95144531 29.50332031 73.95757813 29.30351562 72.93359375 29.09765625 C54.23819287 25.49621093 35.6236359 23.69423833 16.58813477 23.81201172 C13.50427194 23.82814352 10.42171533 23.81200923 7.33789062 23.79296875 C-6.62367793 23.77740101 -20.14914187 24.99395035 -33.9296875 27.203125 C-35.05928391 27.38385559 -35.05928391 27.38385559 -36.21170044 27.5682373 C-40.71720623 28.30507395 -45.19951098 29.1362823 -49.6796875 30.015625 C-50.32991882 30.14185242 -50.98015015 30.26807983 -51.65008545 30.39813232 C-61.88930375 32.3994072 -71.78514725 34.96230182 -81.62524414 38.42602539 C-84.44876711 39.37816795 -87.29819505 40.22614957 -90.15234375 41.08203125 C-96.79873493 43.11303312 -103.26838436 45.49340204 -109.7421875 48.015625 C-110.88453857 48.45938477 -112.02688965 48.90314453 -113.20385742 49.36035156 C-121.88731721 52.75520337 -130.47807241 56.26472354 -138.9296875 60.203125 C-139.95368652 60.6770166 -140.97768555 61.1509082 -142.03271484 61.63916016 C-166.48593196 73.01442939 -189.5110523 86.18372157 -211.9296875 101.203125 C-212.76435547 101.75919434 -213.59902344 102.31526367 -214.45898438 102.88818359 C-224.00546733 109.2616497 -233.18113596 115.76329987 -241.9296875 123.203125 C-243.5915225 124.54247559 -245.25819813 125.87584249 -246.9296875 127.203125 C-248.59661476 128.53613253 -250.26326869 129.8694819 -251.9296875 131.203125 C-253.4146875 132.38841797 -253.4146875 132.38841797 -254.9296875 133.59765625 C-255.9196875 134.39558594 -256.9096875 135.19351563 -257.9296875 136.015625 C-258.8371875 136.74394531 -259.7446875 137.47226562 -260.6796875 138.22265625 C-263.10364845 140.18449323 -263.10364845 140.18449323 -264.9296875 143.203125 C-259.83498185 148.56059483 -254.45532008 153.31695748 -248.6875 157.9375 C-246.16959294 160.00603554 -243.80207035 162.15876657 -241.4296875 164.390625 C-229.12445934 175.56657589 -214.93363622 184.72939516 -201.05371094 193.80859375 C-197.33166555 196.25230907 -193.63143719 198.72881462 -189.9296875 201.203125 C-190.9296875 204.203125 -190.9296875 204.203125 -193.0546875 206.203125 C-197.23358912 210.16143944 -199.96308893 215.32148874 -202.9296875 220.203125 C-206.3114648 218.94811233 -209.18242627 217.5228693 -212.15234375 215.48046875 C-212.93198486 214.94663574 -213.71162598 214.41280273 -214.51489258 213.86279297 C-215.3323999 213.29447754 -216.14990723 212.72616211 -216.9921875 212.140625 C-217.84127686 211.5542627 -218.69036621 210.96790039 -219.56518555 210.36376953 C-226.14460051 205.79815478 -232.59783728 201.10795905 -238.9296875 196.203125 C-239.48994629 195.77290039 -240.05020508 195.34267578 -240.62744141 194.89941406 C-247.48720797 189.62785088 -254.13289939 184.24889535 -260.5 178.3828125 C-263.0926825 176.05690119 -265.77329299 173.87974692 -268.4921875 171.703125 C-272.88715474 168.15001064 -276.87205357 164.36983723 -280.8125 160.32421875 C-282.80399478 158.32904962 -284.85348013 156.47558599 -286.9921875 154.640625 C-291.15930871 151.05203772 -295.32892891 147.36889624 -298.9296875 143.203125 C-298.9296875 142.543125 -298.9296875 141.883125 -298.9296875 141.203125 C-297.42578125 139.72265625 -297.42578125 139.72265625 -295.3671875 138.015625 C-292.65486137 135.71583798 -290.08002107 133.39258035 -287.6171875 130.828125 C-283.89368768 127.03677097 -279.80150285 123.76813193 -275.6640625 120.44140625 C-273.30299672 118.50870526 -271.04851458 116.5186635 -268.8046875 114.453125 C-261.88571606 108.24567899 -254.35952355 102.77627437 -246.9296875 97.203125 C-246.15206055 96.61660156 -245.37443359 96.03007812 -244.57324219 95.42578125 C-226.77416577 82.01963717 -208.22162526 70.339558 -188.9296875 59.203125 C-188.15512207 58.75582031 -187.38055664 58.30851562 -186.58251953 57.84765625 C-168.32318097 47.36536871 -149.55262434 37.85347703 -129.9296875 30.203125 C-128.22114362 29.49529968 -126.51277989 28.78703916 -124.8046875 28.078125 C-119.56618186 25.98629852 -114.20299884 24.27366865 -108.8359375 22.546875 C-105.87501254 21.5674714 -103.01009725 20.42733493 -100.12890625 19.234375 C-94.93002524 17.12914911 -89.66366578 15.61903545 -84.2421875 14.203125 C-82.29426757 13.68621023 -80.34635091 13.16928312 -78.3984375 12.65234375 C-77.46 12.40532715 -76.5215625 12.15831055 -75.5546875 11.90380859 C-73.30746557 11.3039642 -71.07046221 10.6802961 -68.8359375 10.03515625 C-58.96377659 7.23446712 -49.06811788 5.64654305 -38.9296875 4.203125 C-37.06374435 3.93138571 -35.19786019 3.6592411 -33.33203125 3.38671875 C-22.81270469 1.86071656 -22.81270469 1.86071656 -17.9296875 1.203125 C-16.11126343 0.94184814 -16.11126343 0.94184814 -14.25610352 0.67529297 C-9.50382818 0.0885906 -4.78378532 0.02388794 0 0 Z " fill="#9FAEF6" transform="translate(753.9296875,340.796875)"/>
<path d="M0 0 C8.93686293 3.98115472 16.30843885 12.09626374 23.421875 18.640625 C25.73194636 20.7546903 28.0712826 22.82427825 30.4375 24.875 C33.06419533 27.15650334 35.58845138 29.48797019 38 32 C36.72629745 35.66930697 35.34869708 38.02183069 32.5859375 40.7421875 C31.56693359 41.75345703 31.56693359 41.75345703 30.52734375 42.78515625 C29.81707031 43.47480469 29.10679687 44.16445313 28.375 44.875 C27.68792969 45.55691406 27.00085937 46.23882812 26.29296875 46.94140625 C22.25755719 50.91624878 18.1076684 54.71649049 13.82177734 58.41894531 C11.37598568 60.54155947 9.00265099 62.73908732 6.625 64.9375 C1.58001553 69.52822939 -3.62148701 73.80885913 -9 78 C-10.35582209 79.07377275 -11.71125795 80.14803327 -13.06640625 81.22265625 C-22.78279534 88.89527508 -32.65381025 96.19933235 -43 103 C-43.70640625 103.46583496 -44.4128125 103.93166992 -45.140625 104.41162109 C-72.09145892 122.07421327 -100.2958975 136.24902893 -130.28417969 147.92626953 C-132.55239612 148.82303471 -134.79932201 149.74988015 -137.0390625 150.71484375 C-156.42811704 158.96503964 -177.51601567 163.3384477 -198 168 C-199.55666382 168.36798706 -199.55666382 168.36798706 -201.14477539 168.7434082 C-263.38931761 182.91781781 -333.66169894 178.55939723 -394 158 C-395.50466979 157.50487082 -397.00988415 157.01139362 -398.515625 156.51953125 C-402.01857684 155.36987885 -405.5120006 154.19437555 -409 153 C-408.70222656 152.26394531 -408.40445313 151.52789063 -408.09765625 150.76953125 C-405.48761207 144.18404611 -403.64317544 138.07492984 -403 131 C-396.64208582 132.45628202 -390.46505542 134.14018544 -384.3125 136.3125 C-368.51515656 141.76629483 -352.01762493 145.17734437 -335.47265625 147.359375 C-332.28211275 147.7857204 -329.15164386 148.35348567 -326 149.0078125 C-283.89655908 157.61702959 -236.53227985 152.31642208 -195 143 C-193.56019775 142.68772461 -193.56019775 142.68772461 -192.09130859 142.36914062 C-160.78730075 135.49843149 -129.52993858 124.01013316 -101.16308594 109.12207031 C-98.71814351 107.85379092 -96.2545497 106.62628396 -93.7890625 105.3984375 C-62.75012529 89.7862311 -33.76138669 69.53962119 -8.1875 45.99609375 C-5.39405492 43.44707512 -2.50351628 41.02033626 0.40625 38.60546875 C2.13211623 36.86691232 3.0300407 35.23575619 4 33 C-1.55288018 27.10598724 -7.67536589 22.04369556 -14 17 C-13.27425781 16.30519531 -12.54851562 15.61039062 -11.80078125 14.89453125 C-8.95103872 12.04478872 -6.57772831 8.9339295 -4.1875 5.6875 C-3.78080078 5.13771484 -3.37410156 4.58792969 -2.95507812 4.02148438 C-1.96631389 2.68374453 -0.98261415 1.34226377 0 0 Z " fill="#9DD1F6" transform="translate(1045,450)"/>
<path d="M0 0 C0.87043945 -0.00628418 1.74087891 -0.01256836 2.63769531 -0.01904297 C15.33153095 0.2275555 26.33955751 5.25563699 35.71875 13.75 C45.61521246 24.20663958 49.92734396 36.21029974 49.65234375 50.41015625 C49.1572818 60.81630927 45.33123439 70.07372616 39.375 78.5 C38.6325 79.551875 37.89 80.60375 37.125 81.6875 C28.66919243 90.33548501 17.69491845 96.54890986 5.41943359 96.93945312 C2.05288727 96.93623694 -1.26560929 96.74091248 -4.625 96.5 C-5.77484375 96.4278125 -6.9246875 96.355625 -8.109375 96.28125 C-20.78302534 94.94718154 -30.61307554 88.19697207 -38.625 78.5 C-47.90025971 65.76685838 -48.7310261 52.96473855 -47.37890625 37.7265625 C-45.31300013 25.92746983 -36.96342596 15.06419783 -27.375 8.25 C-25.80945726 7.30326976 -24.22503221 6.38719735 -22.625 5.5 C-21.8 5.01273437 -20.975 4.52546875 -20.125 4.0234375 C-13.46634836 0.63736181 -7.34373417 0.0400098 0 0 Z " fill="#B7C9F1" transform="translate(767.625,430.5)"/>
<path d="M0 0 C0.8146875 -0.00386719 1.629375 -0.00773437 2.46875 -0.01171875 C8.49652201 -0.001739 8.49652201 -0.001739 10.75 1.125 C10.75 1.785 10.75 2.445 10.75 3.125 C10.12246826 3.28468262 9.49493652 3.44436523 8.84838867 3.60888672 C-10.63896091 8.66753927 -28.35112413 15.1697196 -43.25 29.125 C-44.0234375 29.80820312 -44.796875 30.49140625 -45.59375 31.1953125 C-59.86375392 44.43904901 -70.31922751 65.68178687 -71.36010742 85.18847656 C-71.93145848 107.47357853 -67.27687576 126.29183957 -55.25 145.125 C-54.76917969 145.89328125 -54.28835938 146.6615625 -53.79296875 147.453125 C-48.08942875 155.80297607 -39.33933032 161.70406315 -30.83203125 166.93359375 C-30.04892578 167.52333984 -30.04892578 167.52333984 -29.25 168.125 C-29.25 168.785 -29.25 169.445 -29.25 170.125 C-28.53585937 170.24230469 -27.82171875 170.35960937 -27.0859375 170.48046875 C-24.11604966 171.15544326 -21.64738345 172.18332654 -18.875 173.4375 C1.58174706 181.93643839 23.6100177 183.30368251 44.75 176.125 C45.74773437 175.81304688 46.74546875 175.50109375 47.7734375 175.1796875 C58.30571279 171.66892907 67.24554945 166.18223048 75.75 159.125 C76.62205078 158.47144531 76.62205078 158.47144531 77.51171875 157.8046875 C92.33822152 146.26144292 102.14395699 126.58306708 105.20703125 108.4140625 C105.49531575 105.97709749 105.65830499 103.57684478 105.75 101.125 C105.78996094 100.30128906 105.82992187 99.47757812 105.87109375 98.62890625 C106.5333374 72.41184891 97.14784208 49.49162234 79.4375 30.375 C63.89036034 15.69966256 43.90025794 8.77981547 23.75 3.125 C24.08 2.135 24.41 1.145 24.75 0.125 C50.52113984 -1.23137578 72.46517102 8.16449074 91.75 25.1875 C105.64551332 37.94927433 114.49885573 54.86003342 118.75 73.125 C119.08837891 74.51525391 119.08837891 74.51525391 119.43359375 75.93359375 C124.59832503 101.04487344 118.90079529 126.9844837 105.2578125 148.421875 C89.75394282 171.81795843 66.35590402 186.43288372 39.4375 193.6171875 C14.2776403 198.37123076 -10.70242067 195.14344858 -33.25 183.125 C-33.25 182.465 -33.25 181.805 -33.25 181.125 C-34.34248047 180.9703125 -34.34248047 180.9703125 -35.45703125 180.8125 C-51.06786933 176.96983217 -64.74145565 157.81867644 -72.62890625 144.921875 C-76.93142734 137.49873018 -80.45045976 130.10754088 -83.0625 121.9375 C-83.26955566 121.29659424 -83.47661133 120.65568848 -83.68994141 119.99536133 C-90.46635271 97.62521163 -86.95932649 70.34546024 -76.140625 49.93286133 C-71.93072284 42.33755626 -67.10682124 35.56327461 -61.25 29.125 C-60.63898437 28.43277344 -60.02796875 27.74054688 -59.3984375 27.02734375 C-44.29946907 10.86823499 -22.14445411 -0.10715058 0 0 Z " fill="#7D8ADE" transform="translate(751.25,384.875)"/>
<path d="M0 0 C9.21635097 5.51692058 16.64365584 12.95227844 19.375 23.5625 C20.68505605 35.25942905 19.08885827 44.56348928 12.25 54.3125 C7.08053616 60.59367649 0.17492871 64.44222418 -7.625 66.5625 C-19.76203825 67.65432562 -29.21860104 66.45667779 -38.875 58.5625 C-45.8094253 51.9666057 -50.06465399 43.57760097 -50.828125 34.01953125 C-51.02630723 22.83875065 -48.45275328 14.7183627 -40.625 6.5625 C-29.52532291 -3.4250287 -13.85367011 -6.41868886 0 0 Z " fill="#9CEEF8" transform="translate(1019.625,396.4375)"/>
<path d="M0 0 C6.19066036 4.92959991 10.73483963 11.67009935 12.75 19.3125 C13.90800552 31.43116245 12.12151266 40.9718243 4.4375 50.5 C-1.52306925 56.90209289 -9.21706062 61.63081193 -18.015625 62.625 C-30.00798217 62.89298564 -37.95162141 59.75200878 -47 51.9375 C-54.36041589 43.35034813 -57.92751074 34.99420382 -57.5859375 23.6171875 C-56.53791155 13.30753684 -51.9214223 6.14524591 -44.25 -0.6875 C-29.98936145 -10.98416445 -14.19033989 -9.57847942 0 0 Z " fill="#9CA4F8" transform="translate(617.25,551.6875)"/>
<path d="M0 0 C1.53125 1.4375 1.53125 1.4375 3.53125 4.4375 C-0.824246 3.82462533 -4.31149445 2.14847673 -8.15625 0.125 C-15.57575916 -3.6760182 -23.09240995 -7.24570427 -30.65625 -10.75 C-31.72383545 -11.24862549 -32.7914209 -11.74725098 -33.89135742 -12.26098633 C-69.8029446 -28.84086231 -109.90009876 -40.5144341 -149.46875 -43.5625 C-150.91507813 -43.68733765 -150.91507813 -43.68733765 -152.390625 -43.81469727 C-183.8134329 -46.26079729 -216.4320387 -46.40606479 -247.46875 -40.5625 C-248.63583496 -40.34819336 -249.80291992 -40.13388672 -251.00537109 -39.91308594 C-288.88918739 -32.79140533 -324.88604049 -20.41638292 -359.46875 -3.5625 C-360.33081055 -3.14661621 -361.19287109 -2.73073242 -362.08105469 -2.30224609 C-369.48113598 1.27163932 -376.70792079 4.98314104 -383.6484375 9.40625 C-385.46875 10.4375 -385.46875 10.4375 -387.46875 10.4375 C-387.14320754 7.57144968 -386.5799064 6.54220632 -384.44921875 4.53515625 C-364.08684123 -10.30232443 -342.85490226 -23.09068923 -319.46875 -32.5625 C-318.66179687 -32.88992188 -317.85484375 -33.21734375 -317.0234375 -33.5546875 C-305.70066819 -38.10431988 -294.36830411 -42.02609589 -282.54052734 -45.03320312 C-280.59159037 -45.53111679 -278.64903079 -46.05380529 -276.70703125 -46.578125 C-187.52783226 -70.06104887 -74.30978347 -58.97601863 0 0 Z " fill="#9BAFF2" transform="translate(952.46875,364.5625)"/>
<path d="M0 0 C3.4375 0.8125 3.4375 0.8125 5.4375 2.8125 C8.32393404 22.95677125 -1.75466159 46.95753054 -13.5625 62.8125 C-25.32961161 77.77668111 -40.19928785 92.27532788 -58.5625 98.8125 C-61.33984375 98.93359375 -61.33984375 98.93359375 -63.5625 98.8125 C-60.68387524 95.74815751 -57.72317673 93.10925145 -54.375 90.5625 C-28.90469525 70.89236366 -12.77247356 43.30325128 -8.05859375 11.40234375 C-7.89488281 10.32082031 -7.73117187 9.23929687 -7.5625 8.125 C-7.376875 6.69607422 -7.376875 6.69607422 -7.1875 5.23828125 C-6.0289411 0.74162452 -4.61480841 -0.24288465 0 0 Z " fill="#95D8F5" transform="translate(944.5625,463.1875)"/>
<path d="M0 0 C2.93535846 2.24533017 3.89819789 3.52916526 4.6875 7.1796875 C4.790625 8.39914062 4.89375 9.61859375 5 10.875 C8.00251341 39.47053227 24.13142226 69.08525943 46.53857422 87.24707031 C50.71217052 90.50765296 54.99792805 93.61318272 59.3515625 96.62890625 C59.89554688 97.08136719 60.43953125 97.53382813 61 98 C61 98.66 61 99.32 61 100 C55.59151035 99.47849711 51.79266778 97.55158265 47.1875 94.875 C46.47899902 94.46830078 45.77049805 94.06160156 45.04052734 93.64257812 C39.65754033 90.49890384 34.71283188 87.09155461 30 83 C28.77216797 81.96939453 28.77216797 81.96939453 27.51953125 80.91796875 C10.33902096 66.076711 -1.68928482 44.99736732 -7 23 C-7.20778076 22.14019531 -7.41556152 21.28039062 -7.62963867 20.39453125 C-8.82585403 14.99193059 -9.69691526 9.53551901 -9 4 C-6.5516034 0.28206442 -4.41370093 -0.88274019 0 0 Z " fill="#A092F5" transform="translate(596,463)"/>
<path d="M0 0 C3.96303504 2.28664916 7.63729328 4.83862884 11.3125 7.5625 C12.13717773 8.16094727 12.13717773 8.16094727 12.97851562 8.77148438 C14.35763772 9.79768827 15.6840594 10.89393828 17 12 C17 12.66 17 13.32 17 14 C11.68544522 13.484897 8.09376879 11.63835295 3.625 8.9375 C2.98433594 8.56044922 2.34367188 8.18339844 1.68359375 7.79492188 C0.11745934 6.87160383 -1.44198034 5.93694607 -3 5 C-2.34 4.67 -1.68 4.34 -1 4 C-0.34786708 1.97536745 -0.34786708 1.97536745 0 0 Z " fill="#9391E6" transform="translate(640,549)"/>
<path d="M0 0 C2.38671875 1.5234375 2.38671875 1.5234375 4.6875 3.375 C5.45449219 3.98085938 6.22148438 4.58671875 7.01171875 5.2109375 C9 7 9 7 11 10 C6.54757274 9.38904663 3.17992597 7.70084207 -0.75 5.5625 C-1.89984375 4.94503906 -3.0496875 4.32757813 -4.234375 3.69140625 C-7 2 -7 2 -8 0 C-4.60945393 -1.13018202 -3.37388275 -1.00154241 0 0 Z " fill="#A1DBEC" transform="translate(945,359)"/>
<path d="M0 0 C0.66 0.33 1.32 0.66 2 1 C1.505 1.61875 1.01 2.2375 0.5 2.875 C-1.19222773 4.83880904 -1.19222773 4.83880904 -1 7 C-3.1171875 8.5078125 -3.1171875 8.5078125 -5.875 10.125 C-6.77992188 10.66382813 -7.68484375 11.20265625 -8.6171875 11.7578125 C-11 13 -11 13 -13 13 C-12.87890625 11.296875 -12.87890625 11.296875 -12 9 C-10.00484099 7.27105302 -8.08570336 5.75742499 -5.9375 4.25 C-5.08575195 3.63318359 -5.08575195 3.63318359 -4.21679688 3.00390625 C-2.81805343 1.99304964 -1.40990625 0.99522794 0 0 Z " fill="#9784E7" transform="translate(578,362)"/>
<path d="M0 0 C11.75 2.75 11.75 2.75 14 5 C10.25212088 4.49547781 6.67363066 3.91840767 3 3 C2.01 6.3 1.02 9.6 0 13 C-0.66 13 -1.32 13 -2 13 C-1.34 8.71 -0.68 4.42 0 0 Z " fill="#8881CE" transform="translate(642,581)"/>
<path d="M0 0 C-1.31157516 3.93472548 -3.33383447 5.12683424 -6.5625 7.6875 C-8.08037109 8.89986328 -8.08037109 8.89986328 -9.62890625 10.13671875 C-10.41136719 10.75160156 -11.19382812 11.36648438 -12 12 C-12.66 11.67 -13.32 11.34 -14 11 C-12.04709472 9.16056628 -10.08818082 7.32840869 -8.125 5.5 C-7.29162109 4.71302734 -7.29162109 4.71302734 -6.44140625 3.91015625 C-2.2265625 0 -2.2265625 0 0 0 Z " fill="#937CDD" transform="translate(480,461)"/>
<path d="M0 0 C0.66 0.33 1.32 0.66 2 1 C1.67 1.33 1.34 1.66 1 2 C1.66 2.66 2.32 3.32 3 4 C-0.13498292 5.85776765 -2.37471432 6.20140476 -6 6 C-4 4 -2 2 0 0 Z " fill="#82A9DC" transform="translate(887,556)"/>
<path d="M0 0 C0 3 0 3 -1.53125 4.82421875 C-2.1809375 5.43910156 -2.830625 6.05398438 -3.5 6.6875 C-4.1496875 7.31011719 -4.799375 7.93273437 -5.46875 8.57421875 C-5.9740625 9.04472656 -6.479375 9.51523437 -7 10 C-7.66 9.34 -8.32 8.68 -9 8 C-6.03 5.36 -3.06 2.72 0 0 Z " fill="#242546" transform="translate(497,475)"/>
<path d="M0 0 C-0.61875 0.0825 -1.2375 0.165 -1.875 0.25 C-4.17381462 0.80607909 -4.17381462 0.80607909 -5.1875 3 C-5.455625 3.66 -5.72375 4.32 -6 5 C-6.33 5.33 -6.66 5.66 -7 6 C-7.36760731 8.32817964 -7.70241581 10.6618385 -8 13 C-8.33 13 -8.66 13 -9 13 C-9.61989796 4.94132653 -9.61989796 4.94132653 -7.3125 1.4375 C-4.62515045 -0.23301458 -3.10843835 -0.34538204 0 0 Z " fill="#7B6FBF" transform="translate(596,463)"/>
<path d="M0 0 C0.66 1.32 1.32 2.64 2 4 C-2.75 7 -2.75 7 -5 7 C-4.60196439 4.11424181 -4.20990931 3.17810487 -1.9375 1.25 C-1.298125 0.8375 -0.65875 0.425 0 0 Z " fill="#8A71D6" transform="translate(570,368)"/>
<path d="M0 0 C0.66 0.33 1.32 0.66 2 1 C0.02 3.31 -1.96 5.62 -4 8 C-4.66 7.67 -5.32 7.34 -6 7 C-4.02 4.69 -2.04 2.38 0 0 Z " fill="#92CDE2" transform="translate(981,401)"/>
<path d="M0 0 C0.66 0.33 1.32 0.66 2 1 C-0.25 3.0625 -0.25 3.0625 -3 5 C-5.3125 4.75 -5.3125 4.75 -7 4 C-1.7265625 0.77734375 -1.7265625 0.77734375 0 0 Z " fill="#887AD1" transform="translate(600,348)"/>
</svg>
