<?xml version="1.0" encoding="UTF-8"?>
<svg version="1.1" xmlns="http://www.w3.org/2000/svg" width="1536" height="1024">
<path d="M0 0 C506.88 0 1013.76 0 1536 0 C1536 337.92 1536 675.84 1536 1024 C1029.12 1024 522.24 1024 0 1024 C0 686.08 0 348.16 0 0 Z " fill="#101725" transform="translate(0,0)"/>
<path d="M0 0 C0.95565975 -0.00581376 1.9113195 -0.01162753 2.89593863 -0.01761746 C6.12304652 -0.03230518 9.34940425 -0.01829109 12.57650757 -0.00457001 C14.9035004 -0.00917544 17.23049033 -0.01552593 19.55747414 -0.02347898 C25.29784056 -0.03848409 31.03798547 -0.03477018 36.77835507 -0.02327592 C43.65224403 -0.01054475 50.52604763 -0.0209656 57.39993232 -0.03212357 C70.86859144 -0.05321178 84.33717478 -0.05135097 97.80584115 -0.03980792 C109.59229945 -0.02975586 121.37872994 -0.02711414 133.16519165 -0.0318985 C133.94623578 -0.03220404 134.7272799 -0.03250958 135.53199203 -0.03282438 C138.70230011 -0.03406968 141.87260817 -0.03534327 145.04291622 -0.03666343 C174.79843648 -0.04890651 204.55390841 -0.03779439 234.30942121 -0.01627585 C260.7602923 0.00270737 287.21108637 0.00100889 313.66195679 -0.01811981 C343.36215841 -0.03952643 373.0623173 -0.04803832 402.76252556 -0.03567076 C405.92714309 -0.03438784 409.09176063 -0.03313648 412.25637817 -0.0318985 C413.42523994 -0.03142403 413.42523994 -0.03142403 414.61771508 -0.03093999 C426.3983635 -0.02638517 438.17898109 -0.03172035 449.95962524 -0.04181671 C463.35131457 -0.05323638 476.7429161 -0.05043165 490.13459444 -0.02869374 C496.97246551 -0.01796115 503.81019373 -0.0135985 510.64806366 -0.02729034 C516.90018568 -0.03915597 523.15200491 -0.03274823 529.40409923 -0.01138014 C531.67321177 -0.00688926 533.94234957 -0.00923548 536.21144605 -0.01888329 C539.28185762 -0.03094287 542.35121455 -0.01867853 545.42156982 0 C546.31476921 -0.00936466 547.20796859 -0.01872933 548.12823462 -0.02837777 C554.09852404 0.04485358 554.09852404 0.04485358 557.25815773 2.41104555 C560.58299772 7.20004166 558.96637091 12.92032879 558.08578491 18.37445831 C552.94846139 44.7980629 535.75360852 65.27873297 513.82601929 80.13324738 C496.10638948 91.61092079 476.77869456 99.21696388 456.81869507 105.80658722 C454.92522013 106.43248223 453.03642716 107.07249932 451.14828491 107.71430206 C445.31503124 109.68965388 439.49532963 111.58645875 433.55917358 113.22968292 C414.23003743 118.62924731 394.59530034 125.62112621 383.55844116 143.35492706 C381.27939247 149.13131776 381.84876005 156.53238586 383.55062866 162.39789581 C388.80556171 173.91628442 398.75999393 178.30041278 409.57650757 183.47406769 C413.06726775 185.15755487 416.5205745 186.90668911 419.96078491 188.69086456 C420.58026001 188.99951447 421.19973511 189.30816437 421.83798218 189.6261673 C427.62638235 192.64658544 430.6569839 196.37266438 432.71078491 202.50336456 C433.15030305 207.01562769 433.08102734 211.53427837 433.08578491 216.06586456 C433.1102771 217.29756378 433.13476929 218.529263 433.16000366 219.79828644 C433.16387085 220.98100128 433.16773804 222.16371613 433.17172241 223.38227081 C433.17994019 224.46065216 433.18815796 225.53903351 433.19662476 226.65009308 C432.56621013 230.35243263 431.72690917 231.27354258 428.71078491 233.50336456 C425.69288631 233.91845366 423.03467339 234.09105159 420.01425171 234.08441925 C419.13733673 234.0978537 418.26042175 234.11128815 417.35693359 234.1251297 C414.45772641 234.16312738 411.55944436 234.17093968 408.66000366 234.17523956 C406.64224365 234.18809409 404.62448739 234.20155071 402.60673523 234.2155838 C398.37578696 234.23953937 394.14516537 234.24694463 389.91415405 234.2445755 C384.49964816 234.24416928 379.0872439 234.29874468 373.67323589 234.36766434 C369.50463805 234.41220647 365.33654558 234.42025055 361.16773415 234.4181366 C359.1722369 234.4228491 357.17672578 234.44049989 355.18146324 234.47146606 C339.60811873 234.69050732 339.60811873 234.69050732 335.00447083 231.81005096 C333.19038306 229.77839147 331.97432659 227.90531671 330.71078491 225.50336456 C329.66872145 224.07062178 328.61169148 222.64855429 327.53500366 221.24164581 C326.48523807 219.76936587 325.43966943 218.29408454 324.39828491 216.81586456 C322.83857535 214.61075794 321.27407575 212.41442314 319.66423035 210.24555206 C318.27560001 208.29623488 316.96963225 206.28687697 315.72438049 204.24298859 C312.57863129 199.30610425 309.88410289 195.28656654 304.2348175 193.25072479 C300.12513975 192.73513316 296.19526646 192.61159115 292.06234741 192.67133331 C290.55835028 192.654911 289.05438681 192.6350956 287.55047607 192.61208344 C284.41049743 192.57954212 281.27532063 192.59495084 278.1355896 192.64374542 C274.93490936 192.68961491 271.74655054 192.66888927 268.54672241 192.58222198 C250.21947247 191.26882089 250.21947247 191.26882089 234.13534546 197.83295441 C231.36687405 201.10082016 229.41974281 204.62707515 227.65402222 208.5152359 C226.32851352 211.3091053 224.53951104 213.64241607 222.65219116 216.08148956 C220.94198633 218.44292494 219.23538871 220.8064278 217.54086304 223.17914581 C216.97947632 223.95129425 216.4180896 224.72344269 215.83969116 225.51898956 C215.35572876 226.19220245 214.87176636 226.86541534 214.37313843 227.55902863 C209.60646886 233.13426088 209.60646886 233.13426088 205.8108263 233.87330055 C203.47778228 234.01669033 201.1746074 234.03235771 198.83724976 234.00507355 C197.95376358 234.01047653 197.0702774 234.01587952 196.16001892 234.02144623 C193.24691015 234.03392897 190.33479035 234.01744817 187.42172241 233.99945831 C185.39581246 233.99961328 183.36990221 234.00110194 181.34399414 234.0038681 C177.10219182 234.0052518 172.86072775 233.99269659 168.61898804 233.9699173 C163.17678516 233.94149662 157.73514277 233.94428026 152.29289818 233.95700741 C148.11164545 233.96395447 143.93052278 233.95618704 139.74928665 233.94375038 C137.74218875 233.93922897 135.73507693 233.93890508 133.72797775 233.94281578 C130.92686966 233.94571937 128.12654074 233.92926325 125.32553101 233.9074173 C124.07711678 233.91416977 124.07711678 233.91416977 122.80348206 233.92105865 C117.14622826 233.84758103 117.14622826 233.84758103 114.99669838 232.14838505 C113.06192467 229.67330219 113.3555925 227.65179141 113.38265991 224.55023956 C113.38781616 223.3733255 113.39297241 222.19641144 113.39828491 220.98383331 C113.41890991 219.75277863 113.43953491 218.52172394 113.46078491 217.25336456 C113.46594116 216.03777863 113.47109741 214.82219269 113.47640991 213.56977081 C113.61311104 197.90040404 113.61311104 197.90040404 116.77328491 193.87836456 C124.08237945 187.96888387 132.30483004 184.22639591 140.84555054 180.42914581 C149.87364351 176.27450843 157.81086771 171.20523277 162.67562866 162.31586456 C165.06785709 155.81622505 164.97150499 148.4898561 162.14828491 142.12836456 C161.03436565 140.24393541 161.03436565 140.24393541 159.71078491 138.50336456 C159.28281616 137.92328644 158.85484741 137.34320831 158.41390991 136.74555206 C149.75598292 126.79339887 134.96105605 122.12057477 122.8218689 117.99262238 C120.64155837 117.2510768 118.46793376 116.49213272 116.29476929 115.72992706 C108.5407767 113.03108736 100.75525551 110.59924275 92.84432983 108.393013 C54.01597719 97.36920957 16.43584171 75.09551863 -4.28921509 39.50336456 C-9.46623689 29.90018672 -16.11992637 15.61806914 -13.28921509 4.50336456 C-9.76065049 -0.59508221 -5.67072661 -0.0594542 0 0 Z " fill="#111827" transform="translate(495.2892150878906,442.4966354370117)"/>
<path d="M0 0 C0.95565975 -0.00581376 1.9113195 -0.01162753 2.89593863 -0.01761746 C6.12304652 -0.03230518 9.34940425 -0.01829109 12.57650757 -0.00457001 C14.9035004 -0.00917544 17.23049033 -0.01552593 19.55747414 -0.02347898 C25.29784056 -0.03848409 31.03798547 -0.03477018 36.77835507 -0.02327592 C43.65224403 -0.01054475 50.52604763 -0.0209656 57.39993232 -0.03212357 C70.86859144 -0.05321178 84.33717478 -0.05135097 97.80584115 -0.03980792 C109.59229945 -0.02975586 121.37872994 -0.02711414 133.16519165 -0.0318985 C133.94623578 -0.03220404 134.7272799 -0.03250958 135.53199203 -0.03282438 C138.70230011 -0.03406968 141.87260817 -0.03534327 145.04291622 -0.03666343 C174.79843648 -0.04890651 204.55390841 -0.03779439 234.30942121 -0.01627585 C260.7602923 0.00270737 287.21108637 0.00100889 313.66195679 -0.01811981 C343.36215841 -0.03952643 373.0623173 -0.04803832 402.76252556 -0.03567076 C405.92714309 -0.03438784 409.09176063 -0.03313648 412.25637817 -0.0318985 C413.42523994 -0.03142403 413.42523994 -0.03142403 414.61771508 -0.03093999 C426.3983635 -0.02638517 438.17898109 -0.03172035 449.95962524 -0.04181671 C463.35131457 -0.05323638 476.7429161 -0.05043165 490.13459444 -0.02869374 C496.97246551 -0.01796115 503.81019373 -0.0135985 510.64806366 -0.02729034 C516.90018568 -0.03915597 523.15200491 -0.03274823 529.40409923 -0.01138014 C531.67321177 -0.00688926 533.94234957 -0.00923548 536.21144605 -0.01888329 C539.28185762 -0.03094287 542.35121455 -0.01867853 545.42156982 0 C546.31476921 -0.00936466 547.20796859 -0.01872933 548.12823462 -0.02837777 C554.09852404 0.04485358 554.09852404 0.04485358 557.25815773 2.41104555 C560.58299772 7.20004166 558.96637091 12.92032879 558.08578491 18.37445831 C552.94846139 44.7980629 535.75360852 65.27873297 513.82601929 80.13324738 C496.10638948 91.61092079 476.77869456 99.21696388 456.81869507 105.80658722 C454.92522013 106.43248223 453.03642716 107.07249932 451.14828491 107.71430206 C445.31503124 109.68965388 439.49532963 111.58645875 433.55917358 113.22968292 C414.23003743 118.62924731 394.59530034 125.62112621 383.55844116 143.35492706 C381.27939247 149.13131776 381.84876005 156.53238586 383.55062866 162.39789581 C388.80556171 173.91628442 398.75999393 178.30041278 409.57650757 183.47406769 C413.06726775 185.15755487 416.5205745 186.90668911 419.96078491 188.69086456 C420.58026001 188.99951447 421.19973511 189.30816437 421.83798218 189.6261673 C427.62638235 192.64658544 430.6569839 196.37266438 432.71078491 202.50336456 C433.15030305 207.01562769 433.08102734 211.53427837 433.08578491 216.06586456 C433.1102771 217.29756378 433.13476929 218.529263 433.16000366 219.79828644 C433.16387085 220.98100128 433.16773804 222.16371613 433.17172241 223.38227081 C433.17994019 224.46065216 433.18815796 225.53903351 433.19662476 226.65009308 C432.56621013 230.35243263 431.72690917 231.27354258 428.71078491 233.50336456 C425.69288631 233.91845366 423.03467339 234.09105159 420.01425171 234.08441925 C419.13733673 234.0978537 418.26042175 234.11128815 417.35693359 234.1251297 C414.45772641 234.16312738 411.55944436 234.17093968 408.66000366 234.17523956 C406.64224365 234.18809409 404.62448739 234.20155071 402.60673523 234.2155838 C398.37578696 234.23953937 394.14516537 234.24694463 389.91415405 234.2445755 C384.49964816 234.24416928 379.0872439 234.29874468 373.67323589 234.36766434 C369.50463805 234.41220647 365.33654558 234.42025055 361.16773415 234.4181366 C359.1722369 234.4228491 357.17672578 234.44049989 355.18146324 234.47146606 C339.60811873 234.69050732 339.60811873 234.69050732 335.00447083 231.81005096 C333.19038306 229.77839147 331.97432659 227.90531671 330.71078491 225.50336456 C329.66872145 224.07062178 328.61169148 222.64855429 327.53500366 221.24164581 C326.48523807 219.76936587 325.43966943 218.29408454 324.39828491 216.81586456 C322.83857535 214.61075794 321.27407575 212.41442314 319.66423035 210.24555206 C318.27560001 208.29623488 316.96963225 206.28687697 315.72438049 204.24298859 C312.57863129 199.30610425 309.88410289 195.28656654 304.2348175 193.25072479 C300.12513975 192.73513316 296.19526646 192.61159115 292.06234741 192.67133331 C290.55835028 192.654911 289.05438681 192.6350956 287.55047607 192.61208344 C284.41049743 192.57954212 281.27532063 192.59495084 278.1355896 192.64374542 C274.93490936 192.68961491 271.74655054 192.66888927 268.54672241 192.58222198 C250.21947247 191.26882089 250.21947247 191.26882089 234.13534546 197.83295441 C231.36687405 201.10082016 229.41974281 204.62707515 227.65402222 208.5152359 C226.32851352 211.3091053 224.53951104 213.64241607 222.65219116 216.08148956 C220.94198633 218.44292494 219.23538871 220.8064278 217.54086304 223.17914581 C216.97947632 223.95129425 216.4180896 224.72344269 215.83969116 225.51898956 C215.35572876 226.19220245 214.87176636 226.86541534 214.37313843 227.55902863 C209.60646886 233.13426088 209.60646886 233.13426088 205.8108263 233.87330055 C203.47778228 234.01669033 201.1746074 234.03235771 198.83724976 234.00507355 C197.95376358 234.01047653 197.0702774 234.01587952 196.16001892 234.02144623 C193.24691015 234.03392897 190.33479035 234.01744817 187.42172241 233.99945831 C185.39581246 233.99961328 183.36990221 234.00110194 181.34399414 234.0038681 C177.10219182 234.0052518 172.86072775 233.99269659 168.61898804 233.9699173 C163.17678516 233.94149662 157.73514277 233.94428026 152.29289818 233.95700741 C148.11164545 233.96395447 143.93052278 233.95618704 139.74928665 233.94375038 C137.74218875 233.93922897 135.73507693 233.93890508 133.72797775 233.94281578 C130.92686966 233.94571937 128.12654074 233.92926325 125.32553101 233.9074173 C124.07711678 233.91416977 124.07711678 233.91416977 122.80348206 233.92105865 C117.14622826 233.84758103 117.14622826 233.84758103 114.99669838 232.14838505 C113.06192467 229.67330219 113.3555925 227.65179141 113.38265991 224.55023956 C113.38781616 223.3733255 113.39297241 222.19641144 113.39828491 220.98383331 C113.41890991 219.75277863 113.43953491 218.52172394 113.46078491 217.25336456 C113.46594116 216.03777863 113.47109741 214.82219269 113.47640991 213.56977081 C113.61311104 197.90040404 113.61311104 197.90040404 116.77328491 193.87836456 C124.08237945 187.96888387 132.30483004 184.22639591 140.84555054 180.42914581 C149.87364351 176.27450843 157.81086771 171.20523277 162.67562866 162.31586456 C165.06785709 155.81622505 164.97150499 148.4898561 162.14828491 142.12836456 C161.03436565 140.24393541 161.03436565 140.24393541 159.71078491 138.50336456 C159.28281616 137.92328644 158.85484741 137.34320831 158.41390991 136.74555206 C149.75598292 126.79339887 134.96105605 122.12057477 122.8218689 117.99262238 C120.64155837 117.2510768 118.46793376 116.49213272 116.29476929 115.72992706 C108.5407767 113.03108736 100.75525551 110.59924275 92.84432983 108.393013 C54.01597719 97.36920957 16.43584171 75.09551863 -4.28921509 39.50336456 C-9.46623689 29.90018672 -16.11992637 15.61806914 -13.28921509 4.50336456 C-9.76065049 -0.59508221 -5.67072661 -0.0594542 0 0 Z M9.71078491 19.50336456 C14.95606802 33.9278931 21.06894844 43.83176072 31.71078491 54.50336456 C32.4571521 55.27293488 33.20351929 56.04250519 33.97250366 56.83539581 C54.87716367 77.08336493 84.06848417 87.41122658 111.49984741 95.03852081 C164.97129368 109.94480667 164.97129368 109.94480667 178.42562866 131.21430206 C179.67171578 133.61979198 180.75318826 135.97050068 181.71078491 138.50336456 C182.07430054 139.42891144 182.43781616 140.35445831 182.81234741 141.30805206 C183.85567625 145.01867376 184.05465867 148.49235836 184.02328491 152.31586456 C184.01591309 153.37752838 184.01591309 153.37752838 184.00839233 154.46063995 C183.78922852 164.26007238 180.21868184 173.75179753 173.39828491 180.94086456 C172.84140991 181.45648956 172.28453491 181.97211456 171.71078491 182.50336456 C171.71078491 183.16336456 171.71078491 183.82336456 171.71078491 184.50336456 C171.16422241 184.76117706 170.61765991 185.01898956 170.05453491 185.28461456 C167.32592965 186.7034893 164.79902033 188.34144498 162.21078491 190.00336456 C153.97526796 195.19771724 145.20888017 199.36338573 136.45394897 203.59882355 C134.73301763 204.3804813 134.73301763 204.3804813 133.71078491 205.50336456 C133.6387298 207.18945422 133.62692424 208.87837116 133.64828491 210.56586456 C133.65730835 211.48496613 133.66633179 212.40406769 133.67562866 213.35102081 C133.68723022 214.06129425 133.69883179 214.77156769 133.71078491 215.50336456 C142.02986032 215.7591844 150.34727183 215.95414249 158.6693182 216.07329845 C162.53457775 216.1305153 166.39713171 216.20798408 170.26083374 216.33319855 C173.99584163 216.45347307 177.72826337 216.51863572 181.46505928 216.54701424 C182.88428023 216.5672111 184.30337236 216.60665904 185.72147942 216.66639519 C194.27406662 217.04316541 194.27406662 217.04316541 201.54396057 213.11066437 C203.82900707 210.33851498 205.79285451 207.53723945 207.71078491 204.50336456 C208.67143657 203.2632746 209.64465263 202.03248746 210.64437866 200.82367706 C211.48031636 199.75959467 212.3149704 198.6945025 213.14828491 197.62836456 C213.59929565 197.05320099 214.0503064 196.47803741 214.51498413 195.88544464 C218.24938065 191.11443789 221.94761021 186.31577331 225.6265564 181.50189972 C228.6089522 177.60519727 228.6089522 177.60519727 229.71078491 176.50336456 C232.3814029 176.3656512 235.02693926 176.29290351 237.69955444 176.26288605 C238.53701706 176.24988968 239.37447968 176.23689331 240.23731995 176.22350311 C249.01502158 176.09657122 257.79369952 176.03999589 266.57211304 175.98847198 C270.73769258 175.96174091 274.90212573 175.91303683 279.06723022 175.8449173 C284.09355557 175.76291574 289.11879018 175.72027905 294.14574814 175.7054081 C296.06036969 175.69316544 297.97495555 175.66714409 299.88919449 175.62695885 C314.85262694 175.32863635 314.85262694 175.32863635 319.3586731 178.17736053 C321.16355018 180.20005079 322.44126806 182.1167878 323.71078491 184.50336456 C324.36047241 185.33150665 325.01015991 186.15964874 325.67953491 187.01288605 C326.18484741 187.7097049 326.69015991 188.40652374 327.21078491 189.12445831 C328.07703491 190.31071808 328.07703491 190.31071808 328.96078491 191.52094269 C329.82703491 192.71880402 329.82703491 192.71880402 330.71078491 193.94086456 C337.53158667 203.35871178 337.53158667 203.35871178 344.71078491 212.50336456 C345.10824417 213.03105438 345.50570343 213.5587442 345.91520691 214.10242462 C348.57742414 216.17953096 350.67451496 215.86334292 354.01815796 215.84394073 C355.31928024 215.84371414 356.62040253 215.84348755 357.96095276 215.84325409 C359.38147322 215.82793408 360.80199017 215.81228609 362.22250366 215.79633331 C363.67552757 215.79073732 365.12855715 215.78646724 366.58158875 215.78347015 C370.40398821 215.77202152 374.22604511 215.74255455 378.04830933 215.70935822 C381.94942592 215.67865752 385.85059793 215.66496484 389.75180054 215.64984894 C397.40495141 215.61768455 405.05782015 215.56648839 412.71078491 215.50336456 C412.75464528 214.04342578 412.78617207 212.58311224 412.81234741 211.12274933 C412.83119995 210.30959763 412.85005249 209.49644592 412.86947632 208.65865326 C412.91348157 206.36086143 412.91348157 206.36086143 411.08578491 204.59320831 C410.30203491 204.21293488 409.51828491 203.83266144 408.71078491 203.44086456 C407.80586304 202.975513 406.90094116 202.51016144 405.96859741 202.03070831 C404.89351929 201.52668488 403.81844116 201.02266144 402.71078491 200.50336456 C399.99699379 199.18106603 397.29125325 197.84259651 394.58578491 196.50336456 C393.54067749 195.98890778 393.54067749 195.98890778 392.47445679 195.46405792 C387.43521296 192.95222742 382.92661997 190.27192141 378.71078491 186.50336456 C378.02629272 185.91039581 377.34180054 185.31742706 376.63656616 184.70648956 C371.44565494 179.90897457 368.45722768 174.97415017 365.71078491 168.50336456 C365.39109741 167.84594269 365.07140991 167.18852081 364.74203491 166.51117706 C360.49518982 157.03442089 362.31143128 145.98035046 365.71078491 136.50336456 C374.8134395 116.89764698 393.35962245 106.86068623 412.71078491 99.50336456 C421.83969951 96.17769526 431.14144761 93.4609164 440.46469116 90.74555206 C477.10199786 80.05376349 511.04760371 67.10340136 532.38656616 33.41352081 C534.39761374 28.99396197 535.43319308 24.18786794 536.71078491 19.50336456 C418.90078491 19.50336456 301.09078491 19.50336456 179.71078491 19.50336456 C179.38078491 37.65336456 179.05078491 55.80336456 178.71078491 74.50336456 C175.37681211 75.17015912 172.25423217 75.71524321 168.89828491 76.06586456 C168.1080896 76.14965363 167.31789429 76.23344269 166.50375366 76.31977081 C165.91207397 76.38035675 165.32039429 76.44094269 164.71078491 76.50336456 C156.20196596 59.48572665 162.06970778 38.52627639 161.71078491 19.50336456 C111.55078491 19.50336456 61.39078491 19.50336456 9.71078491 19.50336456 Z " fill="#7FABF6" transform="translate(495.2892150878906,442.4966354370117)"/>
<path d="M0 0 C0.61230469 0.51046875 1.22460938 1.0209375 1.85546875 1.546875 C2.49871094 2.07796875 3.14195312 2.6090625 3.8046875 3.15625 C9.09357429 7.99053645 13.1688555 14.37765812 14.12890625 21.60546875 C14.52594633 30.90536902 11.47862255 39.16019803 5.16796875 46.046875 C-2.50048187 52.88861533 -10.39279992 54.31084066 -20.5234375 53.984375 C-29.26188158 52.92859751 -35.02159173 48.6485233 -40.515625 41.93359375 C-45.95143243 33.96889749 -46.06354934 25.18598353 -44.51953125 15.921875 C-42.45159428 7.83552836 -37.10820683 3.06383805 -30.29296875 -1.32421875 C-21.95927783 -5.70319452 -7.76512614 -5.34697274 0 0 Z " fill="#7DCBF8" transform="translate(784.14453125,360.453125)"/>
<path d="M0 0 C4.24805235 -0.05534143 8.49601251 -0.09644667 12.74431229 -0.12711906 C14.3304043 -0.14108908 15.91645999 -0.16025044 17.50242233 -0.1848774 C19.67684944 -0.21780443 21.85063169 -0.23210241 24.02526855 -0.24176025 C25.86660873 -0.26114906 25.86660873 -0.26114906 27.74514771 -0.28092957 C30.7298584 0.06658936 30.7298584 0.06658936 32.61764526 1.43351746 C33.7298584 3.06658936 33.7298584 3.06658936 34.2298584 5.50408936 C33.7298584 8.06658936 33.7298584 8.06658936 31.3548584 10.31658936 C27.6616538 12.77872575 25.71963431 13.22109898 21.3079834 13.37860107 C20.15773682 13.41994171 19.00749023 13.46128235 17.8223877 13.50387573 C16.55435303 13.5426181 15.28631836 13.58136047 13.9798584 13.62127686 C13.32216461 13.64221279 12.66447083 13.66314873 11.98684692 13.68471909 C-4.91419583 14.21394181 -21.81648827 14.22343731 -38.72423553 14.19556427 C-41.31239318 14.19152339 -43.90054864 14.18904992 -46.4887085 14.18688965 C-89.18334198 14.14598905 -131.83884328 13.70897415 -174.47070312 11.22735596 C-177.53672588 11.05127991 -180.60308819 10.88219928 -183.66955566 10.71405029 C-189.27356975 10.40596863 -194.87680867 10.08620866 -200.47967529 9.75793457 C-202.66322832 9.63095791 -204.84694635 9.50678591 -207.03082275 9.38549805 C-210.05916466 9.21577759 -213.08649488 9.03356548 -216.1138916 8.84783936 C-217.02837067 8.79888519 -217.94284973 8.74993103 -218.88504028 8.69949341 C-221.01940677 8.5618934 -223.14699795 8.32488195 -225.2701416 8.06658936 C-225.6001416 7.40658936 -225.9301416 6.74658936 -226.2701416 6.06658936 C-194.625844 4.12587223 -162.95700325 3.04291345 -131.2701416 2.06658936 C-130.34638733 2.03758545 -129.42263306 2.00858154 -128.47088623 1.97869873 C-102.21515078 1.1554028 -75.94944188 0.86065023 -49.68376923 0.53837967 C-46.94996175 0.50476345 -44.21616129 0.47061438 -41.48236084 0.43643188 C-31.95339301 0.31850315 -22.42445318 0.21405232 -12.89507866 0.13491535 C-8.59656653 0.09878909 -4.2983027 0.05602233 0 0 Z " fill="#5AB6D8" transform="translate(941.2701416015625,483.93341064453125)"/>
<path d="M0 0 C3.56458044 0.06243692 4.63871191 0.30312645 7.75 2.3125 C10.36149836 6.31135687 11.30101375 9.60237324 10.75 14.375 C9.11560471 17.01112143 7.99888712 18.3925687 5.75 20.375 C5.14414062 20.91640625 4.53828125 21.4578125 3.9140625 22.015625 C2.56999843 23.19500138 1.21672325 24.36394492 -0.14453125 25.5234375 C-2.90179066 27.94818882 -5.45061647 30.54706706 -8 33.1875 C-9.95117154 35.08447233 -11.94648429 36.85469699 -14.0078125 38.62890625 C-16.85527055 41.09622009 -19.5498593 43.64205962 -22.1796875 46.33984375 C-22.83066406 46.99404297 -23.48164062 47.64824219 -24.15234375 48.32226562 C-25.47736265 49.65909163 -26.78460986 51.01374856 -28.07421875 52.38476562 C-31.78557012 56.04853556 -34.23896594 57.82576673 -39.5625 57.9375 C-43.08630445 57.75992245 -44.26271997 57.36711362 -47.375 55.4375 C-49.45189957 52.04523071 -50.38235942 49.96677112 -50.21484375 46 C-47.97972887 39.91903969 -42.15384581 35.38908986 -37.25 31.375 C-36.59 31.375 -35.93 31.375 -35.25 31.375 C-34.92 30.385 -34.59 29.395 -34.25 28.375 C-32.859375 27.0078125 -32.859375 27.0078125 -31 25.5 C-27.03618787 22.1492955 -23.3905275 18.56696518 -19.75 14.875 C-15.08638306 10.15624803 -10.32622571 5.65271829 -5.25 1.375 C-3.69049449 -0.18450551 -2.16122869 0.09303302 0 0 Z " fill="#79DFF8" transform="translate(870.25,297.625)"/>
<path d="M0 0 C3.98661216 0.08703622 5.80405621 0.79405158 8.70507812 3.51391602 C9.39424316 4.15185089 10.0834082 4.78978577 10.79345703 5.447052 C11.8547583 6.46326126 11.8547583 6.46326126 12.9375 7.5 C13.97366455 8.47330765 13.97366455 8.47330765 15.03076172 9.46627808 C19.72104806 13.90542449 24.32201597 18.43697589 28.921875 22.96948242 C30.60538094 24.62112853 32.29688586 26.26465889 33.99609375 27.90014648 C36.46472513 30.27772569 38.90630303 32.68035536 41.34375 35.08984375 C42.10610962 35.81405014 42.86846924 36.53825653 43.65393066 37.28440857 C49.39437143 43.04652032 49.39437143 43.04652032 49.52929688 47.84204102 C48.86785939 51.93045595 47.88315105 53.64098574 44.9375 56.5 C41.5300656 58.2037172 38.56729505 58.39979742 34.9375 57.5 C31.15946044 54.98352022 28.09749048 51.73270359 24.9375 48.5 C23.70837934 47.26818464 22.47782161 46.0378021 21.24609375 44.80859375 C19.27093068 42.83540535 17.2979538 40.86032466 15.33251953 38.87744141 C12.22248498 35.74528824 9.11618446 32.67270266 5.75 29.8125 C2.24590396 26.79788966 -1.19374582 23.72741393 -4.5625 20.5625 C-5.10414795 20.08401611 -5.6457959 19.60553223 -6.20385742 19.11254883 C-9.11098792 16.32535796 -10.42773449 14.269859 -10.55859375 10.3046875 C-9.95686782 5.68987602 -8.62366332 4.36630219 -5.0625 1.5 C-3.53298974 -0.02951026 -2.12889586 0.1460649 0 0 Z " fill="#99AEF8" transform="translate(665.0625,297.5)"/>
<path d="M0 0 C0.92941406 0.0103125 1.85882812 0.020625 2.81640625 0.03125 C5.92843276 0.58779721 7.19032407 1.28383707 9.4375 3.5 C9.94543457 6.18087769 9.94543457 6.18087769 9.95507812 9.45263672 C9.96768677 10.67755829 9.98029541 11.90247986 9.99328613 13.16452026 C9.9861249 14.50291517 9.97792056 15.84130485 9.96875 17.1796875 C9.97144519 18.55347976 9.97532784 19.92727017 9.98034668 21.30105591 C9.98624459 24.18119457 9.97767297 27.06083701 9.95898438 29.94091797 C9.93623641 33.62547944 9.9492879 37.30887279 9.97327423 40.99339104 C9.98776167 43.83139772 9.98311225 46.66912975 9.97276306 49.50714493 C9.97010162 50.86506413 9.97334506 52.22300857 9.98268127 53.58089828 C9.9928884 55.4834518 9.97456091 57.38609308 9.95507812 59.28857422 C9.95030457 60.91048172 9.95030457 60.91048172 9.94543457 62.56515503 C9.31701229 66.19617773 7.96797413 67.87081184 5.4375 70.5 C3.01756642 71.70996679 1.2628367 71.77083271 -1.4375 71.875 C-2.30117188 71.92398438 -3.16484375 71.97296875 -4.0546875 72.0234375 C-7.68008302 71.26673501 -8.55754498 69.54255612 -10.5625 66.5 C-11.0771637 63.61657715 -11.0771637 63.61657715 -11.09594727 60.41210938 C-11.1117836 59.20735962 -11.12761993 58.00260986 -11.14393616 56.76135254 C-11.13897629 55.4685437 -11.13401642 54.17573486 -11.12890625 52.84375 C-11.13414517 51.4952349 -11.14042263 50.14672347 -11.14768982 48.79821777 C-11.15807879 45.97711904 -11.15355449 43.15652519 -11.13891602 40.33544922 C-11.12172075 36.72698761 -11.14523693 33.12011729 -11.18040562 29.51183319 C-11.20240516 26.72871427 -11.20093244 23.94597477 -11.1926403 21.16279602 C-11.1914258 19.18803754 -11.21133186 17.21330247 -11.23158264 15.23864746 C-11.12800951 5.28264344 -11.12800951 5.28264344 -8.1953125 2.18359375 C-5.17979073 0.25527048 -3.55489443 -0.11866129 0 0 Z " fill="#8DCAFC" transform="translate(768.5625,256.5)"/>
<path d="M0 0 C3.07469523 1.70251719 5.40613254 3.81226508 7 7 C7.63265287 12.10641248 7.90754125 15.789945 4.75 20 C3.8425 20.66 2.935 21.32 2 22 C1.1028125 22.680625 1.1028125 22.680625 0.1875 23.375 C-3.39914426 24.3997555 -6.53299511 24.22872779 -10 23 C-13.42282975 20.56646914 -15.55260825 17.85715854 -16.54296875 13.74609375 C-16.80544764 9.55352547 -16.27902741 6.80366995 -13.625 3.5 C-9.39611443 -0.52751007 -5.69165047 -0.87857692 0 0 Z " fill="#72E4F6" transform="translate(863,386)"/>
<path d="M0 0 C3.87765844 1.34226638 5.55557782 2.34818081 7.875 5.75 C9.17344457 9.50106209 9.50173244 12.05781652 9 16 C6.87915298 19.40850414 4.8818913 21.81386655 1 23 C-5.69362364 23.7557317 -5.69362364 23.7557317 -8.81640625 21.94921875 C-11.66102051 19.6255459 -13.7542888 17.75508002 -14.2734375 14.046875 C-14.46329043 9.75327801 -14.4342668 6.90417036 -11.625 3.5 C-7.64773631 -0.28787018 -5.46414033 -0.36427602 0 0 Z " fill="#8C9AF3" transform="translate(679,386)"/>
<path d="M0 0 C0 0.33 0 0.66 0 1 C-9.35318363 1.51878339 -18.7073607 2.01784365 -28.0625 2.5 C-28.75362759 2.53563175 -29.44475517 2.5712635 -30.15682602 2.60797501 C-53.4503105 3.80244187 -76.67307145 4.42515666 -100 4 C-100 4.66 -100 5.32 -100 6 C-95.71 6 -91.42 6 -87 6 C-87 6.33 -87 6.66 -87 7 C-98.03913945 7.16207546 -108.98440762 6.65764731 -120 6 C-120.33 5.34 -120.66 4.68 -121 4 C-98.78261455 2.63742716 -76.55754162 1.66117447 -54.3125 0.875 C-53.10184875 0.83070862 -51.89119751 0.78641724 -50.64385986 0.74078369 C-33.75612861 0.12769774 -16.89867022 -0.12111262 0 0 Z " fill="#5268A4" transform="translate(836,486)"/>
<path d="M0 0 C0.9954483 -0.00058411 1.99089661 -0.00116821 3.01651001 -0.00177002 C6.30660886 0.00101656 9.59580162 0.0321366 12.88574219 0.06347656 C15.16688543 0.07093688 17.44803507 0.0766308 19.72918701 0.08062744 C25.73317153 0.09590007 31.73676899 0.13519642 37.74060059 0.17944336 C43.86705286 0.22036065 49.99356766 0.23863092 56.12011719 0.25878906 C68.14112058 0.30168868 80.1618367 0.36996011 92.18261719 0.45410156 C92.18261719 0.78410156 92.18261719 1.11410156 92.18261719 1.45410156 C90.93869202 1.45552658 89.69476685 1.4569516 88.41314697 1.4584198 C76.70016154 1.47507681 64.98752411 1.51781089 53.27472305 1.58619213 C47.25275932 1.62050809 41.23105053 1.64557932 35.20898438 1.6496582 C29.3991802 1.6539312 23.58995158 1.68231146 17.78032684 1.72753334 C15.56196187 1.74054025 13.34352814 1.74480479 11.1251297 1.74025536 C8.02158675 1.73537222 4.91974084 1.76134126 1.81640625 1.79467773 C0.8957135 1.78605209 -0.02497925 1.77742645 -0.97357178 1.76853943 C-6.19783751 1.83808404 -6.19783751 1.83808404 -10.40875244 4.7870636 C-12.23992827 8.2541303 -12.03577062 10.40240216 -11.56738281 14.26660156 C-11.43847656 15.42804688 -11.30957031 16.58949219 -11.17675781 17.78613281 C-11.05816406 18.6665625 -10.93957031 19.54699219 -10.81738281 20.45410156 C-14.00638943 17.26509494 -14.00291996 13.83766101 -14.12988281 9.45410156 C-14.16726563 8.60847656 -14.20464844 7.76285156 -14.24316406 6.89160156 C-12.89897067 -0.80359732 -6.26843449 -0.09596291 0 0 Z " fill="#B07DF5" transform="translate(495.8173828125,442.5458984375)"/>
<path d="M0 0 C0 3 0 3 -1.47772217 4.83407593 C-3.43064974 7.61273613 -3.36877613 9.28026379 -3.35644531 12.65478516 C-3.35944641 13.78921051 -3.36244751 14.92363586 -3.36553955 16.09243774 C-3.35319275 17.31232391 -3.34084595 18.53221008 -3.328125 19.7890625 C-3.32531525 21.67121964 -3.32531525 21.67121964 -3.32244873 23.59140015 C-3.31572667 26.24288323 -3.30345755 28.89359728 -3.28125 31.54492188 C-3.25291039 34.94577694 -3.24203181 38.34639256 -3.2375679 41.74735451 C-3.23241739 44.99045357 -3.21787984 48.23349484 -3.203125 51.4765625 C-3.19887512 52.70049713 -3.19462524 53.92443176 -3.19024658 55.18545532 C-3.18063904 56.31357635 -3.17103149 57.44169739 -3.16113281 58.60400391 C-3.15089081 60.09814316 -3.15089081 60.09814316 -3.14044189 61.62246704 C-3.1555438 64.01699 -3.1555438 64.01699 -2 66 C-2.99 66.99 -2.99 66.99 -4 68 C-5.33602754 65.32794491 -5.15670995 63.24484347 -5.19287109 60.25268555 C-5.20893402 59.0477092 -5.22499695 57.84273285 -5.24154663 56.60124207 C-5.2858948 51.08808539 -5.32750088 45.57506018 -5.35009766 40.06176758 C-5.36343429 37.15064043 -5.39128034 34.24021473 -5.43212891 31.3293457 C-5.48147812 27.81266617 -5.50622113 24.29662259 -5.51332474 20.77961159 C-5.52328846 18.79145832 -5.55752711 16.80347458 -5.59213257 14.81559753 C-5.56856866 4.77475041 -5.56856866 4.77475041 -2.46728516 1.63989258 C-1.65308105 1.09872803 -0.83887695 0.55756348 0 0 Z " fill="#94BCEB" transform="translate(763,257)"/>
<path d="M0 0 C1.80791016 0.01933594 1.80791016 0.01933594 3.65234375 0.0390625 C4.90660156 0.07257813 6.16085937 0.10609375 7.453125 0.140625 C8.72285156 0.15867187 9.99257813 0.17671875 11.30078125 0.1953125 C14.43565577 0.24245347 17.5690106 0.30824836 20.703125 0.390625 C20.703125 0.720625 20.703125 1.050625 20.703125 1.390625 C19.96674805 1.39473389 19.23037109 1.39884277 18.47167969 1.40307617 C15.13134805 1.43599492 11.79284449 1.50663814 8.453125 1.578125 C6.71482422 1.58682617 6.71482422 1.58682617 4.94140625 1.59570312 C-1.53700632 1.63551594 -1.53700632 1.63551594 -7.109375 4.515625 C-8.58057613 8.07748037 -8.50913162 10.38950787 -8.046875 14.203125 C-7.91796875 15.36457031 -7.7890625 16.52601563 -7.65625 17.72265625 C-7.53765625 18.60308594 -7.4190625 19.48351562 -7.296875 20.390625 C-10.48588162 17.20161838 -10.48241215 13.77418445 -10.609375 9.390625 C-10.64675781 8.545 -10.68414062 7.699375 -10.72265625 6.828125 C-9.67210052 0.81393438 -5.44965607 -0.1028237 0 0 Z " fill="#B369E7" transform="translate(492.296875,442.609375)"/>
<path d="M0 0 C0.66 0.33 1.32 0.66 2 1 C-5.14649505 7.5509538 -15.97622112 15.55167369 -25.9375 16.1875 C-26.9584375 16.0946875 -26.9584375 16.0946875 -28 16 C-24.60542749 13.73695166 -21.03475221 12.02778597 -17.375 10.25 C-11.26512018 7.24739901 -5.5036736 4.03602731 0 0 Z " fill="#6FD7E1" transform="translate(998,506)"/>
<path d="M0 0 C0 0.33 0 0.66 0 1 C-10.38437692 1.09776087 -20.66192051 1.1555538 -31 0 C-31 -0.33 -31 -0.66 -31 -1 C-20.54289665 -2.38716677 -10.3750568 -1.85212814 0 0 Z " fill="#546CAC" transform="translate(783,494)"/>
<path d="M0 0 C-1.61010527 4.07376031 -4.53822271 6.76507069 -7.625 9.75 C-8.140625 10.25660156 -8.65625 10.76320313 -9.1875 11.28515625 C-10.45383339 12.52803902 -11.7263144 13.76465276 -13 15 C-13.33 14.01 -13.66 13.02 -14 12 C-12.04761147 9.99387601 -10.08862178 7.99507567 -8.125 6 C-7.29162109 5.14148438 -7.29162109 5.14148438 -6.44140625 4.265625 C-2.2265625 0 -2.2265625 0 0 0 Z " fill="#71C2E9" transform="translate(835,329)"/>
<path d="M0 0 C0.66 0.66 1.32 1.32 2 2 C0.41984377 3.60729631 -1.16425652 5.21071576 -2.75 6.8125 C-3.63171875 7.70582031 -4.5134375 8.59914063 -5.421875 9.51953125 C-7.53448851 11.55212152 -9.60794665 13.31773818 -12 15 C-12.66 14.67 -13.32 14.34 -14 14 C-9.38 9.38 -4.76 4.76 0 0 Z " fill="#74CFE4" transform="translate(857,306)"/>
<path d="M0 0 C-5.46998848 2.94537841 -10.84918578 4.26190229 -17 5 C-15.49200696 1.98401393 -13.32266466 1.86260957 -10.1875 0.8125 C-9.12917969 0.44769531 -8.07085938 0.08289063 -6.98046875 -0.29296875 C-4.08275549 -0.98036862 -2.73398578 -1.03931179 0 0 Z " fill="#66CEE6" transform="translate(944,532)"/>
<path d="M0 0 C0 3 0 3 -1.53125 4.82421875 C-2.1809375 5.43910156 -2.830625 6.05398438 -3.5 6.6875 C-4.1496875 7.31011719 -4.799375 7.93273437 -5.46875 8.57421875 C-5.9740625 9.04472656 -6.479375 9.51523437 -7 10 C-7.66 9.67 -8.32 9.34 -9 9 C-7.87895467 7.68412059 -6.75303035 6.37239647 -5.625 5.0625 C-4.99851562 4.33160156 -4.37203125 3.60070312 -3.7265625 2.84765625 C-2 1 -2 1 0 0 Z " fill="#15273C" transform="translate(890,572)"/>
<path d="M0 0 C0.33 0.66 0.66 1.32 1 2 C-3.64849515 4.3992233 -7.91086074 4.19957409 -13 4 C-13.33 3.01 -13.66 2.02 -14 1 C-12.4840625 1.309375 -12.4840625 1.309375 -10.9375 1.625 C-6.50493131 2.0471494 -4.13891038 1.4359485 0 0 Z " fill="#5863C0" transform="translate(673,515)"/>
<path d="M0 0 C0.99 0.33 1.98 0.66 3 1 C0.28817788 3.60334924 -0.89133813 3.99456691 -4.75 4.1875 C-5.8225 4.125625 -6.895 4.06375 -8 4 C-8 3.34 -8 2.68 -8 2 C-6.865625 1.855625 -5.73125 1.71125 -4.5625 1.5625 C-1.19222799 1.38828522 -1.19222799 1.38828522 0 0 Z " fill="#2A2F62" transform="translate(670,517)"/>
<path d="M0 0 C-4.46726453 3.31442207 -8.62007164 3.66009167 -14 4 C-11.37350692 2.24900461 -9.38191413 1.30690675 -6.4375 0.3125 C-5.65246094 0.04050781 -4.86742187 -0.23148438 -4.05859375 -0.51171875 C-2 -1 -2 -1 0 0 Z " fill="#60BACB" transform="translate(964,525)"/>
<path d="M0 0 C0 3.99904969 -1.72586967 5.80200422 -4 9 C-4.8125 7.3125 -4.8125 7.3125 -5 5 C-2.5625 2.25 -2.5625 2.25 0 0 Z " fill="#8AB5E4" transform="translate(763,257)"/>
</svg>
