<?xml version="1.0" encoding="UTF-8"?>
<svg version="1.1" xmlns="http://www.w3.org/2000/svg" width="1536" height="1024">
<path d="M0 0 C506.88 0 1013.76 0 1536 0 C1536 337.92 1536 675.84 1536 1024 C1029.12 1024 522.24 1024 0 1024 C0 686.08 0 348.16 0 0 Z " fill="#101726" transform="translate(0,0)"/>
<path d="M0 0 C0.77440933 -0.00073643 1.54881866 -0.00147285 2.34669495 -0.0022316 C41.46920172 -0.03227411 80.67246951 1.01420772 119.5546875 5.63671875 C124.26771094 6.19609683 128.94719147 6.50158305 133.6875 6.6875 C144.18986418 7.20263098 154.50469345 9.07637511 164.87255859 10.75341797 C169.2622049 11.45041567 173.66061659 12.07351947 178.0625 12.6875 C180.68121137 13.05998579 183.29961294 13.43459361 185.91796875 13.80957031 C188.16770776 14.13106343 190.41775056 14.45043279 192.66796875 14.76855469 C210.66060779 17.320823 228.39558297 20.38330782 246.13232422 24.38916016 C250.46914438 25.35441883 254.81333913 26.28027002 259.16015625 27.19921875 C275.47333557 30.6561217 291.71363997 34.20964028 307.79150391 38.66113281 C309.9904655 39.24745775 312.19908626 39.75308599 314.41796875 40.2578125 C318.02972544 41.25823365 319.93143249 42.2721168 322.15234375 45.34375 C323.88437237 49.23881897 323.7250588 53.11447942 323 57.25 C321.32063265 60.73313228 320.07452014 62.57458734 316.8125 64.625 C308.7429644 66.41823013 301.35556064 64.65161352 293.5 62.75 C249.51476523 52.56270931 204.95061338 45.06160468 160.15985107 39.51904297 C157.96496154 39.24563542 155.77079667 38.96688116 153.57666016 38.6875 C128.7293648 35.54569065 103.8686952 33.48276769 78.875 32 C77.82974529 31.93752453 77.82974529 31.93752453 76.76337433 31.87378693 C47.77157529 30.14347943 18.85927718 29.06663939 -10.1875 29.125 C-11.53051743 29.12638266 -12.87353503 29.12761205 -14.21655273 29.12869263 C-37.09792688 29.15042572 -59.97833607 29.18049286 -82.79833984 31.02026367 C-88.95133573 31.4617742 -95.11758346 31.60137799 -101.28320312 31.76757812 C-109.74585367 32.04633541 -118.15213212 32.72736721 -126.58662415 33.45381165 C-133.39831406 34.03941272 -140.21099243 34.56449956 -147.03125 35.0390625 C-192.10040344 38.24776214 -237.08551196 43.78765395 -281.70837402 50.88598633 C-284.25473058 51.29046272 -286.80167392 51.69113143 -289.34863281 52.09179688 C-330.0664062 58.51397328 -370.69911921 65.56133178 -411 74.25 C-414.88428908 75.0834145 -418.76867174 75.91639089 -422.65307617 76.74926758 C-425.10165312 77.27544072 -427.5497661 77.80377959 -429.99731445 78.3347168 C-431.09003662 78.57101807 -432.18275879 78.80731934 -433.30859375 79.05078125 C-434.26564209 79.25872314 -435.22269043 79.46666504 -436.20874023 79.6809082 C-437.12985596 79.8687085 -438.05097168 80.05650879 -439 80.25 C-440.04808838 80.46938232 -441.09617676 80.68876465 -442.17602539 80.91479492 C-445 81.25 -445 81.25 -447.875 79.8125 C-450.41597381 76.74838452 -450.61874354 75.10280554 -450.76171875 71.25 C-449.48856391 67.90715242 -447.0569107 66.94172217 -444 65.25 C-441.42076106 64.32191724 -438.94672354 63.52404314 -436.3125 62.8125 C-435.57918457 62.60568604 -434.84586914 62.39887207 -434.09033203 62.18579102 C-431.73060035 61.5259927 -429.36652446 60.88497977 -427 60.25 C-426.2073877 60.03698242 -425.41477539 59.82396484 -424.59814453 59.60449219 C-420.74382324 58.57385809 -416.8858254 57.55854939 -413.0234375 56.55859375 C-403.97235771 54.21061489 -394.9420744 51.78397098 -385.921875 49.3203125 C-369.37621732 44.81876908 -352.77992087 40.79584872 -336 37.25 C-334.97712891 37.0324707 -333.95425781 36.81494141 -332.90039062 36.59082031 C-325.93976404 35.11330773 -318.97169863 33.6742383 -312 32.25 C-311.05640625 32.05583496 -310.1128125 31.86166992 -309.140625 31.66162109 C-284.1021681 26.51796268 -258.93332146 21.47261215 -233.61328125 17.91796875 C-230.30873768 17.45240954 -227.01998788 16.92525311 -223.73046875 16.36328125 C-180.31278089 8.9841664 -136.2301365 5.38190163 -92.3125 2.5625 C-91.38556335 2.50165222 -90.45862671 2.44080444 -89.50360107 2.37811279 C-59.70789822 0.44622681 -29.850589 0.01317128 0 0 Z " fill="#75ABF4" transform="translate(831,632.75)"/>
<path d="M0 0 C0.02333692 17.04573514 0.04098308 34.09146531 0.05181217 51.13721275 C0.05697344 59.05144153 0.06401293 66.9656604 0.07543945 74.87988281 C0.08539145 81.77609057 0.09185466 88.67229115 0.09408849 95.56850588 C0.09539472 99.22163762 0.09847505 102.87474882 0.10573006 106.52787399 C0.11375414 110.60111155 0.1139908 114.67431316 0.11352539 118.74755859 C0.11712067 119.96531479 0.12071594 121.18307098 0.12442017 122.43772888 C0.1230455 123.54273239 0.12167084 124.6477359 0.12025452 125.78622437 C0.12163721 127.23251756 0.12163721 127.23251756 0.12304783 128.70802879 C0 131 0 131 -1 133 C-3.23046875 133.2734375 -3.23046875 133.2734375 -6 133 C-8.17578125 131.1640625 -8.17578125 131.1640625 -10.3125 128.625 C-11.09496094 127.70589844 -11.87742187 126.78679687 -12.68359375 125.83984375 C-15.42255448 122.48196103 -18.14475736 119.11344766 -20.828125 115.7109375 C-24.28040788 111.40179305 -27.86239386 107.20454777 -31.4453125 103.00390625 C-32.95308264 101.23100833 -34.45185537 99.45027312 -35.9296875 97.65234375 C-38.86469406 94.01494122 -38.86469406 94.01494122 -43 92 C-43.37898438 92.84111328 -43.37898438 92.84111328 -43.765625 93.69921875 C-48.39846933 102.33448872 -56.33247949 109.63110926 -63.03808594 116.6965332 C-65.67738272 119.48167015 -68.26077651 122.26866811 -70.6875 125.2421875 C-72.61485663 127.5406905 -74.45092196 129.41133931 -76.75 131.3125 C-79.76086508 133.87314226 -82.55740892 136.54105122 -85.3125 139.375 C-90.22589783 144.33861995 -95.54281742 148.65239802 -101 153 C-102.12369651 153.92420208 -103.24603694 154.85005483 -104.3671875 155.77734375 C-114.1580878 163.82546648 -124.40345248 171.05376818 -135 178 C-135.89299805 178.58652344 -136.78599609 179.17304688 -137.70605469 179.77734375 C-215.08549715 230.22450918 -215.08549715 230.22450918 -240 228 C-240.66 227.67 -241.32 227.34 -242 227 C-242.1811226 224.83840574 -242.26847679 222.66872246 -242.3125 220.5 C-242.62249862 214.53100695 -243.60858595 210.73808515 -247.0390625 205.8671875 C-248 204 -248 204 -247.76660156 202.01367188 C-246.38702702 198.38987225 -242.43741286 197.2507695 -239.125 195.625 C-238.29218506 195.2007373 -237.45937012 194.77647461 -236.60131836 194.33935547 C-234.75016329 193.39656453 -232.89606062 192.459546 -231.03955078 191.52734375 C-199.57926207 175.71886454 -168.36818253 158.36627101 -141 136 C-139.62134766 134.90558594 -139.62134766 134.90558594 -138.21484375 133.7890625 C-131.73659837 128.59553245 -125.60390049 123.06844601 -119.52929688 117.41601562 C-117.99133133 115.99197346 -116.44303521 114.58014675 -114.890625 113.171875 C-105.14427224 104.32750624 -96.21001654 95.30957986 -88 85 C-87.23816406 84.0821875 -86.47632813 83.164375 -85.69140625 82.21875 C-84.96824219 81.3421875 -84.24507812 80.465625 -83.5 79.5625 C-82.8503125 78.78003906 -82.200625 77.99757813 -81.53125 77.19140625 C-80.03871594 75.05540725 -79.41772344 73.54695264 -79 71 C-80.11133301 71.03464355 -81.22266602 71.06928711 -82.36767578 71.10498047 C-87.40457246 71.10042119 -92.17993358 70.25310845 -97.1171875 69.3203125 C-98.0555545 69.14748749 -98.99392151 68.97466248 -99.96072388 68.79660034 C-101.92955607 68.43192128 -103.89772212 68.06362904 -105.86523438 67.69189453 C-108.88474284 67.12316492 -111.9069269 66.5706829 -114.9296875 66.01953125 C-116.84653487 65.66242692 -118.76320826 65.30438721 -120.6796875 64.9453125 C-121.584841 64.78064484 -122.48999451 64.61597717 -123.4225769 64.44631958 C-124.67495651 64.20629715 -124.67495651 64.20629715 -125.95263672 63.96142578 C-126.68795624 63.82374786 -127.42327576 63.68606995 -128.18087769 63.54421997 C-130 63 -130 63 -132 61 C-131.95043945 59.05395508 -131.95043945 59.05395508 -131 57 C-128.75854492 55.5144043 -128.75854492 55.5144043 -125.79296875 54.13671875 C-124.70161621 53.62286621 -123.61026367 53.10901367 -122.48583984 52.57958984 C-121.3355127 52.0583252 -120.18518555 51.53706055 -119 51 C-117.91025879 50.49807129 -116.82051758 49.99614258 -115.69775391 49.47900391 C-112.24485753 47.90297843 -108.78077379 46.35437389 -105.3125 44.8125 C-104.03508439 44.24234848 -102.75774204 43.67203278 -101.48046875 43.1015625 C-92.48278418 39.08702864 -83.46543012 35.1175284 -74.44311523 31.15869141 C-66.57210288 27.70148769 -58.71977214 24.20381244 -50.875 20.6875 C-49.68583984 20.15552002 -48.49667969 19.62354004 -47.27148438 19.07543945 C-41.37191008 16.43276306 -35.48306631 13.76898452 -29.61282349 11.06169128 C-26.76719743 9.74989874 -23.91858585 8.44465656 -21.06988525 7.13955688 C-19.70055798 6.5097261 -18.33280729 5.87645517 -16.96673584 5.23959351 C-15.06492663 4.35309338 -13.15814851 3.47822124 -11.25 2.60546875 C-10.16203125 2.10168701 -9.0740625 1.59790527 -7.953125 1.07885742 C-5.01454551 0.00531387 -3.08025401 -0.08970136 0 0 Z " fill="#74DFF4" transform="translate(1109,260)"/>
<path d="M0 0 C1.24402588 0.00858032 1.24402588 0.00858032 2.51318359 0.01733398 C13.93121535 0.34561621 23.62426817 4.50405542 31.8125 12.5 C41.63618623 23.33925618 44.54384325 33.5436916 44.2109375 48.03515625 C43.58583903 58.35814761 38.36097412 67.08035229 31.2421875 74.37890625 C27.41126868 77.72326143 23.3475055 80.22496402 18.8125 82.5 C17.83410156 82.99113281 17.83410156 82.99113281 16.8359375 83.4921875 C6.62643798 88.21464322 -4.54652127 87.41707712 -14.9765625 83.88671875 C-26.04775848 79.10536282 -34.38536585 70.49814325 -39.41015625 59.5859375 C-43.55496968 48.46367432 -43.3927851 36.55148924 -39.1875 25.5 C-37.76116737 22.62204515 -36.10298073 20.07409874 -34.1875 17.5 C-33.76855469 16.90574219 -33.34960938 16.31148438 -32.91796875 15.69921875 C-25.03786765 5.45735824 -12.70733192 -0.10262515 0 0 Z " fill="#70C3F5" transform="translate(814.1875,438.5)"/>
<path d="M0 0 C0.72123047 -0.01224609 1.44246094 -0.02449219 2.18554688 -0.03710938 C13.32729591 -0.06708718 22.67600792 3.83954988 31.05859375 11.296875 C39.83609235 20.65511547 44.21972328 31.55752172 43.9375 44.328125 C42.96833604 55.4129378 38.50059224 66.52852733 30.34375 74.23046875 C18.61791545 82.86964979 6.14692071 86.62410094 -8.3125 85.1875 C-19.01941012 82.74216514 -28.22044691 76.91037641 -34.625 67.9375 C-40.97007292 57.53662763 -45.15547749 45.98027024 -42.8515625 33.73828125 C-39.79594772 22.28871294 -33.17866474 12.47677482 -23.0859375 6.171875 C-15.00701035 1.68560845 -9.2153413 0.00810496 0 0 Z " fill="#7694F5" transform="translate(598.3125,525.8125)"/>
<path d="M0 0 C0.825 0.02449219 1.65 0.04898437 2.5 0.07421875 C3.325 0.07035156 4.15 0.06648438 5 0.0625 C8.68059012 1.09191505 10.12213791 2.78996711 12.5 5.76171875 C12.99035219 8.73855603 13.17329897 11.14035896 13.12818909 14.11193848 C13.13883067 15.36874727 13.13883067 15.36874727 13.14968723 16.65094614 C13.16728291 19.45721784 13.14915478 22.26210736 13.13110352 25.06835938 C13.13624173 27.08066946 13.14352227 29.09297506 13.15278625 31.10527039 C13.17132074 36.57018087 13.15834855 42.03460427 13.13869596 47.49949455 C13.12232518 53.21601821 13.13112017 58.93251064 13.13621521 64.64904785 C13.14073791 74.24934684 13.12485526 83.8494511 13.09692383 93.44970703 C13.06487124 104.55210833 13.06488716 115.6541584 13.0821386 126.75658464 C13.09799717 137.43267252 13.0912744 148.10863151 13.07420158 158.78471375 C13.06732535 163.33008755 13.06836944 167.87535822 13.07574654 172.42073059 C13.08340232 177.77242698 13.07130609 183.1237232 13.04389763 188.47535133 C13.03700533 190.4405632 13.03692484 192.40581238 13.04411316 194.37102318 C13.05278908 197.05162981 13.03688367 199.7309962 13.0146637 202.41149902 C13.02702485 203.58100342 13.02702485 203.58100342 13.03963572 204.77413416 C12.98330754 208.45008929 12.60556044 210.59188647 10.64752102 213.74210358 C7.85248638 216.37066661 6.29381319 216.43414141 2.5 216.38671875 C1.46875 216.39960937 0.4375 216.4125 -0.625 216.42578125 C-3.5 215.76171875 -3.5 215.76171875 -5.64752102 213.73931026 C-8.00931495 209.94306878 -8.06074239 206.790186 -8.0146637 202.45619202 C-8.02160922 201.62310861 -8.02855475 200.79002519 -8.03571075 199.93169683 C-8.0539987 197.14177315 -8.04371156 194.35269808 -8.03344727 191.56274414 C-8.04050484 189.5619086 -8.04924917 187.5610784 -8.05955505 185.56025696 C-8.08207703 180.12635186 -8.07910267 174.69273764 -8.07023358 169.25880361 C-8.06512725 164.72337405 -8.07241339 160.18799934 -8.07970566 155.65257543 C-8.09671365 144.95363771 -8.09312976 134.25484258 -8.07641602 123.5559082 C-8.05949265 112.51597349 -8.07533034 101.4764341 -8.1076389 90.43654257 C-8.13432356 80.9595389 -8.14161384 71.48265837 -8.13312382 62.0056209 C-8.12819148 56.34473838 -8.13042697 50.68409377 -8.15091133 45.02324104 C-8.16925068 39.70022485 -8.16333078 34.3777779 -8.13871193 29.0547924 C-8.13369857 27.1012793 -8.13720737 25.14772295 -8.14986038 23.19424438 C-8.16577027 20.5269166 -8.15086036 17.86146803 -8.12818909 15.19422913 C-8.14002482 14.42136332 -8.15186054 13.64849752 -8.16405493 12.85221153 C-8.09599463 8.91020805 -7.54485296 6.33181252 -5.11698818 3.28229427 C-2.5 0.76171875 -2.5 0.76171875 0 0 Z " fill="#77E2F7" transform="translate(1060.5,416.23828125)"/>
<path d="M0 0 C1.71875 2.6171875 1.71875 2.6171875 3.5 5.875 C5.43562065 9.39816916 7.1621827 12.18759599 10 15 C10.52558913 18.45387143 10.3794612 20.33100771 8.6484375 23.3828125 C4.738173 27.24693819 0.21881424 28.90628382 -4.8125 31 C-5.91126465 31.46929932 -7.0100293 31.93859863 -8.14208984 32.42211914 C-11.13563162 33.69678989 -14.13424792 34.95852593 -17.13519287 36.21563721 C-19.62003998 37.2607971 -22.09862616 38.32034903 -24.57723999 39.38018799 C-50.02275934 50.25537253 -75.79207414 60.22740775 -101.82250977 69.61181641 C-103.01287842 70.04284668 -104.20324707 70.47387695 -105.4296875 70.91796875 C-106.48397949 71.29719482 -107.53827148 71.6764209 -108.62451172 72.06713867 C-110.91862478 72.78538883 -110.91862478 72.78538883 -112 74 C-118.6 73.4 -118.6 73.4 -121 71 C-121.30859375 68.390625 -121.30859375 68.390625 -121.4375 65.25 C-121.74002045 60.38640201 -122.72841653 57.32682565 -125 53 C-124.14678163 50.20764896 -123.07142404 49.07142404 -121 47 C-118.53347087 46.04937599 -116.0786835 45.17431345 -113.57421875 44.3359375 C-103.89102015 41.00444909 -94.34826668 37.35488567 -84.8125 33.625 C-83.93814301 33.28362 -83.06378601 32.94223999 -82.16293335 32.59051514 C-57.57105316 22.97437228 -32.94317452 13.13183477 -9.1496582 1.65283203 C-8.36421631 1.2814209 -7.57877441 0.91000977 -6.76953125 0.52734375 C-6.10542236 0.20499756 -5.44131348 -0.11734863 -4.75708008 -0.44946289 C-3 -1 -3 -1 0 0 Z " fill="#6CA0F4" transform="translate(771,503)"/>
<path d="M0 0 C0.50660156 1.12148438 0.50660156 1.12148438 1.0234375 2.265625 C1.46945312 3.25046875 1.91546875 4.2353125 2.375 5.25 C2.81585937 6.22453125 3.25671875 7.1990625 3.7109375 8.203125 C4.48361006 9.87959032 5.28878126 11.54244048 6.15625 13.171875 C7 15 7 15 7.125 18 C5.63339232 21.97762047 3.93317783 22.30318766 0.23791504 24.03613281 C-3.12848872 25.48603867 -6.54021793 26.71445809 -10.015625 27.875 C-11.12124786 28.25180908 -11.12124786 28.25180908 -12.24920654 28.63623047 C-14.58102836 29.42950717 -16.9154269 30.21486227 -19.25 31 C-20.79835252 31.52552505 -22.346531 32.05156319 -23.89453125 32.578125 C-31.33331104 35.10484137 -38.78222581 37.60089524 -46.23730469 40.07910156 C-49.06685709 41.0222857 -51.89306838 41.97497438 -54.71875 42.9296875 C-64.10660531 46.09326614 -73.49469914 49.20625466 -83 52 C-95.24146401 55.59911697 -107.30984479 59.71456465 -119.39208984 63.81103516 C-139.98959471 70.79363079 -139.98959471 70.79363079 -147 70 C-150.38939556 67.86320715 -151.72582557 66.8225233 -153 63 C-153.56856969 55.94973588 -153.56856969 55.94973588 -151.55932617 52.59350586 C-148.02205472 49.0089943 -144.34515957 47.9212498 -139.625 46.37109375 C-138.24453491 45.89652489 -138.24453491 45.89652489 -136.83618164 45.41236877 C-133.89572211 44.40551005 -130.94824646 43.42129344 -128 42.4375 C-126.04767488 41.77295794 -124.09584588 41.10695648 -122.14453125 40.43945312 C-114.66957102 37.88935754 -107.17896452 35.38774445 -99.6796875 32.91015625 C-95.05866791 31.37519351 -90.46910838 29.76002637 -85.8828125 28.125 C-85.1701825 27.87110001 -84.45755249 27.61720001 -83.72332764 27.35560608 C-80.78907236 26.30929762 -77.85508593 25.26230632 -74.92333984 24.20898438 C-67.51666573 21.55043201 -60.14292734 18.97793846 -52.5546875 16.875 C-47.78322355 15.55241937 -43.2547967 14.0188429 -38.68945312 12.11132812 C-33.43186379 9.9388021 -28.09024601 7.97859319 -22.7578125 5.99853516 C-21.41063343 5.4962916 -20.06493781 4.9900522 -18.72070312 4.47998047 C-16.74948244 3.73242413 -14.77386465 2.99776659 -12.796875 2.265625 C-11.63510742 1.83024414 -10.47333984 1.39486328 -9.27636719 0.94628906 C-6.00392862 0.00113467 -3.3844317 -0.18609882 0 0 Z " fill="#7C74F6" transform="translate(552,585)"/>
<path d="M0 0 C1.39025391 -0.03287109 1.39025391 -0.03287109 2.80859375 -0.06640625 C6.87292836 0.86176094 8.07975722 2.18425361 10.5625 5.5625 C11.31283897 9.60573007 11.22456663 13.60700194 11.17773438 17.70898438 C11.18328339 18.94038651 11.1888324 20.17178864 11.19454956 21.44050598 C11.20432803 24.8108398 11.19175967 28.17963645 11.16826439 31.54980659 C11.14812832 35.08019805 11.15403637 38.61055644 11.15637207 42.14099121 C11.15631853 48.06922871 11.13657958 53.99714717 11.10449219 59.92529297 C11.06760045 66.77423319 11.05881689 73.62275559 11.0657897 80.47178221 C11.07210004 87.06647591 11.06133065 93.66102668 11.04182434 100.25569153 C11.03366021 103.05941305 11.03093897 105.86306142 11.03251648 108.66679382 C11.03356049 112.58335604 11.00935926 116.49954123 10.98242188 120.41601562 C10.98535248 121.57772781 10.98828308 122.73944 10.99130249 123.93635559 C10.9799527 125.00460068 10.96860291 126.07284576 10.95690918 127.17346191 C10.95318047 128.09890053 10.94945175 129.02433914 10.94561005 129.97782135 C10.47692476 133.13983931 9.49544491 135.02862283 7.5625 137.5625 C4.3125 138.15625 4.3125 138.15625 0.5625 138.0625 C-0.675 138.0521875 -1.9125 138.041875 -3.1875 138.03125 C-6.4375 137.5625 -6.4375 137.5625 -8.116395 136.36252499 C-9.91086161 133.91753785 -9.81746141 132.31329354 -9.82518005 129.29335022 C-9.83508469 128.20116684 -9.84498932 127.10898346 -9.85519409 125.98370361 C-9.85069244 124.78517761 -9.8461908 123.58665161 -9.84155273 122.35180664 C-9.84841599 121.08982956 -9.85527924 119.82785248 -9.86235046 118.52763367 C-9.88031521 115.06476982 -9.87910731 111.60215891 -9.87340808 108.13926244 C-9.87032079 105.24903357 -9.87640357 102.3588536 -9.88244683 99.46863168 C-9.89650149 92.65035187 -9.89492317 85.83219731 -9.88354492 79.01391602 C-9.87206403 71.97864807 -9.8861364 64.94376135 -9.9129414 57.90854365 C-9.93509023 51.86937748 -9.94173761 45.83033105 -9.93586498 39.79112715 C-9.93249203 36.18372341 -9.93493248 32.57656402 -9.95211601 28.96919441 C-9.97043986 24.94674626 -9.95640669 20.92504091 -9.93920898 16.90258789 C-9.94887695 15.70608612 -9.95854492 14.50958435 -9.96850586 13.27682495 C-9.95867172 12.18182175 -9.94883759 11.08681854 -9.93870544 9.95863342 C-9.93849616 9.00755235 -9.93828688 8.05647127 -9.93807125 7.07656956 C-8.84611185 1.59231158 -5.20770067 -0.00722289 0 0 Z " fill="#6FCDF6" transform="translate(966.4375,489.4375)"/>
<path d="M0 0 C6.29813325 3.53456445 10.39033435 8.06660542 12.6875 14.9375 C13.84520081 22.8707971 12.41206682 29.43695144 7.6875 35.9375 C2.45460402 41.12741532 -2.88725912 43.66565549 -10.25 44.25 C-17.38582658 44.00627158 -22.40171785 40.67615496 -27.51171875 35.953125 C-31.98606751 30.94496023 -34.10976717 24.97622745 -33.7578125 18.265625 C-32.39634232 11.14776335 -28.7213648 5.60884314 -23.15625 1.09375 C-15.89657899 -3.45892504 -7.71178144 -3.54136187 0 0 Z " fill="#121A2A" transform="translate(825.3125,461.0625)"/>
<path d="M0 0 C6.14403022 2.79165645 11.09057809 8.06414785 13.57421875 14.3515625 C14.66589875 22.68611939 14.1498909 29.38265659 9.2890625 36.359375 C5.21955387 41.08705017 -0.09261166 43.91480235 -6.2578125 44.72265625 C-13.39002084 44.88156522 -18.00227812 44.11920014 -23.42578125 39.3515625 C-28.60639389 34.28607459 -31.26885325 28.81459486 -31.5234375 21.57421875 C-31.20055541 15.8332177 -30.42207462 10.68268045 -26.42578125 6.3515625 C-18.195868 -0.10642993 -10.54332325 -2.81834406 0 0 Z " fill="#131A2A" transform="translate(607.42578125,546.6484375)"/>
<path d="M0 0 C0.76828125 -0.04898438 1.5365625 -0.09796875 2.328125 -0.1484375 C6.00630566 0.64652413 7.39910457 2.4949878 9.75 5.375 C10.37145996 8.76541138 10.37145996 8.76541138 10.36523438 12.68798828 C10.37078339 13.40566376 10.3763324 14.12333923 10.38204956 14.86276245 C10.39381782 17.22430126 10.36960742 19.5839093 10.34375 21.9453125 C10.34203841 23.59007683 10.34210507 25.23484388 10.34387207 26.87960815 C10.34222059 30.3212098 10.32355135 33.76215866 10.29199219 37.20361328 C10.25225212 41.61679822 10.24795505 46.02913103 10.25545502 50.44246101 C10.25852243 53.83625102 10.24641348 57.22984908 10.22932434 60.62359238 C10.22229053 62.25109529 10.21917027 63.87861995 10.22001648 65.50613785 C10.21822089 67.77809347 10.1968635 70.04902246 10.16992188 72.32080078 C10.16150269 73.61365997 10.1530835 74.90651917 10.14440918 76.23855591 C9.75 79.375 9.75 79.375 8.42687988 81.28878784 C5.65428243 83.08475969 2.99609377 82.80911865 -0.25 82.8125 C-1.4875 82.83183594 -2.725 82.85117187 -4 82.87109375 C-7.25 82.375 -7.25 82.375 -8.92687988 80.78050232 C-10.71261818 77.5339357 -10.64510233 75.09089569 -10.66992188 71.39086914 C-10.67839142 70.69605942 -10.68686096 70.00124969 -10.69558716 69.28538513 C-10.7189455 66.99345489 -10.71997967 64.70219641 -10.71875 62.41015625 C-10.72585226 60.81359082 -10.73355136 59.21702795 -10.74182129 57.62046814 C-10.75526333 54.27563378 -10.75683616 50.93103544 -10.75097656 47.58618164 C-10.74508021 43.30410711 -10.77566923 39.02316631 -10.81609344 34.74131107 C-10.84196899 31.44439108 -10.84484806 28.14774415 -10.84120178 24.85073662 C-10.84289315 23.27229398 -10.85253747 21.69383876 -10.87034607 20.11549568 C-10.89253573 17.90573831 -10.88283788 15.69827629 -10.86523438 13.48852539 C-10.86728882 12.232621 -10.86934326 10.97671661 -10.87145996 9.68275452 C-10.08777879 5.51156877 -8.44894624 4.05920551 -5.25 1.375 C-3.69049449 -0.18450551 -2.16122869 0.09303302 0 0 Z " fill="#6AAFF3" transform="translate(867.25,542.625)"/>
<path d="M0 0 C1.52947266 -0.03287109 1.52947266 -0.03287109 3.08984375 -0.06640625 C7.25701431 0.81521591 8.49952364 2.15380265 11.0625 5.5625 C11.7837169 9.11915004 11.7160002 12.60826191 11.65625 16.2265625 C11.65629028 17.25558685 11.65633057 18.28461121 11.65637207 19.34481812 C11.65102032 21.51509729 11.6334525 23.6853762 11.60449219 25.85546875 C11.56255808 29.18289122 11.56343111 32.5082948 11.5703125 35.8359375 C11.55982271 37.94532661 11.54688575 40.05470526 11.53125 42.1640625 C11.53104858 43.160961 11.53084717 44.1578595 11.53063965 45.18496704 C11.50677185 46.57188248 11.50677185 46.57188248 11.48242188 47.98681641 C11.46979309 49.20662704 11.46979309 49.20662704 11.45690918 50.45108032 C10.96209816 53.09998855 10.23100453 53.99088104 8.0625 55.5625 C5.28473238 55.83357281 2.76912166 55.93620959 0 55.875 C-1.09924805 55.87983398 -1.09924805 55.87983398 -2.22070312 55.88476562 C-7.67028061 55.82971939 -7.67028061 55.82971939 -9.9375 53.5625 C-10.20492554 51.48867798 -10.20492554 51.48867798 -10.22802734 48.90087891 C-10.24078705 47.93292389 -10.25354675 46.96496887 -10.26669312 45.96768188 C-10.26891876 44.91873749 -10.27114441 43.86979309 -10.2734375 42.7890625 C-10.2834227 41.17612808 -10.2834227 41.17612808 -10.29360962 39.53060913 C-10.30374915 37.25251988 -10.30842624 34.97440085 -10.30810547 32.69628906 C-10.31247372 29.20848625 -10.34876743 25.72195331 -10.38671875 22.234375 C-10.39258754 20.02344184 -10.39655652 17.81250265 -10.3984375 15.6015625 C-10.41280853 14.55666656 -10.42717957 13.51177063 -10.44198608 12.43521118 C-10.39641935 5.2205285 -10.39641935 5.2205285 -8.08618164 1.90795898 C-5.26570293 0.14183489 -3.31644616 -0.00418215 0 0 Z " fill="#6F9FF3" transform="translate(767.9375,575.4375)"/>
<path d="M0 0 C0.825 -0.01289062 1.65 -0.02578125 2.5 -0.0390625 C6.3634099 0.98715575 7.69689772 2.34470115 10 5.625 C10.67780762 9.37243636 10.60785177 13.01562756 10.5 16.8125 C10.50386719 18.3274707 10.50386719 18.3274707 10.5078125 19.87304688 C10.43407796 25.38470344 10.43407796 25.38470344 10 27.625 C6.22905955 30.1389603 3.23320555 29.88526442 -1.125 29.8125 C-1.86621094 29.81185547 -2.60742188 29.81121094 -3.37109375 29.81054688 C-8.85960541 29.76539459 -8.85960541 29.76539459 -10 28.625 C-10.33628631 24.88413409 -10.32506728 21.12903261 -10.375 17.375 C-10.41238281 16.32441406 -10.44976563 15.27382813 -10.48828125 14.19140625 C-10.57649313 6.45816498 -10.57649313 6.45816498 -7.7890625 2.4296875 C-4.86977976 0.54073984 -3.43749175 -0.05371081 0 0 Z " fill="#7685F5" transform="translate(668,609.375)"/>
<path d="M0 0 C0.66 0.33 1.32 0.66 2 1 C1.67 1.33 1.34 1.66 1 2 C0.90003168 4.53072562 0.86558857 7.03422324 0.87301636 9.56549072 C0.87145637 10.36727713 0.86989638 11.16906354 0.86828911 11.99514651 C0.86427566 14.7028373 0.86747013 17.41047278 0.87060547 20.11816406 C0.86925154 22.05106133 0.86747165 23.98395834 0.86529541 25.91685486 C0.86071889 31.18349872 0.86251185 36.45012309 0.8656745 41.71676731 C0.86819842 47.21976844 0.86586033 52.72276785 0.86428833 58.22576904 C0.86246612 67.47326966 0.86487366 76.72076231 0.86962891 85.96826172 C0.8750652 96.66376265 0.87331368 107.3592445 0.8678025 118.05474496 C0.86326518 127.22674353 0.86262406 136.39873636 0.86524117 145.57073569 C0.86680135 151.05326637 0.86700489 156.53578808 0.86370468 162.01831818 C0.86081722 167.1761114 0.86281783 172.33388004 0.86859894 177.49167061 C0.8699221 179.38593823 0.86953992 181.28020792 0.86733627 183.17447472 C0.86460724 185.75853605 0.86802753 188.34251842 0.87301636 190.92657471 C0.87078564 191.67784519 0.86855491 192.42911568 0.86625659 193.20315194 C0.88022081 196.92784443 1.10689035 200.37827096 2 204 C1.34 204.33 0.68 204.66 0 205 C-1.56538549 201.86922902 -1.13681874 198.53412113 -1.12698364 195.09751892 C-1.12854363 194.27163806 -1.13010362 193.4457572 -1.13171089 192.59484965 C-1.13571753 189.81183179 -1.13253254 187.02886793 -1.12939453 184.24584961 C-1.13074871 182.25705432 -1.13252874 180.26825928 -1.13470459 178.27946472 C-1.13927665 172.86645928 -1.13749037 167.45347282 -1.1343255 162.04046702 C-1.13180109 156.3874562 -1.13413964 150.73444704 -1.13571167 145.08143616 C-1.13753298 135.58773505 -1.13512792 126.09404172 -1.13037109 116.6003418 C-1.12492699 105.60765712 -1.12669237 94.61499099 -1.1321975 83.62230676 C-1.13672787 74.20067115 -1.1373796 64.77904112 -1.13475883 55.35740477 C-1.13319584 49.72299207 -1.13300293 44.0885881 -1.13629532 38.45417595 C-1.13917298 33.15931259 -1.13720028 27.86447325 -1.13140106 22.5696125 C-1.13007296 20.62044947 -1.13046841 18.67128444 -1.13266373 16.72212219 C-1.13537326 14.07321949 -1.13199656 11.42439508 -1.12698364 8.77549744 C-1.12921436 7.99380296 -1.13144509 7.21210849 -1.13374341 6.4067263 C-1.11414995 1.11414995 -1.11414995 1.11414995 0 0 Z " fill="#72DEE5" transform="translate(1054,424)"/>
<path d="M0 0 C0.33 0 0.66 0 1 0 C1.01030746 0.99114304 1.02061493 1.98228607 1.03123474 3.00346375 C1.12901586 12.34671813 1.23175439 21.68990661 1.33933926 31.0330534 C1.39448971 35.83638439 1.44789703 40.63972156 1.49731445 45.44311523 C1.5450743 50.07914757 1.59742113 54.71510756 1.65294075 59.35105324 C1.67331171 61.11924244 1.69203334 62.88745145 1.70907402 64.65567589 C1.73323472 67.13339765 1.76327295 69.61098398 1.79467773 72.08862305 C1.8004332 72.81870575 1.80618866 73.54878845 1.81211853 74.30099487 C1.8651395 77.9842343 2.12950232 81.41639167 3 85 C2.01 85.495 2.01 85.495 1 86 C-0.56998834 82.86002332 -0.12944545 79.50823639 -0.11352539 76.06201172 C-0.11367142 75.24241974 -0.11381744 74.42282776 -0.1139679 73.57839966 C-0.11326974 70.8621356 -0.10548188 68.14593962 -0.09765625 65.4296875 C-0.09579173 63.54924558 -0.09436798 61.66880317 -0.09336853 59.7883606 C-0.08954607 54.83338078 -0.07971808 49.87843017 -0.06866455 44.92346191 C-0.05844461 39.86955155 -0.05386966 34.81563647 -0.04882812 29.76171875 C-0.03809559 19.84113299 -0.0210224 9.92056892 0 0 Z " fill="#64B9DF" transform="translate(1053,543)"/>
<path d="M0 0 C10.5248635 -0.72724585 20.33970034 1.09458506 30.64453125 3.02734375 C35.08659515 3.85988548 39.50939968 4.49513961 44 5 C44 5.33 44 5.66 44 6 C36.72916944 6.19685826 29.76002408 5.62639466 22.5625 4.625 C21.60279297 4.49867188 20.64308594 4.37234375 19.65429688 4.2421875 C13.06435278 3.35465294 6.53188086 2.242421 0 1 C0 0.67 0 0.34 0 0 Z " fill="#6BCEE0" transform="translate(996,645)"/>
<path d="M0 0 C-0.52956299 0.16081055 -1.05912598 0.32162109 -1.60473633 0.48730469 C-4.01200647 1.22719129 -6.4120472 1.98830025 -8.8125 2.75 C-9.64587891 3.00265625 -10.47925781 3.2553125 -11.33789062 3.515625 C-16.11602532 5.02875583 -16.11602532 5.02875583 -20.0625 8 C-21.34347583 10.73274844 -21.20280591 13.0255133 -21 16 C-21.66 15.67 -22.32 15.34 -23 15 C-23.29188852 12.08111479 -23.48717674 9.84642592 -23 7 C-17.86835966 1.72174137 -7.08765152 -2.11253674 0 0 Z " fill="#7D5FD4" transform="translate(404,695)"/>
<path d="M0 0 C0.90105469 0.01804687 1.80210937 0.03609375 2.73046875 0.0546875 C3.41753906 0.07789063 4.10460937 0.10109375 4.8125 0.125 C4.8125 1.115 4.8125 2.105 4.8125 3.125 C4.14863281 3.07859375 3.48476563 3.0321875 2.80078125 2.984375 C-3.06866257 2.69988443 -3.06866257 2.69988443 -8.3125 5.125 C-8.93125 5.785 -9.55 6.445 -10.1875 7.125 C-8.21737025 1.36615921 -6.0592548 -0.15738324 0 0 Z " fill="#6D82D8" transform="translate(668.1875,609.875)"/>
<path d="M0 0 C0.99 0.33 1.98 0.66 3 1 C0.03 4.3 -2.94 7.6 -6 11 C-6.66 10.67 -7.32 10.34 -8 10 C-5.36 6.7 -2.72 3.4 0 0 Z " fill="#172F3E" transform="translate(1066,352)"/>
<path d="M0 0 C0 0.66 0 1.32 0 2 C-1.0828125 2.185625 -1.0828125 2.185625 -2.1875 2.375 C-5.01564422 2.90815331 -5.01564422 2.90815331 -7.5625 4.125 C-10.31182989 5.11193893 -11.28472404 4.81515684 -14 4 C-4.58997722 -0.59225513 -4.58997722 -0.59225513 0 0 Z " fill="#82DDD8" transform="translate(1109,260)"/>
<path d="M0 0 C0.33 0 0.66 0 1 0 C1.36590746 1.72672034 1.71722195 3.45653655 2.0625 5.1875 C2.25972656 6.15042969 2.45695313 7.11335938 2.66015625 8.10546875 C3.00423947 11.03610862 2.74164697 13.16307068 2 16 C1.67 16 1.34 16 1 16 C0.14701624 12.32612505 -0.10789471 8.9552607 -0.0625 5.1875 C-0.05347656 4.21167969 -0.04445313 3.23585938 -0.03515625 2.23046875 C-0.02355469 1.49441406 -0.01195312 0.75835937 0 0 Z " fill="#5D93D0" transform="translate(772,475)"/>
<path d="M0 0 C1.37478516 0.01740234 1.37478516 0.01740234 2.77734375 0.03515625 C3.69644531 0.04417969 4.61554687 0.05320312 5.5625 0.0625 C6.27277344 0.07410156 6.98304688 0.08570313 7.71484375 0.09765625 C7.71484375 0.42765625 7.71484375 0.75765625 7.71484375 1.09765625 C5.85859375 1.25234375 5.85859375 1.25234375 3.96484375 1.41015625 C0.43555715 1.83567307 -1.65676591 2.57878217 -4.28515625 5.09765625 C-3.16461059 0.13523977 -3.16461059 0.13523977 0 0 Z " fill="#7CE5F0" transform="translate(963.28515625,489.90234375)"/>
<path d="M0 0 C0.66 0 1.32 0 2 0 C1.67 2.64 1.34 5.28 1 8 C-0.5625 6.75 -0.5625 6.75 -2 5 C-1.74853421 2.86254078 -1.54074221 1.54074221 0 0 Z " fill="#5D99DB" transform="translate(863,459)"/>
<path d="M0 0 C1.23556641 0.01740234 1.23556641 0.01740234 2.49609375 0.03515625 C3.32238281 0.04417969 4.14867187 0.05320312 5 0.0625 C5.63808594 0.07410156 6.27617188 0.08570313 6.93359375 0.09765625 C6.93359375 0.42765625 6.93359375 0.75765625 6.93359375 1.09765625 C5.86109375 1.20078125 4.78859375 1.30390625 3.68359375 1.41015625 C0.07538503 2.07166118 -1.43035648 2.67249046 -4.06640625 5.09765625 C-2.94676868 0.13926128 -2.94676868 0.13926128 0 0 Z " fill="#8DF1F2" transform="translate(1060.06640625,416.90234375)"/>
<path d="M0 0 C1.134375 0.020625 2.26875 0.04125 3.4375 0.0625 C3.4375 0.3925 3.4375 0.7225 3.4375 1.0625 C2.509375 1.330625 1.58125 1.59875 0.625 1.875 C-2.32490366 2.97398371 -3.61865186 3.68668561 -5.5625 6.0625 C-4.48849278 0.07874549 -4.48849278 0.07874549 0 0 Z " fill="#75B5F4" transform="translate(764.5625,576.9375)"/>
</svg>
