<?xml version="1.0" encoding="UTF-8"?>
<svg version="1.1" xmlns="http://www.w3.org/2000/svg" width="1536" height="1024">
<path d="M0 0 C506.88 0 1013.76 0 1536 0 C1536 337.92 1536 675.84 1536 1024 C1029.12 1024 522.24 1024 0 1024 C0 686.08 0 348.16 0 0 Z " fill="#121825" transform="translate(0,0)"/>
<path d="M0 0 C5.07578778 3.52197519 7.99818301 7.10764604 10 13 C10.72703612 18.71242666 9.64599094 23.91473617 7 29 C4.87830104 31.69632576 2.63669619 34.17316739 0.25390625 36.640625 C-2.0270473 38.95641403 -2.0270473 38.95641403 -3.97265625 41.484375 C-6.14860102 44.18439124 -8.54041193 46.56549412 -11 49 C-12.34749096 50.34816317 -13.69410768 51.69720039 -15.04011536 53.04684448 C-16.19423668 54.20313354 -16.19423668 54.20313354 -17.37167358 55.38278198 C-18.61625839 56.62972336 -18.61625839 56.62972336 -19.88598633 57.90185547 C-28.91581822 66.94807283 -37.94821346 75.99172597 -46.98209095 85.03390312 C-52.44425702 90.50122409 -57.90547736 95.96948358 -63.36450195 101.43994141 C-68.14098101 106.22641868 -72.91924292 111.01110786 -77.69961184 115.79370034 C-80.22402334 118.31940872 -82.74756505 120.84597188 -85.26896095 123.37469101 C-88.08516236 126.19900745 -90.90533698 129.0193249 -93.72583008 131.83935547 C-94.54948059 132.66660126 -95.3731311 133.49384705 -96.22174072 134.34616089 C-100.45386951 138.57081063 -104.75744467 142.63827045 -109.30672741 146.52072334 C-112.58692334 149.38636783 -115.51529725 152.60631382 -118.5078125 155.765625 C-123.59896259 160.33010439 -128.28005217 161.74283966 -134.9909668 161.43798828 C-144.36678056 160.07326537 -151.41664146 152.12584112 -157.6875 145.625 C-158.48994141 144.81289063 -159.29238281 144.00078125 -160.11914062 143.1640625 C-164.38528894 138.81781507 -168.47914778 134.36631043 -172.45629883 129.75537109 C-174.53353815 127.39330392 -176.74694687 125.19376226 -179 123 C-182.56719548 119.52667809 -185.85512867 115.89954979 -189.11279297 112.14111328 C-192.99472004 107.73690883 -197.08088912 103.52034739 -201.12695312 99.26757812 C-204.76658951 95.42515701 -208.31418354 91.5441352 -211.70410156 87.47875977 C-213.16324895 85.76311755 -213.16324895 85.76311755 -215.6875 83.5 C-221.25701712 77.47890041 -221.3289928 72.00398025 -221.30078125 64.0859375 C-220.71400851 58.06580155 -218.4909759 54.9687694 -214 51 C-209.90771145 48.00616785 -206.97186318 47.61750351 -201.9375 47.6875 C-200.12572266 47.69330078 -200.12572266 47.69330078 -198.27734375 47.69921875 C-195.25098926 47.97696523 -193.54023145 48.40997982 -191 50 C-191 50.66 -191 51.32 -191 52 C-190.17242188 52.08894531 -190.17242188 52.08894531 -189.328125 52.1796875 C-185.94879387 53.37039142 -184.21004928 55.54546261 -181.75 58.125 C-177.97799059 62.01662651 -174.1433724 65.73489666 -170.02734375 69.26171875 C-163.75610707 74.63879066 -157.72702655 80.210969 -151.93359375 86.09765625 C-149.37800138 88.61194612 -146.67894808 90.93175929 -143.94921875 93.25390625 C-141.32613116 95.60364604 -138.977651 98.18050955 -136.640625 100.8125 C-135.07261427 102.23692021 -135.07261427 102.23692021 -133.08203125 101.72680664 C-129.6537848 100.53005597 -127.32447555 97.90736763 -124.75 95.4375 C-124.1722583 94.89391846 -123.5945166 94.35033691 -122.99926758 93.7902832 C-119.19886934 90.19827161 -115.49096155 86.52120828 -111.82421875 82.79296875 C-109.31998305 80.33163217 -106.66207523 78.0689709 -104 75.78125 C-101.21114467 73.29742572 -98.62313017 70.63288563 -96.00390625 67.97265625 C-93.41753849 65.42662171 -90.6846472 63.07978443 -87.93359375 60.71484375 C-86.04505403 59.03995701 -84.26844352 57.30052413 -82.5 55.5 C-80.10946833 53.06610268 -77.64953738 50.78644441 -75.0625 48.5625 C-72.25423653 46.14382221 -69.60029407 43.64100317 -67 41 C-64.48044611 38.44130741 -61.91881218 36.01829389 -59.1875 33.6875 C-55.79804417 30.77749568 -52.635482 27.67840441 -49.5 24.5 C-45.81173812 20.76138642 -42.03569307 17.21388432 -38.02734375 13.8203125 C-35.55510711 11.60053933 -33.29789104 9.21182002 -31 6.8125 C-22.37287303 -1.78844449 -11.82942694 -5.71353274 0 0 Z " fill="#97BFFA" transform="translate(886,361)"/>
<path d="M0 0 C4.43961508 2.03436907 9.01384109 3.58086576 13.63891602 5.13745117 C17.8300299 6.56663959 21.9021866 8.16559426 25.9765625 9.90234375 C31.88805438 12.39266739 37.87104044 14.42495257 43.9921875 16.33203125 C45.06823242 16.67081299 46.14427734 17.00959473 47.25292969 17.35864258 C49.475161 18.05630095 51.69830742 18.75105123 53.92236328 19.44287109 C57.00954358 20.40405734 60.09278909 21.37704467 63.17578125 22.3515625 C75.72998898 26.28513665 88.33460791 29.61992658 101.1796875 32.45703125 C101.96762695 32.63331055 102.75556641 32.80958984 103.56738281 32.99121094 C114.9115339 35.51581742 126.31606928 37.58010554 137.7734375 39.51953125 C140.93041758 40.05735473 144.0749499 40.62048464 147.2109375 41.26953125 C157.36905017 43.35324667 167.53863836 44.42412439 177.86206055 45.36743164 C179.6241687 45.53746704 179.6241687 45.53746704 181.421875 45.7109375 C183.01298096 45.85511108 183.01298096 45.85511108 184.63623047 46.00219727 C187.1796875 46.45703125 187.1796875 46.45703125 189.1796875 48.45703125 C189.66210619 51.37238862 190.02924061 54.2083301 190.3046875 57.14453125 C190.38452881 57.9943457 190.46437012 58.84416016 190.54663086 59.71972656 C190.7746554 62.29773097 190.97958219 64.8767259 191.1796875 67.45703125 C191.24526855 68.19969238 191.31084961 68.94235352 191.37841797 69.70751953 C192.28376201 80.7229661 192.28376201 80.7229661 189.82421875 84.5859375 C188.0546875 86.26953125 188.0546875 86.26953125 186.12890625 87.79296875 C180.3179204 92.75385046 177.53495733 100.13857415 176.1796875 107.45703125 C175.1896875 107.45703125 174.1996875 107.45703125 173.1796875 107.45703125 C173.15463135 106.72291016 173.1295752 105.98878906 173.10375977 105.23242188 C172.63411128 91.62646026 172.12887449 78.03867898 171.1796875 64.45703125 C170.41019775 64.48313477 169.64070801 64.50923828 168.84790039 64.53613281 C160.20329459 64.69937303 152.11359545 63.73022148 143.6171875 62.20703125 C142.28916526 61.97597111 140.96103862 61.74551029 139.6328125 61.515625 C118.19196328 57.77551988 96.59919073 53.73203365 75.73291016 47.47314453 C72.1374348 46.44494827 68.52886037 45.56691766 64.890625 44.703125 C56.60486008 42.67545003 48.54630605 40.09402925 40.47070312 37.35791016 C38.18325396 36.58323907 35.89274062 35.81825049 33.6015625 35.0546875 C21.90788622 31.13861217 10.29544743 27.00400205 -1.109375 22.3046875 C-1.84285156 22.00369141 -2.57632813 21.70269531 -3.33203125 21.39257812 C-4.78393405 20.79276246 -6.2316786 20.18281232 -7.67578125 19.56445312 C-8.39636719 19.27248047 -9.11695313 18.98050781 -9.859375 18.6796875 C-10.79064209 18.28922241 -10.79064209 18.28922241 -11.74072266 17.89086914 C-16.99172683 16.79542016 -21.95418363 19.13199749 -26.765625 21.0390625 C-27.41675262 21.2945134 -28.06788025 21.54996429 -28.73873901 21.81315613 C-30.80981368 22.62645111 -32.87773658 23.44738683 -34.9453125 24.26953125 C-44.16733737 27.92174238 -53.37732606 31.40522309 -62.8203125 34.45703125 C-63.99980469 34.86566406 -65.17929687 35.27429688 -66.39453125 35.6953125 C-93.82604817 45.16039048 -122.35757427 51.93342978 -150.8203125 57.45703125 C-151.78855957 57.64539551 -152.75680664 57.83375977 -153.75439453 58.02783203 C-166.24637741 60.42071563 -178.64638672 62.0845076 -191.328125 63.0625 C-193.77603905 63.25372784 -196.03112447 63.50139616 -198.4375 64.0078125 C-201.91837739 64.66404348 -205.28096359 64.51702021 -208.8203125 64.45703125 C-211.64115654 118.99084855 -208.01592441 172.91676952 -188.71557617 224.42651367 C-188.34021729 225.43045166 -187.9648584 226.43438965 -187.578125 227.46875 C-187.2392627 228.36037842 -186.90040039 229.25200684 -186.55126953 230.1706543 C-185.8203125 232.45703125 -185.8203125 232.45703125 -185.8203125 235.45703125 C-186.4803125 235.45703125 -187.1403125 235.45703125 -187.8203125 235.45703125 C-187.8203125 234.79703125 -187.8203125 234.13703125 -187.8203125 233.45703125 C-188.66722656 233.03744141 -188.66722656 233.03744141 -189.53125 232.609375 C-191.04494606 231.84736077 -192.55048014 231.0688895 -194.046875 230.2734375 C-194.83835937 229.85964844 -195.62984375 229.44585937 -196.4453125 229.01953125 C-197.75435547 228.33310547 -197.75435547 228.33310547 -199.08984375 227.6328125 C-201.8590099 226.44036756 -204.16520108 226.11069738 -207.1328125 225.70703125 C-209.6328125 225.0078125 -209.6328125 225.0078125 -211.8203125 223.45703125 C-214.03892502 218.72584005 -215.15590882 213.91223126 -216.27148438 208.82421875 C-216.79335711 206.57329434 -217.40902498 204.38443841 -218.0859375 202.17578125 C-221.54206523 190.87580274 -223.61421499 179.46980503 -225.31884766 167.78759766 C-225.82079315 164.45383893 -226.38755791 161.13531182 -226.95703125 157.8125 C-229.83206086 139.74088528 -230.19709224 121.85864238 -230.1953125 103.58203125 C-230.19803162 101.78537521 -230.19803162 101.78537521 -230.20080566 99.9524231 C-230.19857228 86.90579474 -229.87580461 73.90481161 -228.984375 60.88671875 C-228.91576263 59.78031036 -228.84715027 58.67390198 -228.77645874 57.53396606 C-228.69763458 56.51583832 -228.61881042 55.49771057 -228.53759766 54.44873047 C-228.47190582 53.55419159 -228.40621399 52.65965271 -228.33853149 51.73800659 C-227.72845148 49.05269886 -227.00880487 48.09401459 -224.8203125 46.45703125 C-221.85058594 45.82861328 -221.85058594 45.82861328 -218.1796875 45.46484375 C-217.51416367 45.3941568 -216.84863983 45.32346985 -216.16294861 45.25064087 C-214.72232355 45.09804315 -213.28111716 44.95085787 -211.83944702 44.80847168 C-207.95559043 44.42089565 -204.07768681 43.9807426 -200.19921875 43.54296875 C-199.40687332 43.45414429 -198.61452789 43.36531982 -197.798172 43.27380371 C-173.13357262 40.47092579 -148.9397997 35.36408668 -124.75646973 29.89257812 C-122.06930143 29.28808809 -119.37824333 28.7016228 -116.6875 28.11328125 C-105.27800631 25.56776205 -94.22971469 22.15997075 -83.12890625 18.5078125 C-77.94030755 16.80396176 -72.72589344 15.21086408 -67.4909668 13.65600586 C-59.83348979 11.38050876 -52.31152887 9.09202932 -44.99609375 5.8515625 C-40.47829907 3.86773384 -35.90020871 2.04199988 -31.3203125 0.20703125 C-30.44608643 -0.14673584 -29.57186035 -0.50050293 -28.67114258 -0.86499023 C-27.43013794 -1.36301147 -27.43013794 -1.36301147 -26.1640625 -1.87109375 C-25.42349609 -2.16918945 -24.68292969 -2.46728516 -23.91992188 -2.77441406 C-15.25066377 -5.94776575 -8.0654851 -3.96419735 0 0 Z " fill="#A4B8F8" transform="translate(785.8203125,254.54296875)"/>
<path d="M0 0 C1 1 1 1 1.0546875 3.9375 C0.40119746 22.59274634 -4.04878328 40.90028234 -9.34082031 58.73388672 C-10.04656929 61.16009488 -10.70984979 63.59540422 -11.3671875 66.03515625 C-17.28487904 87.81388517 -25.93430387 107.82877945 -36 128 C-36.6615112 129.35804717 -37.32297735 130.71611628 -37.984375 132.07421875 C-47.51479119 150.90311623 -60.16488451 168.13305055 -74 184 C-74.79881592 184.93694702 -74.79881592 184.93694702 -75.61376953 185.89282227 C-86.5179897 198.5869326 -98.58687928 210.95442874 -112 221 C-113.24153457 221.95749219 -114.48236415 222.91589891 -115.72265625 223.875 C-129.98783547 234.82723248 -145.04478329 243.91462522 -160.71386719 252.70947266 C-162.56082649 253.75208552 -164.39568336 254.81611993 -166.2265625 255.88671875 C-172.58440722 259.54584086 -179.17040519 262.07370078 -186.0546875 264.5390625 C-190.57246438 266.17054276 -194.9156916 268.1559233 -199.25390625 270.21484375 C-205.26970719 271.93486649 -210.62835971 269.56183969 -216.1875 267.25 C-216.84403564 266.97833008 -217.50057129 266.70666016 -218.17700195 266.42675781 C-219.50599619 265.87611685 -220.83374352 265.32245569 -222.16015625 264.765625 C-223.74489435 264.10615861 -225.34030055 263.47243489 -226.9375 262.84375 C-267.63131979 246.65870804 -309.75670249 218.40398388 -337.25 183.875 C-340.0632483 180.36794385 -342.92622126 176.93254354 -345.89379883 173.55517578 C-351.04176977 167.65192198 -355.62895449 161.45685895 -360.0625 155 C-360.62291992 154.18660156 -361.18333984 153.37320313 -361.76074219 152.53515625 C-368.25529365 142.92721674 -368.25529365 142.92721674 -367.6015625 137.9921875 C-365.02940168 129.78185018 -365.02940168 129.78185018 -362.05078125 127.51953125 C-358.63323744 126.17399182 -356.4999661 125.83334463 -353 127 C-351.53295898 128.83496094 -351.53295898 128.83496094 -349.99609375 131.234375 C-349.42560303 132.11206543 -348.8551123 132.98975586 -348.26733398 133.89404297 C-347.66348877 134.83650879 -347.05964355 135.77897461 -346.4375 136.75 C-340.94703614 145.14038155 -335.35956138 153.23599427 -329 161 C-328.55994629 161.54156738 -328.11989258 162.08313477 -327.66650391 162.64111328 C-312.8997107 180.68024025 -296.21185469 197.72416722 -277 211 C-275.8864917 211.77609619 -275.8864917 211.77609619 -274.75048828 212.56787109 C-256.90922707 224.93112189 -237.98676767 235.4988409 -218 244 C-217.05253906 244.40476562 -216.10507812 244.80953125 -215.12890625 245.2265625 C-209.62332412 247.42281914 -205.87899528 248.65024429 -200 247 C-199.1646875 246.77183594 -198.329375 246.54367187 -197.46875 246.30859375 C-188.45309416 243.60632056 -180.2766844 239.40078277 -172 235 C-171.26410645 234.61005859 -170.52821289 234.22011719 -169.77001953 233.81835938 C-139.39718552 217.614279 -109.82798899 195.82671333 -88.23828125 168.79296875 C-86.80390419 167.00312652 -85.34482266 165.23264294 -83.85546875 163.48828125 C-46.32795417 119.33428662 -25.51566725 59.92635598 -19 3 C-16.77739833 2.10374114 -14.54974666 1.23324447 -12.3125 0.375 C-11.68666016 0.11976563 -11.06082031 -0.13546875 -10.41601562 -0.3984375 C-6.21523346 -1.98197842 -3.93067721 -2.26068634 0 0 Z " fill="#9EDAF8" transform="translate(975,406)"/>
<path d="M0 0 C3.375 2 3.375 2 6 5 C6.38889198 10.4659735 5.74165886 15.04301263 4.3828125 20.375 C4.21039032 21.05335907 4.03796814 21.73171814 3.86032104 22.43063354 C3.29558049 24.6242784 2.71270396 26.8124021 2.125 29 C1.82505127 30.12949066 1.82505127 30.12949066 1.51904297 31.28179932 C-1.90967298 44.09503027 -6.24892436 56.23772255 -11.77685547 68.31103516 C-12.99454335 70.98800408 -14.16116675 73.68228484 -15.31640625 76.38671875 C-19.79741084 86.78423902 -24.85266833 96.49652963 -31 106 C-31.39300293 106.61681641 -31.78600586 107.23363281 -32.19091797 107.86914062 C-47.39430881 131.67001529 -66.98134512 155.43053722 -90 172 C-90.6290625 172.45713379 -91.258125 172.91426758 -91.90625 173.38525391 C-94.0979004 174.97409973 -96.29689744 176.55207497 -98.5 178.125 C-99.18835938 178.61653564 -99.87671875 179.10807129 -100.5859375 179.61450195 C-109.16804313 185.64930099 -118.21052213 190.7675773 -127.5 195.625 C-128.37269531 196.0890625 -129.24539063 196.553125 -130.14453125 197.03125 C-148.04579692 206.41946933 -148.04579692 206.41946933 -156 204 C-159.11742062 202.88528596 -162.03609424 201.47135236 -165 200 C-166.21212346 199.41252076 -167.42437314 198.82530192 -168.63671875 198.23828125 C-182.92225096 191.2637039 -196.25450312 183.50804638 -209 174 C-209.78761719 173.41605469 -210.57523438 172.83210937 -211.38671875 172.23046875 C-227.20867466 160.21046158 -241.81962759 146.72882787 -254 131 C-254.51095215 130.34950684 -255.0219043 129.69901367 -255.54833984 129.02880859 C-273 106.80517054 -273 106.80517054 -273 100 C-267.99158431 97.08601269 -263.95151326 94.98936567 -258 96 C-254.16276504 99.3792424 -251.29514035 103.23602837 -248.4375 107.4375 C-243.11086637 115.06778886 -237.18358251 122.05635635 -231 129 C-230.52385254 129.53931152 -230.04770508 130.07862305 -229.55712891 130.63427734 C-211.27018976 151.29794968 -177.79579523 181.96077909 -149 185 C-146.51886011 184.26228276 -146.51886011 184.26228276 -144.0859375 182.9375 C-143.16546631 182.4739209 -142.24499512 182.0103418 -141.29663086 181.53271484 C-140.33249268 181.02691895 -139.36835449 180.52112305 -138.375 180 C-137.38314697 179.49033691 -136.39129395 178.98067383 -135.36938477 178.45556641 C-128.66826742 174.97405115 -122.20798367 171.3075805 -116 167 C-114.98292969 166.32710937 -113.96585938 165.65421875 -112.91796875 164.9609375 C-104.78568381 159.50082685 -97.37261686 153.43875206 -90 147 C-89.26007813 146.37222656 -88.52015625 145.74445313 -87.7578125 145.09765625 C-78.54725736 137.23724272 -70.41086173 128.56719942 -63 119 C-62.58137695 118.46310547 -62.16275391 117.92621094 -61.73144531 117.37304688 C-53.54705471 106.80432306 -46.65637132 95.57830187 -40 84 C-39.61714844 83.34563965 -39.23429688 82.6912793 -38.83984375 82.01708984 C-32.61975602 71.33563845 -28.29558575 59.99873203 -23.95068359 48.45043945 C-23.16918166 46.43607508 -22.30797344 44.45281407 -21.42578125 42.48046875 C-19.53134872 37.85597729 -18.2762673 33.13839861 -17 28.3125 C-16.73582275 27.33804932 -16.47164551 26.36359863 -16.19946289 25.35961914 C-15.09989729 21.27799627 -14.01509079 17.20241779 -13.12109375 13.0703125 C-11.49653362 5.62518551 -9.23339462 -1.88436625 0 0 Z " fill="#5872C3" transform="translate(921,423)"/>
<path d="M0 0 C1.46704102 1.83496094 1.46704102 1.83496094 3.00390625 4.234375 C3.57439697 5.11206543 4.1448877 5.98975586 4.73266602 6.89404297 C5.33651123 7.83650879 5.94035645 8.77897461 6.5625 9.75 C12.05296386 18.14038155 17.64043862 26.23599427 24 34 C24.44005371 34.54156738 24.88010742 35.08313477 25.33349609 35.64111328 C40.1002893 53.68024025 56.78814531 70.72416722 76 84 C77.1135083 84.77609619 77.1135083 84.77609619 78.24951172 85.56787109 C113.07423912 110.72548179 113.07423912 110.72548179 153 121 C152.67 121.66 152.34 122.32 152 123 C151.01 123.33 150.02 123.66 149 124 C149.08378906 124.71285156 149.16757812 125.42570313 149.25390625 126.16015625 C149.84189161 131.69019573 150.09194306 136.54028471 149 142 C150.32 142.33 151.64 142.66 153 143 C147.24218803 144.62681037 143.64296611 143.10906768 138.375 140.875 C137.57304199 140.54733643 136.77108398 140.21967285 135.94482422 139.88208008 C134.34414518 139.22620385 132.745916 138.56431174 131.15039062 137.89599609 C129.395824 137.16492667 127.62917068 136.46292135 125.859375 135.76953125 C85.25615538 119.7022572 43.14914276 91.28573441 15.75 56.875 C12.9367517 53.36794385 10.07377874 49.93254354 7.10620117 46.55517578 C1.95823023 40.65192198 -2.62895449 34.45685895 -7.0625 28 C-7.62291992 27.18660156 -8.18333984 26.37320313 -8.76074219 25.53515625 C-15.25529365 15.92721674 -15.25529365 15.92721674 -14.6015625 10.9921875 C-12.02940168 2.78185018 -12.02940168 2.78185018 -9.05078125 0.51953125 C-5.63323744 -0.82600818 -3.4999661 -1.16665537 0 0 Z " fill="#969FF9" transform="translate(622,533)"/>
<path d="M0 0 C7.56911239 5.32345706 11.49934182 11.83058363 13.59375 20.82421875 C15.0115135 30.16005764 12.2290897 38.13055996 7.20703125 45.99609375 C3.72869712 50.45598518 -0.27688303 52.63333529 -5.40625 54.82421875 C-5.99921875 55.18 -6.5921875 55.53578125 -7.203125 55.90234375 C-13.04433088 58.34653628 -21.33304558 57.70638023 -27.33203125 55.984375 C-36.18011598 51.89746806 -42.99957895 44.9856618 -46.40625 35.82421875 C-48.74552251 28.40856576 -48.64336034 19.42949361 -45.34375 12.38671875 C-41.0574485 5.03359871 -34.87982914 -1.07508338 -26.63671875 -3.75 C-17.13070189 -5.56463369 -8.43871007 -4.86586911 0 0 Z " fill="#AFA3FA" transform="translate(586.40625,496.17578125)"/>
<path d="M0 0 C5.99900767 4.46267644 10.52141745 10.70242924 12.5625 17.90625 C13.67136833 28.2048646 11.92961868 37.32945969 6.5625 46.21875 C0.03465478 52.92626068 -8.324475 56.82946661 -17.62890625 57.03515625 C-26.55175246 56.62562367 -32.70646427 53.92755067 -39.4375 47.90625 C-41.84540788 45.08353446 -43.707632 42.18329367 -45.4375 38.90625 C-45.94603516 37.95105469 -45.94603516 37.95105469 -46.46484375 36.9765625 C-49.51324595 30.20545715 -49.69931159 22.76815819 -47.40625 15.75 C-43.66290407 7.51463896 -38.15169449 0.87102418 -29.875 -3.09375 C-19.86287406 -6.11137678 -9.0089549 -5.18994141 0 0 Z " fill="#ACF1FA" transform="translate(1021.4375,346.09375)"/>
<path d="M0 0 C4.6 2.2 4.6 2.2 6 5 C6.24733233 7.19741696 6.44241951 9.40078717 6.61328125 11.60546875 C6.725327 12.98458537 6.83798251 14.36365255 6.95117188 15.74267578 C7.00974365 16.46811584 7.06831543 17.19355591 7.12866211 17.940979 C8.25197722 31.66802392 9.86873812 45.14645026 12.54882812 58.66943359 C12.94922911 60.73773866 13.29868103 62.81576211 13.640625 64.89453125 C15.98503105 78.52514845 20.88195996 91.60790464 25.66796875 104.546875 C25.90725098 105.19648193 26.1465332 105.84608887 26.39306641 106.51538086 C27.01216728 108.17737996 27.64793846 109.83314367 28.28515625 111.48828125 C29 114 29 114 28 117 C25.890625 117.94921875 25.890625 117.94921875 23.25 118.6875 C22.38890625 118.93886719 21.5278125 119.19023437 20.640625 119.44921875 C18.01182147 119.99753428 15.67647662 120.10108994 13 120 C4.9661971 105.93158939 0.49385545 89.71899003 -3 74 C-3.20367188 73.09781738 -3.40734375 72.19563477 -3.6171875 71.26611328 C-7.85874284 52.42549873 -10.99770318 34.35101011 -11.3125 15 C-11.34230957 13.98381592 -11.37211914 12.96763184 -11.40283203 11.9206543 C-11.45974418 4.67767487 -11.45974418 4.67767487 -9.1953125 1.33984375 C-5.96669375 -0.63064776 -3.71143342 -0.45579007 0 0 Z " fill="#7360C7" transform="translate(613,364)"/>
<path d="M0 0 C0 3.25 0 3.25 -1 7 C-3.42838112 8.93786025 -6.10291128 9.9300267 -9 11 C-10.20140625 11.46019531 -11.4028125 11.92039062 -12.640625 12.39453125 C-17.45092788 14.19203311 -22.3137359 15.82151159 -27.1875 17.4375 C-28.10571533 17.74244385 -29.02393066 18.0473877 -29.9699707 18.36157227 C-50.03680814 25 -50.03680814 25 -53 25 C-54 20 -55 15 -56 10 C-55.12601563 9.76925781 -54.25203125 9.53851563 -53.3515625 9.30078125 C-46.94393399 7.60148354 -40.54536662 5.88005683 -34.16479492 4.08154297 C-5.83150167 -3.88766778 -5.83150167 -3.88766778 0 0 Z " fill="#9693F5" transform="translate(664,494)"/>
<path d="M0 0 C1.34120884 2.65302037 2.56495636 5.28390077 3.625 8.0625 C4.01558594 9.06990234 4.01558594 9.06990234 4.4140625 10.09765625 C5 12 5 12 5 15 C-3.6163152 17.94735673 -12.24828917 20.7328077 -21.01147461 23.21166992 C-24.50599882 24.21258427 -27.90444374 25.31558603 -31.296875 26.625 C-34.90975208 27.96649023 -37.20169923 28.52999546 -41 28 C-42.9375 26.875 -42.9375 26.875 -44 25 C-44.0625 22.0625 -44.0625 22.0625 -43 19 C-38.47698782 15.48414337 -33.6208406 13.42189155 -28.3203125 11.328125 C-27.50754852 11.00084412 -26.69478455 10.67356323 -25.85739136 10.33636475 C-23.28243873 9.30118021 -20.70383642 8.27546558 -18.125 7.25 C-16.36954129 6.54619709 -14.61433019 5.84177625 -12.859375 5.13671875 C-8.57574782 3.41731789 -4.28882379 1.70639491 0 0 Z " fill="#92C9F2" transform="translate(961,377)"/>
<path d="M0 0 C0 0.33 0 0.66 0 1 C-0.88042969 1.03738281 -1.76085937 1.07476562 -2.66796875 1.11328125 C-3.82941406 1.17902344 -4.99085938 1.24476563 -6.1875 1.3125 C-7.33605469 1.37050781 -8.48460937 1.42851562 -9.66796875 1.48828125 C-14.18672733 2.18225238 -16.78530002 3.62193473 -19.80078125 7.04296875 C-20.29964844 7.75066406 -20.79851563 8.45835937 -21.3125 9.1875 C-21.82425781 9.90292969 -22.33601562 10.61835938 -22.86328125 11.35546875 C-23.23839844 11.89816406 -23.61351562 12.44085938 -24 13 C-24.59375 11.15625 -24.59375 11.15625 -25 9 C-18.99788593 -1.00352344 -10.52500434 -0.52552033 0 0 Z " fill="#7079C9" transform="translate(691,409)"/>
<path d="M0 0 C1.62276158 2.43414237 2.61744792 4.31319446 3.625 7 C3.88539063 7.680625 4.14578125 8.36125 4.4140625 9.0625 C5 11 5 11 5 14 C4.34 14 3.68 14 3 14 C3 13.34 3 12.68 3 12 C2.360625 11.71125 1.72125 11.4225 1.0625 11.125 C-1 10 -1 10 -2 8 C-1.34 7.67 -0.68 7.34 0 7 C0 4.69 0 2.38 0 0 Z " fill="#7C74C6" transform="translate(595,476)"/>
<path d="M0 0 C0 3 0 3 -1.57421875 4.97265625 C-2.62029297 6.00712891 -2.62029297 6.00712891 -3.6875 7.0625 C-4.37199219 7.75472656 -5.05648437 8.44695312 -5.76171875 9.16015625 C-8.09475633 11.07788871 -10.15419589 12.03810824 -13 13 C-9.0580583 8.11950075 -4.88049925 3.9419417 0 0 Z " fill="#8CB1DE" transform="translate(799,421)"/>
<path d="M0 0 C0.33 0.66 0.66 1.32 1 2 C0.2578125 3.734375 0.2578125 3.734375 -0.875 5.75 C-2.68408581 9.16854835 -3.61120117 12.11201168 -4 16 C-4.99 16 -5.98 16 -7 16 C-7.35222662 11.77328051 -6.6560873 10.22524887 -4 7 C-2.60894493 4.69653247 -1.31097569 2.35071502 0 0 Z " fill="#A0E3EB" transform="translate(966,346)"/>
<path d="M0 0 C0 3 0 3 -1.390625 4.71875 C-2.00421875 5.3065625 -2.6178125 5.894375 -3.25 6.5 C-4.20326172 7.41458984 -4.20326172 7.41458984 -5.17578125 8.34765625 C-7.0352165 10.03189846 -8.92421132 11.5884637 -11 13 C-11.66 12.67 -12.32 12.34 -13 12 C-8.71 8.04 -4.42 4.08 0 0 Z " fill="#8EB6DD" transform="translate(815,406)"/>
<path d="M0 0 C0 0.66 0 1.32 0 2 C-4.04141194 2.63394697 -7.9065307 3.12404452 -12 3 C-7.80491562 0.75263337 -4.79167039 0 0 0 Z " fill="#7B82C6" transform="translate(671,283)"/>
</svg>
