<?xml version="1.0" encoding="UTF-8"?>
<svg version="1.1" xmlns="http://www.w3.org/2000/svg" width="1536" height="1024">
<path d="M0 0 C506.88 0 1013.76 0 1536 0 C1536 337.92 1536 675.84 1536 1024 C1029.12 1024 522.24 1024 0 1024 C0 686.08 0 348.16 0 0 Z " fill="#111826" transform="translate(0,0)"/>
<path d="M0 0 C4.25340459 1.79588194 6.08772159 3.83798228 8 8 C8.44120184 11.45349322 8.45892637 14.89674349 8.5 18.375 C8.92045192 32.76156193 10.01969935 47.77871625 20 59 C48.5788702 80.90476279 85.78461933 95.5407041 119.15429688 108.64111328 C119.84082336 108.91113663 120.52734985 109.18115997 121.23468018 109.45936584 C122.5598261 109.97778563 123.88686714 110.49139455 125.21600342 110.99949646 C127.97798219 112.07750156 129.87822578 112.87822578 132 115 C131.625 117.625 131.625 117.625 131 120 C126.08594996 121.78469497 121.20506961 122.83894018 116.0859375 123.8046875 C114.3371967 124.14431051 112.58850019 124.48416165 110.83984375 124.82421875 C108.11565423 125.34932252 105.3910414 125.87195014 102.66552734 126.39013672 C83.82292607 129.62697203 83.82292607 129.62697203 66.75 137.75 C65.83734375 138.36359375 64.9246875 138.9771875 63.984375 139.609375 C63.32953125 140.06828125 62.6746875 140.5271875 62 141 C63.177802 151.87808411 75.7735041 162.25891307 83.29418945 169.68530273 C84.8124034 171.18740443 86.31384187 172.70494429 87.81445312 174.22460938 C131.73350288 218.24287252 195.85739202 244.32908694 257.74951172 244.46801758 C259.91635047 244.46007646 262.08318198 244.44986625 264.25 244.4375 C265.36763733 244.43479095 266.48527466 244.43208191 267.63677979 244.42929077 C284.10849836 244.36878386 299.88474484 243.65875978 316 240 C317.83309806 239.62125534 319.66643271 239.24365398 321.5 238.8671875 C355.37262698 231.61813426 387.86161665 216.00534072 416 196 C416.68932617 195.51418457 417.37865234 195.02836914 418.08886719 194.52783203 C427.87195997 187.58596463 436.65938949 179.91817989 445.28710938 171.59716797 C447.05059323 169.95282484 448.8719034 168.40443184 450.72265625 166.859375 C453.33374946 164.65454883 455.36356108 162.40270136 457.375 159.625 C459.2611805 157.4265659 460.38624157 156.19422735 463.16015625 155.31640625 C469.14888055 154.97742186 473.40068736 157.36025618 478 161 C480 163 480 163 480.89453125 166.8125 C480.73284058 173.38529129 475.71592967 177.31192481 471.29492188 181.59375 C470.09260597 182.72933403 468.89013122 183.8647499 467.6875 185 C466.52603971 186.13341666 465.36651507 187.26882043 464.20898438 188.40625 C457.43977068 195.00538956 450.42695424 201.14616688 443 207 C442.40630615 207.47920898 441.8126123 207.95841797 441.20092773 208.45214844 C414.59828591 229.91870005 383.49299115 245.71624904 351 256 C349.85241211 256.36665771 349.85241211 256.36665771 348.68164062 256.74072266 C343.81804223 258.27896173 338.92659558 259.67852615 334 261 C332.83065918 261.31880127 332.83065918 261.31880127 331.63769531 261.64404297 C281.03701367 275.23810687 220.00371785 273.25394304 171 254 C169.72091078 253.53020751 168.44094485 253.06279579 167.16015625 252.59765625 C147.09877987 245.15331217 127.86726617 235.78667276 110 224 C109.29520508 223.53706543 108.59041016 223.07413086 107.86425781 222.59716797 C99.17444928 216.85093779 90.92769297 210.7711032 83 204 C81.9148658 203.09929176 80.82888457 202.19960329 79.7421875 201.30078125 C66.95254632 190.6388302 55.29090482 179.09946426 45 166 C43.02180723 163.64677485 41.01345902 161.32322195 39 159 C35.08286674 160.65180318 32.10875776 163.30392407 28.9375 166.0625 C27.77680287 167.06078156 26.61533194 168.05816408 25.453125 169.0546875 C24.87369141 169.55194336 24.29425781 170.04919922 23.69726562 170.56152344 C21.23197118 172.65092431 18.70877699 174.66625281 16.1875 176.6875 C12.08743011 180.01058872 8.35812257 183.51777393 4.75390625 187.37109375 C1.16968021 190.69987384 -2.11158911 191.49549444 -7.03125 191.39453125 C-10.38693026 190.72206358 -11.95936396 188.59717314 -14 186 C-15.47969789 183.04060421 -15.13968951 180.3843935 -15.15390015 177.08026123 C-15.1582824 176.35999701 -15.16266465 175.63973279 -15.1671797 174.89764237 C-15.18058877 172.47179806 -15.18675128 170.04599008 -15.19287109 167.62011719 C-15.20077042 165.88573542 -15.20903926 164.1513553 -15.21765137 162.41697693 C-15.24389164 156.7102923 -15.25918123 151.00360026 -15.2734375 145.296875 C-15.2787964 143.33380376 -15.28417391 141.37073257 -15.28956985 139.40766144 C-15.31120172 131.24271659 -15.32993898 123.07777373 -15.34119225 114.91280746 C-15.35743447 103.20424327 -15.39061539 91.49601079 -15.44759309 79.78757167 C-15.48627327 71.55905548 -15.50582267 63.33062809 -15.51111281 55.10202336 C-15.51476898 50.18550766 -15.52681827 45.26934559 -15.55921555 40.35292816 C-15.58926226 35.72682655 -15.59562021 31.10129316 -15.58383179 26.47511482 C-15.58361077 24.77797644 -15.59193956 23.08081196 -15.60948563 21.38376427 C-15.63215905 19.06438299 -15.62389317 16.74706539 -15.60800171 14.42767334 C-15.61131186 13.13054287 -15.614622 11.8334124 -15.61803246 10.49697495 C-14.80486477 5.89587838 -13.26783188 4.28206851 -10 1 C-6.80401935 -0.59799033 -3.47677244 -0.36773555 0 0 Z " fill="#8395FA" transform="translate(518,464)"/>
<path d="M0 0 C3.63094992 0.01066857 7.26139956 0.00008361 10.89233398 -0.01269531 C30.8316076 -0.02783652 49.78364972 1.40419529 69.21850586 5.88574219 C70.37556534 6.14801605 70.37556534 6.14801605 71.55599976 6.41558838 C105.88927508 14.23197448 140.75952481 27.50382265 169.46850586 48.26074219 C170.61323247 49.0605057 171.75913412 49.85858913 172.90600586 50.65527344 C188.20845116 61.3460796 201.88218435 73.61154984 215.09350586 86.76074219 C215.79306396 87.45562744 216.49262207 88.1505127 217.21337891 88.86645508 C217.86733643 89.52250732 218.52129395 90.17855957 219.19506836 90.85449219 C219.77853027 91.43908203 220.36199219 92.02367187 220.96313477 92.62597656 C222.46850586 94.26074219 222.46850586 94.26074219 224.46850586 97.26074219 C227.86195028 95.77225407 230.25080553 93.82805599 232.96850586 91.32324219 C233.83991211 90.52402344 234.71131836 89.72480469 235.60913086 88.90136719 C236.55272461 88.02996094 237.49631836 87.15855469 238.46850586 86.26074219 C239.504187 85.31718008 240.54066227 84.37448898 241.57788086 83.43261719 C242.09697021 82.95985352 242.61605957 82.48708984 243.15087891 82 C244.19230432 81.05215852 245.23542723 80.10617864 246.28027344 79.16210938 C248.92322737 76.75544744 251.34108353 74.29215373 253.65600586 71.57324219 C257.07639898 68.76091896 259.02409622 68.49383949 263.35131836 68.79980469 C266.55708172 69.49773841 268.27481874 70.86762897 270.46850586 73.26074219 C272.19163628 76.15427954 272.72041993 78.27158817 272.73352051 81.62461853 C272.74179367 82.49166916 272.75006683 83.35871979 272.7585907 84.25204468 C272.7576088 85.19584991 272.75662689 86.13965515 272.75561523 87.11206055 C272.76244827 88.11279099 272.76928131 89.11352142 272.77632141 90.14457703 C272.78991629 92.3205484 272.79896515 94.49655179 272.80403137 96.67255974 C272.81234051 100.13586765 272.83287372 103.59891437 272.85656738 107.06214905 C272.90482778 114.44080759 272.93763545 121.81949319 272.96850586 129.19824219 C273.00437763 137.69650233 273.04683576 146.19463869 273.10444641 154.69278145 C273.12420788 158.06945207 273.13277766 161.44602288 273.14074707 164.82273865 C273.1988127 176.51161744 273.71570476 187.9987808 275.0068512 199.61854553 C275.75724515 206.56959316 275.87637355 213.53758955 275.89404297 220.52392578 C275.90631575 222.81868582 275.95616027 225.11104568 276.00561523 227.40527344 C276.01504654 228.88833366 276.0222972 230.37140976 276.02709961 231.85449219 C276.0405542 233.16095703 276.05400879 234.46742188 276.06787109 235.81347656 C275.31942031 240.1182118 273.81293076 241.54964273 270.46850586 244.26074219 C267.32979398 245.83009813 264.92994764 245.61275322 261.46850586 245.26074219 C257.74379012 242.2809696 254.92002924 239.23724744 254.18896484 234.41796875 C253.9605245 232.11730437 253.77417405 229.81563725 253.59350586 227.51074219 C252.05467235 208.7428889 252.05467235 208.7428889 242.46850586 193.26074219 C234.96195598 187.92954024 226.83197111 183.64467665 218.65600586 179.44824219 C218.06670288 179.145383 217.4773999 178.8425238 216.87023926 178.53048706 C202.38685128 171.1001643 187.81902481 164.26480973 172.60522461 158.45214844 C171.29175552 157.95023735 171.29175552 157.95023735 169.95175171 157.43818665 C165.52697647 155.75222994 161.09660126 154.0832401 156.65698242 152.43676758 C155.82495804 152.1243663 154.99293365 151.81196503 154.13569641 151.49009705 C152.56645532 150.90089854 150.99446985 150.3189382 149.4193573 149.74562073 C145.14777245 148.13302938 141.90902678 146.36817294 138.46850586 143.26074219 C138.79850586 141.61074219 139.12850586 139.96074219 139.46850586 138.26074219 C147.03733945 135.49285159 154.62730395 133.95980087 162.53100586 132.44824219 C178.38070208 129.26640824 191.84280096 125.79999585 204.46850586 115.26074219 C200.21207862 108.57489244 194.90664382 102.99059483 189.46850586 97.26074219 C188.58678711 96.32488281 187.70506836 95.38902344 186.79663086 94.42480469 C179.87869659 87.28173054 172.42020665 81.2037533 164.46850586 75.26074219 C163.91324219 74.83937988 163.35797852 74.41801758 162.78588867 73.98388672 C139.45527231 56.33778261 112.2807295 43.12550168 84.46850586 34.26074219 C83.44281494 33.93291748 82.41712402 33.60509277 81.36035156 33.26733398 C71.70005455 30.33809163 61.98531065 28.64754876 52.03100586 27.07324219 C50.41955568 26.8116231 48.80822665 26.54925663 47.19702148 26.28613281 C42.95623147 25.5970307 38.71425862 24.91868549 34.46850586 24.26074219 C33.32575195 24.07302246 32.18299805 23.88530273 31.00561523 23.69189453 C26.91579629 23.19337022 22.92368441 23.09929468 18.80834961 23.09277344 C17.98988556 23.08849335 17.17142151 23.08421326 16.32815552 23.07980347 C13.68738288 23.06983947 11.04679369 23.06974643 8.40600586 23.07324219 C7.50357147 23.07417877 6.60113708 23.07511536 5.6713562 23.07608032 C-38.22952244 23.1751199 -79.79101069 32.63377333 -118.84399414 52.94824219 C-119.43310577 53.25410248 -120.02221741 53.55996277 -120.62918091 53.87509155 C-130.0333495 58.77352382 -138.9659848 64.00994708 -147.53149414 70.26074219 C-148.55629883 70.99550781 -149.58110352 71.73027344 -150.63696289 72.48730469 C-163.28469175 81.74812556 -175.52213468 92.10159552 -186.53149414 103.26074219 C-190.69959612 101.73296045 -194.47953864 99.71659991 -198.28149414 97.44824219 C-199.16514648 96.95227539 -199.16514648 96.95227539 -200.06665039 96.44628906 C-202.71595722 94.85975015 -204.32102402 93.82409669 -205.42016602 90.88208008 C-205.53149414 88.26074219 -205.53149414 88.26074219 -204.16723633 86.18359375 C-203.47791016 85.51295898 -202.78858398 84.84232422 -202.07836914 84.15136719 C-201.31975586 83.40137451 -200.56114258 82.65138184 -199.77954102 81.87866211 C-198.95518555 81.09724854 -198.13083008 80.31583496 -197.28149414 79.51074219 C-196.02949219 78.29704956 -196.02949219 78.29704956 -194.75219727 77.05883789 C-188.91478872 71.44955925 -183.0304797 66.09839766 -176.53149414 61.26074219 C-175.88776855 60.77831055 -175.24404297 60.29587891 -174.58081055 59.79882812 C-144.51592738 37.35746734 -111.80153131 20.21336627 -75.53149414 10.26074219 C-73.71726979 9.70382881 -71.90448562 9.14217372 -70.09399414 8.57324219 C-65.290132 7.13529683 -60.46353201 6.15034053 -55.53149414 5.26074219 C-54.25016602 5.02355469 -52.96883789 4.78636719 -51.64868164 4.54199219 C-50.21391609 4.28085866 -48.77901919 4.02044585 -47.34399414 3.76074219 C-46.69809326 3.64214844 -46.05219238 3.52355469 -45.38671875 3.40136719 C-43.10534543 2.9961323 -40.81908543 2.62926589 -38.53149414 2.26074219 C-37.56219971 2.08575195 -36.59290527 1.91076172 -35.59423828 1.73046875 C-23.76677164 -0.16733855 -11.95061921 -0.04169287 0 0 Z " fill="#80BFF9" transform="translate(769.531494140625,241.7392578125)"/>
<path d="M0 0 C9.2266124 8.47213642 16.36274353 20.41248675 16.94140625 33.08203125 C17.24389454 51.42263202 13.86835396 64.53551723 1.51171875 78.390625 C-4.52859941 84.23936591 -11.77254341 87.73134645 -19.39453125 91.04296875 C-20.22726562 91.40648437 -21.06 91.77 -21.91796875 92.14453125 C-33.72565472 96.45655309 -48.08794906 95.06320902 -59.39453125 90.04296875 C-63.26868923 87.95959994 -66.84207086 85.63282697 -70.39453125 83.04296875 C-71.02875 82.6046875 -71.66296875 82.16640625 -72.31640625 81.71484375 C-82.58235657 73.89765222 -89.51133861 60.39895766 -92.0078125 47.99609375 C-93.03913738 40.12052197 -92.63091105 32.65700173 -90.39453125 25.04296875 C-90.16121094 24.19089844 -89.92789063 23.33882812 -89.6875 22.4609375 C-85.13440919 7.92846958 -74.57681162 -2.3104837 -61.39453125 -9.33203125 C-40.35986133 -19.14287856 -17.58333959 -14.3707229 0 0 Z " fill="#89DEF8" transform="translate(1061.39453125,518.95703125)"/>
<path d="M0 0 C9.29461898 8.01041034 17.77663997 19.04607522 19.40942383 31.58837891 C19.54131253 34.51476819 19.54063028 37.40742936 19.48046875 40.3359375 C19.48755859 41.31240234 19.49464844 42.28886719 19.50195312 43.29492188 C19.44666306 49.65327902 18.45061422 54.89667915 16.04296875 60.7734375 C15.68976563 61.66933594 15.3365625 62.56523437 14.97265625 63.48828125 C10.18063094 73.58703088 2.83892079 81.41367394 -6.95703125 86.7734375 C-7.90449219 87.33289063 -8.85195313 87.89234375 -9.828125 88.46875 C-17.54013712 92.44974065 -24.11225209 93.31528028 -32.70703125 93.3359375 C-33.66496582 93.33835449 -34.62290039 93.34077148 -35.60986328 93.34326172 C-47.16745321 93.07420246 -55.64197103 89.46907477 -64.95703125 82.7734375 C-65.68019531 82.26039063 -66.40335937 81.74734375 -67.1484375 81.21875 C-73.44651439 76.26409851 -77.21001945 69.76178031 -80.95703125 62.7734375 C-81.4159375 61.94457031 -81.87484375 61.11570312 -82.34765625 60.26171875 C-87.07485949 49.92512293 -86.96705453 34.21468244 -83.33203125 23.5234375 C-82.59428353 21.91427348 -81.80304271 20.32841183 -80.95703125 18.7734375 C-80.32087891 17.50886719 -80.32087891 17.50886719 -79.671875 16.21875 C-72.4792202 3.03555542 -60.30715771 -5.9904376 -45.95703125 -10.2265625 C-29.47472312 -13.59029885 -13.45004086 -10.12750765 0 0 Z " fill="#857FF8" transform="translate(573.95703125,359.2265625)"/>
<path d="M0 0 C2.8100346 1.79363911 4.50940468 3.01880935 6 6 C6.31757677 11.00183409 6.05030455 13.62590214 2.97265625 17.65234375 C-29.91621991 51.31393946 -75.32838566 70.30621551 -121 78 C-121.78536133 78.13567383 -122.57072266 78.27134766 -123.37988281 78.41113281 C-145.66504573 82.09591755 -170.96441876 81.82054978 -193 77 C-193.98258789 76.79068848 -194.96517578 76.58137695 -195.97753906 76.36572266 C-225.40936531 69.99318657 -265.68559904 58.98147047 -286 35 C-287.22061097 31.35897296 -287.66036762 27.71000458 -286.2578125 24.078125 C-284.65782464 21.7609012 -282.77763495 20.30086088 -280.15234375 19.28515625 C-274.53204304 18.5182741 -270.89070679 21.12945796 -266.5625 24.375 C-265.67836426 25.04764893 -265.67836426 25.04764893 -264.77636719 25.73388672 C-249.8861081 37.028999 -231.54359916 46.0287516 -213.3515625 50.421875 C-210.25545573 51.18304411 -207.27446629 52.20555013 -204.265625 53.25390625 C-174.8628461 62.93654551 -139.95731935 61.31518335 -110 55 C-109.14067871 54.8340332 -108.28135742 54.66806641 -107.39599609 54.49707031 C-72.73346127 47.73858425 -40.00458099 28.70128381 -14.2265625 4.98046875 C-9.58587833 0.85270231 -6.44072723 -1.18846753 0 0 Z " fill="#6390D4" transform="translate(938,594)"/>
<path d="M0 0 C1.27568848 0.3405542 1.27568848 0.3405542 2.57714844 0.68798828 C63.87610207 17.36196356 63.87610207 17.36196356 76.36328125 36.0390625 C77.44547014 39.37193872 76.93707417 41.66167327 76 45 C73.04023132 48.31212209 71.23203778 49.83322415 66.796875 50.43359375 C61.82640315 49.86597814 58.95479527 47.88175439 54.875 45.125 C34.61631052 32.13546845 12.40857033 23.33968469 -11 18 C-12.23878906 17.66871094 -13.47757813 17.33742188 -14.75390625 16.99609375 C-44.17701186 9.6341204 -76.64427329 11.28404623 -105.90527344 18.48535156 C-107.84202605 18.96118775 -109.78411257 19.41517085 -111.7265625 19.8671875 C-140.08181055 26.84789127 -166.80664533 40.58711915 -189.5625 58.8203125 C-198.00730084 65.55504117 -198.00730084 65.55504117 -202.4375 65.875 C-206.88795622 64.78190549 -208.48525587 63.85070195 -211 60 C-211.84677041 56.76412737 -211.78455061 54.24400699 -211 51 C-187.57745839 19.5399671 -133.17527636 0.84559939 -95.70703125 -4.8515625 C-63.81660521 -9.21843681 -31.1443358 -8.37256819 0 0 Z " fill="#6489D3" transform="translate(831,304)"/>
<path d="M0 0 C7.08523392 4.82345731 12.29366595 11.46832973 14 20 C14.81481971 29.28894472 11.69348902 37.95845494 5.84375 45.2109375 C-1.20571929 52.05131237 -8.5708383 54.33798752 -18.125 54.2109375 C-25.86552865 53.64301828 -32.5430058 50.53724412 -38 45 C-44.76435776 35.42696325 -45.9909802 27.51411086 -45 16 C-43.26324871 8.57732409 -37.08508285 2.80209922 -30.97265625 -1.390625 C-21.40004352 -6.45323583 -9.17967867 -5.39605459 0 0 Z " fill="#131A29" transform="translate(1040,534)"/>
<path d="M0 0 C6.2499537 5.23923511 9.8770658 9.75730178 10.7734375 17.9453125 C11.22182476 26.22421661 10.54785864 33.45195047 5.3671875 40.234375 C0.08933148 46.04222493 -5.54974153 49.73945731 -13.5 50.703125 C-14.83554346 50.73720087 -16.17189486 50.74708577 -17.5078125 50.734375 C-18.20962646 50.72865479 -18.91144043 50.72293457 -19.63452148 50.71704102 C-25.78810693 50.50573163 -29.9020783 49.09520147 -34.6328125 45.234375 C-35.27734375 44.71488281 -35.921875 44.19539063 -36.5859375 43.66015625 C-42.25547288 38.55042793 -45.17166617 33.23677711 -46.046875 25.640625 C-46.35031204 17.65543973 -45.87471269 11.47413089 -40.6328125 5.234375 C-29.21127744 -6.72657548 -14.23108439 -9.54369457 0 0 Z " fill="#121828" transform="translate(558.6328125,377.765625)"/>
<path d="M0 0 C0 0.33 0 0.66 0 1 C-1.92057292 1.32552083 -3.84114583 1.65104167 -5.76171875 1.9765625 C-9.08499207 3.49610458 -11.12630929 5.93655547 -13 9 C-13.73090722 12.55640172 -13.73090722 12.55640172 -13.60127258 16.44113159 C-13.60554471 17.16904691 -13.60981683 17.89696223 -13.61421841 18.64693558 C-13.62242468 21.07499196 -13.59500546 23.50130327 -13.56762695 25.92919922 C-13.56621596 27.673904 -13.56700947 29.41861176 -13.56983948 31.16331482 C-13.57127303 35.89240842 -13.54189303 40.62086688 -13.50696969 45.34981298 C-13.47569616 50.29454668 -13.47277466 55.23929522 -13.46684265 60.18411255 C-13.45130716 69.54449319 -13.41028259 78.90458157 -13.3600952 88.26483357 C-13.30419266 98.92252789 -13.27671293 109.58023623 -13.25161803 120.23804069 C-13.19936655 142.15885686 -13.11142988 164.07941001 -13 186 C-15.87589636 183.12410364 -15.25968771 181.11072617 -15.27415466 177.08026123 C-15.28200968 175.9998649 -15.28200968 175.9998649 -15.29002339 174.89764237 C-15.30508655 172.47174528 -15.30572992 170.04605793 -15.30639648 167.62011719 C-15.31401388 165.88573345 -15.32244065 164.15135311 -15.33161926 162.41697693 C-15.35361604 157.69576223 -15.36237041 152.97461232 -15.36744571 148.25335217 C-15.371084 145.30478072 -15.37732136 142.35622638 -15.3844471 139.40766144 C-15.40896219 129.12381746 -15.42199737 118.84002405 -15.42553711 108.55615234 C-15.42917122 98.96648606 -15.45905238 89.37714007 -15.50094169 79.78757167 C-15.53562694 71.55904438 -15.55108527 63.33062328 -15.55178314 55.10202336 C-15.55257674 50.18552454 -15.56135268 45.26935154 -15.58978081 40.35292816 C-15.61593032 35.72680488 -15.61818417 31.10127819 -15.60212517 26.47511482 C-15.60030802 24.77798476 -15.60702538 23.08082065 -15.62294388 21.38376427 C-15.64337167 19.06436053 -15.63287473 16.74705049 -15.61473083 14.42767334 C-15.61674216 13.13054287 -15.61875349 11.8334124 -15.62082577 10.49697495 C-14.80426657 5.89747667 -13.26694727 4.28171357 -10 1 C-6.78548731 -0.60725635 -3.56387464 -0.05748185 0 0 Z " fill="#8C77EE" transform="translate(518,464)"/>
<path d="M0 0 C0 0.33 0 0.66 0 1 C-1.92057292 1.32552083 -3.84114583 1.65104167 -5.76171875 1.9765625 C-9.21214475 3.5542442 -11.30965431 5.66647728 -13 9 C-13.72753382 12.79333593 -13.79011687 16.5201284 -13.8125 20.375 C-13.83763672 21.39722656 -13.86277344 22.41945313 -13.88867188 23.47265625 C-13.9473051 25.98215812 -13.98375872 28.48992541 -14 31 C-14.33 31 -14.66 31 -15 31 C-15.14584726 27.12539922 -15.23425444 23.25150883 -15.3125 19.375 C-15.35439453 18.28058594 -15.39628906 17.18617188 -15.43945312 16.05859375 C-15.57759564 6.94118758 -15.57759564 6.94118758 -12.60546875 3.2890625 C-8.22924717 -0.55571388 -5.65343277 -0.0911844 0 0 Z " fill="#806EE1" transform="translate(518,464)"/>
<path d="M0 0 C1.5159375 0.2475 1.5159375 0.2475 3.0625 0.5 C3.0625 0.83 3.0625 1.16 3.0625 1.5 C1.73605469 1.84224609 1.73605469 1.84224609 0.3828125 2.19140625 C-3.43624494 3.69656418 -5.27069148 5.45752884 -8.0625 8.4375 C-10.88334142 11.42091327 -13.56576027 14.14599738 -16.9375 16.5 C-17.5975 16.17 -18.2575 15.84 -18.9375 15.5 C-18.19306641 14.88125 -18.19306641 14.88125 -17.43359375 14.25 C-13.68653362 11.06464338 -10.41446389 7.93781646 -7.375 4.0625 C-4.70808203 0.87325938 -4.37758018 0.5558832 0 0 Z " fill="#79CAE3" transform="translate(982.9375,619.5)"/>
<path d="M0 0 C0.66 0 1.32 0 2 0 C2.03738281 0.97839844 2.07476563 1.95679688 2.11328125 2.96484375 C2.48856382 10.44841967 3.16997558 16.98646123 6 24 C5.34 24.66 4.68 25.32 4 26 C0.85175769 17.08988025 -0.15134615 9.45072633 0 0 Z " fill="#70B1D9" transform="translate(969,553)"/>
<path d="M0 0 C0 3 0 3 -2.40625 5.48046875 C-3.43005231 6.39125392 -4.46167034 7.29331192 -5.5 8.1875 C-6.02464844 8.65091797 -6.54929687 9.11433594 -7.08984375 9.59179688 C-8.38666224 10.735355 -9.69249867 11.86867174 -11 13 C-11.66 12.67 -12.32 12.34 -13 12 C-9.22660027 7.04741286 -5.09210286 3.56320845 0 0 Z " fill="#78BFE7" transform="translate(993,514)"/>
<path d="M0 0 C0 3 0 3 -1 5 C-1.66 5 -2.32 5 -3 5 C-3.2475 5.598125 -3.495 6.19625 -3.75 6.8125 C-5.16370012 9.28647521 -6.65055383 10.43370255 -9 12 C-7.55575365 8.76138697 -5.74227753 6.38030837 -3.375 3.75 C-2.74335938 3.04359375 -2.11171875 2.3371875 -1.4609375 1.609375 C-0.97882813 1.07828125 -0.49671875 0.5471875 0 0 Z " fill="#866EEB" transform="translate(505,362)"/>
</svg>
