<?xml version="1.0" encoding="UTF-8"?>
<svg version="1.1" xmlns="http://www.w3.org/2000/svg" width="1536" height="1024">
<path d="M0 0 C506.88 0 1013.76 0 1536 0 C1536 337.92 1536 675.84 1536 1024 C1029.12 1024 522.24 1024 0 1024 C0 686.08 0 348.16 0 0 Z " fill="#101927" transform="translate(0,0)"/>
<path d="M0 0 C-3.32016091 2.75081924 -6.68086745 5.09496198 -10.375 7.3125 C-17.67563642 11.93066839 -24.58650262 17.34568396 -27 26 C-27.931121 33.66015007 -27.84990462 40.72857161 -23 47 C-16.33608448 54.89147891 -6.20664811 58.625747 2.93554688 62.90625 C16.60669154 69.33297908 27.35886198 76.64698089 33.9375 90.6875 C36.9439203 100.04711036 35.89428999 110.48464492 31.6484375 119.22265625 C24.44962898 131.35145449 13.70235153 137.73874115 0.31640625 141.34765625 C-11.45332972 144.20011774 -23.07189672 145.1287103 -35.1640625 145.28125 C-36.31377533 145.29965942 -37.46348816 145.31806885 -38.64804077 145.33703613 C-42.30697917 145.39531436 -45.9659646 145.44819836 -49.625 145.5 C-54.40891982 145.56913552 -59.19276451 145.64163083 -63.9765625 145.71875 C-65.17420227 145.73780899 -66.37184204 145.75686798 -67.60577393 145.77650452 C-73.85542845 145.88729834 -80.09053231 146.07424768 -86.33309937 146.3888092 C-104.91728135 147.32404444 -123.52162368 147.11285922 -142.12359619 147.06866455 C-146.97171587 147.05827433 -151.81984106 147.05383394 -156.66796875 147.04882812 C-166.11199327 147.03823256 -175.55599386 147.02125769 -185 147 C-185 146.34 -185 145.68 -185 145 C-184.3694873 144.79020508 -183.73897461 144.58041016 -183.08935547 144.36425781 C-137.80856147 130.1405313 -137.80856147 130.1405313 -97 107 C-96.17113281 106.37609375 -95.34226562 105.7521875 -94.48828125 105.109375 C-88.56532194 100.29268743 -85.15046998 94.91037513 -82 88 C-81.62359375 87.19820312 -81.2471875 86.39640625 -80.859375 85.5703125 C-78.39286877 78.1932166 -79.65531296 69.76249074 -81.5 62.375 C-84.33030663 50.23339474 -85.49544226 36.48322891 -78.8125 25.46875 C-69.4635524 12.73483862 -56.18551637 6.2915203 -41 3 C-40.34080566 2.85191895 -39.68161133 2.70383789 -39.00244141 2.55126953 C-26.02105075 -0.28430816 -13.23965584 -0.34524377 0 0 Z " fill="#7AC8F9" transform="translate(813,558)"/>
<path d="M0 0 C1.91619141 0.48339844 1.91619141 0.48339844 3.87109375 0.9765625 C27.34502526 7.58489083 48.3946962 20.32873965 66 37 C66.82242187 37.76957031 67.64484375 38.53914063 68.4921875 39.33203125 C85.68069719 55.90475321 98.17714686 77.00013571 105.25 99.75 C105.48420654 100.48629639 105.71841309 101.22259277 105.9597168 101.98120117 C111.55891335 121.0232877 111.46576689 140.38849559 111.43590808 160.04154539 C111.43278138 163.22574936 111.43894489 166.40991043 111.44494683 169.59410822 C111.45888611 177.09923484 111.45751252 184.60424729 111.44604492 192.109375 C111.43449841 199.83681232 111.44877209 207.5639052 111.4754414 215.29129732 C111.49758431 221.95839473 111.5042412 228.62538382 111.49836498 235.2925154 C111.49499993 239.2613217 111.4973838 243.22990579 111.51461601 247.19868088 C111.53006705 250.91724143 111.52615094 254.63528646 111.50731087 258.35382652 C111.50186713 260.36491572 111.51614177 262.37602806 111.53100586 264.3870697 C111.52117172 265.58653732 111.51133759 266.78600494 111.50120544 268.02182007 C111.50099616 269.06181341 111.50078688 270.10180676 111.50057125 271.17331505 C110.87017523 274.73310989 109.47394904 276.41357266 107 279 C104.15916359 280.42041821 102.14522722 280.31452272 99 280 C96.69724444 278.1329009 95.32176129 276.64352259 94 274 C93.9009611 272.16534374 93.86656456 270.32706783 93.86196899 268.48974609 C93.85651566 267.31819977 93.85106232 266.14665344 93.84544373 264.93960571 C93.8444014 263.6472702 93.84335907 262.35493469 93.84228516 261.0234375 C93.83761723 259.65334917 93.8324737 258.28326239 93.82688904 256.91317749 C93.8155938 253.95575099 93.80716583 250.99833464 93.80076981 248.04089355 C93.79007476 243.34786249 93.76981907 238.6549032 93.74765015 233.96191406 C93.68579861 220.61364081 93.63194291 207.26536933 93.59863281 193.91699219 C93.58016711 186.54957036 93.55107188 179.18226664 93.5106281 171.81493187 C93.48973245 167.92320215 93.47412623 164.03162027 93.47182083 160.13983154 C93.4379759 115.8837829 83.13902568 80.18258177 51.38671875 48.3828125 C25.80574311 24.05246233 -8.18362656 13.82979381 -42.875 13.8125 C-44.16019531 13.80025391 -45.44539062 13.78800781 -46.76953125 13.77539062 C-54.72841286 13.7632705 -62.20816171 14.38007972 -70 16 C-70.72251953 16.14606689 -71.44503906 16.29213379 -72.18945312 16.44262695 C-101.77179131 22.74845254 -131.49657793 39.82914968 -149 65 C-149.76828125 66.06476563 -150.5365625 67.12953125 -151.328125 68.2265625 C-167.0895319 90.54808949 -175.51513969 115.68282816 -175.38476562 143.04760742 C-175.38888636 144.4704125 -175.39435598 145.8932142 -175.40104675 147.31600952 C-175.41263343 150.34148199 -175.41530697 153.36677278 -175.41069031 156.39226341 C-175.40380247 161.17951418 -175.41987555 165.96653107 -175.43908691 170.7537384 C-175.47988098 181.76222448 -175.49150159 192.77070216 -175.50261688 203.7792511 C-175.5131365 213.90973074 -175.52988335 224.04009565 -175.57071257 234.17050439 C-175.58903579 238.92768994 -175.59297457 243.68460144 -175.58577728 248.44181383 C-175.58425567 251.39424966 -175.59503532 254.34654789 -175.60915565 257.29894638 C-175.61506308 259.31720811 -175.60605584 261.33549626 -175.59660339 263.35374451 C-175.60480606 264.55754761 -175.61300873 265.76135071 -175.62145996 267.00163269 C-175.62217247 268.04552249 -175.62288498 269.08941229 -175.62361908 270.16493511 C-176.06327338 273.47660261 -177.02266082 275.32593784 -179 278 C-182 280 -182 280 -185.4375 279.875 C-189.40474449 278.90058907 -190.52907121 278.16787634 -193 275 C-193.49777794 272.25116158 -193.49777794 272.25116158 -193.49447632 269.03250122 C-193.5028653 267.81035416 -193.51125427 266.58820709 -193.51989746 265.32902527 C-193.50893037 263.97732226 -193.4975644 262.62562243 -193.48583984 261.27392578 C-193.48798631 259.84779004 -193.4918649 258.421656 -193.49734497 256.99552917 C-193.50704398 253.12081061 -193.4917214 249.24655251 -193.47143888 245.37188959 C-193.45384535 241.30651548 -193.45739364 237.24115516 -193.4581604 233.17575073 C-193.45628629 226.33779229 -193.43892004 219.50001111 -193.41162109 212.66210938 C-193.38029476 204.78699059 -193.3696206 196.91206677 -193.3710922 189.03689015 C-193.37245107 180.62605558 -193.35851042 172.215295 -193.34019899 163.80448294 C-193.3359623 161.39690583 -193.33452011 158.98934089 -193.33372116 156.58176041 C-193.33168896 152.77155166 -193.31929313 148.96150212 -193.29938889 145.15134621 C-193.29090008 143.10966756 -193.29186981 141.06795619 -193.29327393 139.02626038 C-193.0820705 108.06750336 -183.04856587 76.89535616 -163 53 C-162.39800781 52.21625 -161.79601562 51.4325 -161.17578125 50.625 C-137.23310693 19.54323212 -101.42193078 1.39686664 -63.07226562 -4.28564453 C-41.78968267 -7.00772049 -20.68671104 -5.37474618 0 0 Z " fill="#97B8F6" transform="translate(812,303)"/>
<path d="M0 0 C2.92870727 0.55780436 5.8627903 1.06707525 8.80078125 1.57324219 C44.33367226 8.09724339 77.71681326 26.04003771 104.05078125 50.58105469 C104.65873535 51.14518066 105.26668945 51.70930664 105.89306641 52.29052734 C135.82732292 80.37461091 155.41339783 116.87332671 163.92578125 156.89355469 C164.1168042 157.7856665 164.30782715 158.67777832 164.50463867 159.59692383 C167.92332929 176.88573069 168.42376491 194.23380693 168.42138672 211.81103516 C168.4258332 215.4991435 168.4625025 219.18611983 168.5 222.87402344 C168.50585674 225.23209232 168.50983376 227.59016679 168.51171875 229.94824219 C168.52608978 231.04401581 168.54046082 232.13978943 168.55526733 233.26876831 C168.50992277 240.78104848 168.50992277 240.78104848 166.23681641 244.74169922 C163.15523206 247.33458022 161.04894153 247.65119785 157.05078125 247.58105469 C154.24888679 245.81464296 152.53553214 244.55055647 151.05078125 241.58105469 C150.94744657 240.04904891 150.90488461 238.51273626 150.89306641 236.97729492 C150.87767319 235.5369413 150.87767319 235.5369413 150.86196899 234.06748962 C150.85466766 233.01880203 150.84736633 231.97011444 150.83984375 230.88964844 C150.81169557 228.6402932 150.783031 226.39094437 150.75390625 224.14160156 C150.71326441 220.61906685 150.67637898 217.09664173 150.64941406 213.57397461 C150.4044102 184.0826908 147.77904699 154.93568954 136.05078125 127.58105469 C135.7583252 126.89591797 135.46586914 126.21078125 135.16455078 125.50488281 C115.47295092 80.09640796 78.88080184 45.73754732 33.05078125 27.58105469 C-17.44713996 8.65451709 -71.95721186 10.4622658 -121.26025391 32.29711914 C-134.46603953 38.32993441 -146.80909819 46.27165324 -157.94921875 55.58105469 C-158.43841797 55.98291992 -158.92761719 56.38478516 -159.43164062 56.79882812 C-196.03386637 86.87592719 -218.85229641 128.60177134 -224.94921875 175.58105469 C-225.12251709 176.8859082 -225.29581543 178.19076172 -225.47436523 179.53515625 C-226.13922791 185.59957323 -226.10357675 191.65836492 -226.125 197.75292969 C-226.14817528 200.29851108 -226.17229163 202.84408405 -226.19726562 205.38964844 C-226.23250023 209.37485489 -226.26350515 213.35987621 -226.27514648 217.34521484 C-226.29058169 221.21066544 -226.33073162 225.07521604 -226.375 228.94042969 C-226.37309158 230.13319519 -226.37118317 231.32596069 -226.36921692 232.55487061 C-226.49164038 240.80819331 -226.49164038 240.80819331 -228.86010742 244.80859375 C-231.34030615 246.91286426 -232.53524659 247.51665902 -235.76171875 248.01855469 C-239.36795436 247.52358117 -240.68902686 246.54591307 -242.90820312 243.69799805 C-245.19437826 239.04897727 -244.61147777 233.70985548 -244.54296875 228.64355469 C-244.54300903 227.3724585 -244.54304932 226.1013623 -244.54309082 224.79174805 C-244.53772937 222.09436304 -244.52281235 219.3991428 -244.49121094 216.70214844 C-244.45985999 213.9831371 -244.44540568 211.26508742 -244.45019531 208.54589844 C-244.51187789 172.48802363 -239.33982864 137.60024622 -221.99511719 105.51660156 C-220.93360018 103.55215085 -219.89874389 101.5749634 -218.86328125 99.59667969 C-211.48151688 85.74913632 -202.16737373 73.58342436 -191.41015625 62.19433594 C-189.28485841 59.93747204 -187.26197239 57.63537065 -185.26171875 55.26855469 C-167.57303091 34.91232361 -141.58613132 20.58563185 -116.94921875 10.58105469 C-115.8813916 10.1445459 -115.8813916 10.1445459 -114.79199219 9.69921875 C-102.54823158 4.79362519 -89.86747773 2.08935629 -76.94921875 -0.41894531 C-75.73621094 -0.65613281 -74.52320313 -0.89332031 -73.2734375 -1.13769531 C-49.16215316 -5.48092004 -23.96620161 -4.57387347 0 0 Z " fill="#ABBAF5" transform="translate(808.94921875,249.4189453125)"/>
<path d="M0 0 C1.87945313 0.51046875 1.87945313 0.51046875 3.796875 1.03125 C17.26352978 4.76810448 29.40140188 10.7778432 40 20 C40.80824219 20.67675781 41.61648438 21.35351562 42.44921875 22.05078125 C62.01366124 38.91874622 73.95900771 62.20256265 76 88 C76.14733565 92.35333096 76.15705529 96.70400942 76.16113281 101.05957031 C76.16609772 102.3403244 76.17106262 103.62107849 76.17617798 104.94064331 C76.18919336 108.42793771 76.19572382 111.91521297 76.20018864 115.40252781 C76.20313306 117.58409693 76.20724004 119.76566095 76.21169281 121.94722748 C76.22533028 128.78212114 76.23501892 135.61700299 76.2388947 142.4519093 C76.24338623 150.32697481 76.26100027 158.20186768 76.2898953 166.07688069 C76.31150571 172.17900421 76.3215984 178.28107908 76.32293582 184.38324046 C76.323983 188.02241992 76.32987387 191.66143625 76.34775543 195.30057526 C76.36728707 199.35316007 76.36294982 203.40538117 76.35644531 207.45800781 C76.3656601 208.66018951 76.37487488 209.86237122 76.3843689 211.10098267 C76.37601517 212.75778549 76.37601517 212.75778549 76.36749268 214.44805908 C76.36895924 215.40517414 76.3704258 216.3622892 76.3719368 217.34840775 C75.92631691 220.52529763 74.86954131 222.41454826 73 225 C69.87139505 226.56430248 67.44397075 226.35627284 64 226 C61.25194271 223.81236358 60.13869156 221.97147911 59.64064026 218.48282814 C59.49337566 215.18232611 59.48611467 211.90453469 59.51757812 208.60083008 C59.51157148 206.66751838 59.50556385 204.73420668 59.49951935 202.80089509 C59.49689255 200.7257292 59.50412272 198.65080402 59.5141449 196.57566261 C59.53455968 192.23095128 59.52446624 187.88663127 59.5098877 183.54191589 C59.48088099 173.51810895 59.49151623 163.49441716 59.50258636 153.47058868 C59.51230559 144.31450883 59.51325694 135.1586367 59.48270559 126.00259131 C59.47162992 122.40031433 59.46872436 118.79843838 59.4858551 115.19617653 C59.68407902 87.87554199 59.68407902 87.87554199 51.3125 62.125 C50.97001221 61.43140381 50.62752441 60.73780762 50.2746582 60.02319336 C39.34007593 38.61654111 20.87920032 25.4265135 -1.5 17.80859375 C-16.71252555 13.33523839 -33.90824372 12.8898167 -49 18 C-49.7940625 18.19335938 -50.588125 18.38671875 -51.40625 18.5859375 C-68.99391239 22.9828531 -83.44252994 34.63623143 -94 49 C-94.62777344 49.85207031 -95.25554688 50.70414062 -95.90234375 51.58203125 C-106.67005917 67.29771218 -109.31257799 84.70267831 -109.27124023 103.44360352 C-109.27926238 105.38051996 -109.287287 107.3174364 -109.29540551 109.25435245 C-109.30219292 111.30386777 -109.30425577 113.35333854 -109.30496025 115.40286446 C-109.30692356 119.69426006 -109.32509282 123.98549916 -109.34571838 128.27684021 C-109.39457407 138.92106819 -109.42584766 149.56533748 -109.44702148 160.20965576 C-109.46355411 168.5147333 -109.48633898 176.81967297 -109.53004223 185.12465805 C-109.55177295 189.38841981 -109.55988121 193.65191918 -109.55764949 197.9157325 C-109.55970818 201.18419457 -109.58106135 204.45254192 -109.59936523 207.72094727 C-109.59249947 209.48438477 -109.59249947 209.48438477 -109.585495 211.28344727 C-109.59996674 212.90416893 -109.59996674 212.90416893 -109.61473083 214.55763245 C-109.61674216 215.49350472 -109.61875349 216.429377 -109.62082577 217.39360905 C-110.07839249 220.53885908 -111.15222681 222.43497441 -113 225 C-116.12860495 226.56430248 -118.55602925 226.35627284 -122 226 C-124.55259071 223.48694318 -125.85476258 221.79467391 -126.50336456 218.24581528 C-126.50487267 217.24009602 -126.50638077 216.23437675 -126.50793457 215.19818115 C-126.51921387 214.03789398 -126.53049316 212.87760681 -126.54211426 211.68215942 C-126.53401733 210.41774017 -126.52592041 209.15332092 -126.51757812 207.85058594 C-126.52300198 206.49813077 -126.53012612 205.14568152 -126.53881836 203.79324341 C-126.55704467 200.12294614 -126.54998182 196.45309908 -126.53730202 192.782794 C-126.52714577 188.92567963 -126.53657726 185.06860277 -126.54284668 181.21148682 C-126.55012596 174.72165051 -126.54053908 168.23199616 -126.52148438 161.7421875 C-126.49982499 154.27996626 -126.50668552 146.81818411 -126.52879 139.35597396 C-126.54706839 132.92420044 -126.54943892 126.49255763 -126.53903532 120.06076646 C-126.53285387 116.23110946 -126.53181245 112.40165704 -126.54518127 108.57201385 C-126.6431808 76.0594803 -120.91893132 48.9649404 -97.34375 25.1875 C-85.13349583 13.34553656 -70.38054688 4.76232192 -54 0 C-52.46859375 -0.44666016 -52.46859375 -0.44666016 -50.90625 -0.90234375 C-34.79850036 -4.83858437 -15.84073645 -5.14201916 0 0 Z " fill="#8FBFF8" transform="translate(796,353)"/>
<path d="M0 0 C5.70087116 4.72979766 10.24790133 9.85445378 12.34765625 17.08203125 C12.37722915 19.41517717 12.3800558 21.74892287 12.34765625 24.08203125 C13.62406982 24.05584717 14.9004834 24.02966309 16.21557617 24.00268555 C20.95839865 23.91207709 25.70114487 23.85474298 30.44458008 23.80737305 C32.49614331 23.78225319 34.54761726 23.74815089 36.59887695 23.70483398 C39.55051716 23.64407123 42.50097275 23.61579633 45.453125 23.59375 C46.36789108 23.56794357 47.28265717 23.54213715 48.22514343 23.51554871 C52.78205033 23.51354881 54.71210138 23.59199945 58.42700195 26.45629883 C60.34765625 29.08203125 60.34765625 29.08203125 60.97265625 31.58203125 C60.02282938 35.38133874 58.45871416 36.71418005 55.34765625 39.08203125 C51.95204647 39.67483517 48.65638745 39.45114917 45.2265625 39.25390625 C43.21943165 39.19555203 41.21226869 39.13829405 39.20507812 39.08203125 C36.05285017 38.96405313 32.90239267 38.83165198 29.75170898 38.67773438 C26.70159883 38.53856223 23.65379178 38.45562076 20.6015625 38.37890625 C19.66389542 38.31676941 18.72622833 38.25463257 17.76014709 38.19061279 C15.01732203 38.13845031 12.94947971 38.20021627 10.34765625 39.08203125 C8.3536646 41.18862689 7.04068891 43.24939028 5.68418884 45.80841064 C2.21969478 51.70197818 -4.42252104 54.84869858 -10.65234375 57.08203125 C-21.22503641 59.58007178 -29.59652608 58.3571031 -38.7734375 52.796875 C-45.87183086 47.97962885 -50.42242369 41.35594279 -52.65234375 33.08203125 C-53.77288276 21.80587026 -52.56481229 13.8944075 -45.82421875 4.546875 C-43.47060899 1.8757819 -41.17101285 0.20625987 -38.15234375 -1.66796875 C-37.21390625 -2.2609375 -36.27546875 -2.85390625 -35.30859375 -3.46484375 C-24.67274745 -9.28327732 -9.44511097 -6.82996979 0 0 Z " fill="#9889F9" transform="translate(537.65234375,488.91796875)"/>
<path d="M0 0 C0.76957031 0.474375 1.53914063 0.94875 2.33203125 1.4375 C8.55886432 5.73329197 12.70346483 10.73915007 15 18 C16.6874541 28.19820233 15.43970059 38.0949064 10 47 C5.2978846 53.45645795 -1.72059743 57.67593258 -9.4453125 59.61328125 C-20.3860043 61.26944102 -28.13512215 59.45579612 -37.1875 53.3125 C-41.46381048 49.96172365 -44.47157813 45.78867778 -47 41 C-47 40.34 -47 39.68 -47 39 C-47.95664551 39.03029297 -48.91329102 39.06058594 -49.89892578 39.09179688 C-53.51832538 39.205819 -57.13781002 39.31692708 -60.75732422 39.42724609 C-62.31073347 39.47497923 -63.86412007 39.52345663 -65.41748047 39.57275391 C-69.89802692 39.71467167 -74.37838563 39.83395769 -78.85998535 39.93701172 C-80.94252869 39.99830841 -83.02002835 40.09864918 -85.10058594 40.20703125 C-86.34356445 40.25214844 -87.58654297 40.29726563 -88.8671875 40.34375 C-90.50469971 40.42399414 -90.50469971 40.42399414 -92.17529297 40.50585938 C-95 40 -95 40 -97.37939453 37.66992188 C-99 35 -99 35 -99.0625 31.9375 C-97.67723502 28.10764977 -96.50067532 27.10202213 -93 25 C-89.62236217 24.45652606 -86.30015605 24.53413701 -82.88671875 24.609375 C-81.91716751 24.61503479 -80.94761627 24.62069458 -79.94868469 24.62652588 C-76.86111454 24.64886294 -73.77471761 24.69905502 -70.6875 24.75 C-68.59051159 24.77006842 -66.49350493 24.78831859 -64.39648438 24.8046875 C-59.26387293 24.84871913 -54.13213518 24.91772889 -49 25 C-48.94050171 24.38303253 -48.88100342 23.76606506 -48.81970215 23.13040161 C-48.73675903 22.32053802 -48.65381592 21.51067444 -48.56835938 20.67626953 C-48.48823608 19.87367706 -48.40811279 19.07108459 -48.32556152 18.24417114 C-47.36048012 11.59164104 -42.70368221 6.23533109 -37.6875 2.0625 C-26.78577907 -5.60305502 -11.55844932 -7.39740756 0 0 Z " fill="#85EAF7" transform="translate(1042,487)"/>
<path d="M0 0 C2.0625 2.8125 2.0625 2.8125 2.6875 5.8125 C1.84536891 9.85472922 0.19676092 11.17334715 -2.9375 13.8125 C-6.00170898 14.8515625 -6.00170898 14.8515625 -9.43359375 15.4375 C-10.70299805 15.66630859 -11.97240234 15.89511719 -13.28027344 16.13085938 C-13.94796753 16.24196045 -14.61566162 16.35306152 -15.30358887 16.4675293 C-18.1186534 16.93634728 -20.92529534 17.44852147 -23.73312378 17.95861816 C-25.1472278 18.21522889 -26.56172034 18.46970777 -27.97659302 18.7220459 C-33.75481691 19.75679951 -39.47322907 20.97310814 -45.1875 22.3125 C-46.05028564 22.51375488 -46.91307129 22.71500977 -47.80200195 22.92236328 C-49.57546684 23.33612261 -51.34882171 23.75035378 -53.12207031 24.16503906 C-57.29147289 25.1238715 -61.47220998 26.02933585 -65.65209961 26.94116211 C-87.95320329 31.82157402 -110.02887054 37.34393546 -131.89501953 43.90771484 C-135.02757924 44.83928813 -138.16683391 45.74450582 -141.30859375 46.64453125 C-160.6100658 52.20791357 -179.92334585 58.28172948 -198.62890625 65.640625 C-202.60914014 67.05038907 -204.89509561 66.97857819 -208.9375 65.8125 C-211.375 64.25 -211.375 64.25 -212.9375 61.8125 C-213.71153846 56.39423077 -213.71153846 56.39423077 -212.9375 53.8125 C-208.86603233 48.80991903 -204.62986428 47.22543398 -198.703125 45.2890625 C-197.34990395 44.82842911 -197.34990395 44.82842911 -195.96934509 44.35848999 C-193.04704685 43.36921652 -190.11787404 42.40256233 -187.1875 41.4375 C-185.17080352 40.76224506 -183.15428377 40.08646205 -181.13793945 39.41015625 C-168.08238503 35.05744602 -154.98267585 31.09303074 -141.67919922 27.56738281 C-136.81218599 26.22732895 -132.00502819 24.69395702 -127.1875 23.1875 C-118.26444212 20.41816988 -109.29829548 18.11115321 -100.1875 16.05078125 C-96.00296603 15.09364301 -91.86581228 13.99747968 -87.72265625 12.875 C-80.31750991 10.87574843 -72.87011928 9.13266712 -65.375 7.5 C-64.71372101 7.3558667 -64.05244202 7.2117334 -63.37112427 7.06323242 C-52.24781922 4.64916228 -41.09148549 2.40565467 -29.90725708 0.29214478 C-28.23053464 -0.02544982 -26.55447192 -0.34654911 -24.87911987 -0.67129517 C-22.52428779 -1.1258016 -20.16710243 -1.56502836 -17.80859375 -2 C-17.11507812 -2.13605148 -16.4215625 -2.27210297 -15.70703125 -2.41227722 C-9.80308743 -3.46985034 -4.91936848 -3.6633595 0 0 Z " fill="#798CF6" transform="translate(697.9375,602.1875)"/>
<path d="M0 0 C1.86897056 0.37800741 3.73605021 0.76543553 5.6015625 1.16015625 C6.64304443 1.37470459 7.68452637 1.58925293 8.75756836 1.81030273 C11.84900707 2.451469 14.93837963 3.10172898 18.0269165 3.75671387 C20.43077493 4.26591377 22.83523065 4.77223232 25.23974609 5.27832031 C30.7575795 6.44072848 36.27354585 7.61181093 41.7890625 8.78515625 C42.68171814 8.97447723 43.57437378 9.16379822 44.49407959 9.3588562 C54.51313512 11.48771856 64.48892798 13.71593396 74.41333008 16.2512207 C78.263195 17.23198852 82.12017434 18.17838059 85.98046875 19.1171875 C101.0594252 22.80997371 115.96253504 26.77903788 130.77197266 31.45849609 C133.76535674 32.39039307 136.77314166 33.26428753 139.78637695 34.12939453 C154.31304132 38.30244033 168.61813956 43.15952124 182.7890625 48.41015625 C183.67561523 48.73089111 184.56216797 49.05162598 185.47558594 49.38208008 C193.4284924 52.38573627 193.4284924 52.38573627 196.2265625 56.22265625 C196.84640749 60.48409057 196.71968214 62.46653947 194.3515625 66.09765625 C192.2265625 68.22265625 192.2265625 68.22265625 190.2265625 69.22265625 C183.96831928 69.18878655 178.6136199 67.48918596 172.921875 65.06640625 C163.13681547 61.08880027 153.18052644 57.86504104 143.1015625 54.72265625 C141.2788403 54.15030466 139.45616832 53.57779309 137.63354492 53.00512695 C124.54671156 48.90366334 111.43883852 44.90257813 98.2265625 41.22265625 C97.14133301 40.91553711 96.05610352 40.60841797 94.93798828 40.29199219 C74.36227274 34.49220337 53.6206483 29.94138244 32.6730957 25.7166748 C30.19371378 25.21602324 27.71494776 24.71241889 25.23632812 24.20800781 C20.42159051 23.22865368 15.60573441 22.25495039 10.7890625 21.28515625 C10.04645172 21.1354538 9.30384094 20.98575134 8.53872681 20.83151245 C6.4364356 20.40876288 4.33357753 19.98897363 2.23046875 19.5703125 C1.04267822 19.33320557 -0.1451123 19.09609863 -1.36889648 18.85180664 C-3.74381995 18.41292691 -6.13449289 18.05492273 -8.53149414 17.75952148 C-12.35124666 17.12697116 -14.02347398 15.89173849 -16.7734375 13.22265625 C-18.34279344 10.08394437 -18.12544853 7.68409803 -17.7734375 4.22265625 C-13.20136901 -2.49256935 -7.15255793 -1.29652545 0 0 Z " fill="#76E4F7" transform="translate(860.7734375,599.77734375)"/>
<path d="M0 0 C2.94691517 2.05096266 4.72667291 3.67107591 5.46759033 7.2734375 C5.6631793 10.13133909 5.69281173 12.94798947 5.6640625 15.8125 C5.66884613 16.85897705 5.67362976 17.9054541 5.67855835 18.98364258 C5.68195548 21.19256089 5.67276625 23.40152961 5.65185547 25.61035156 C5.62508896 28.9887721 5.65161143 32.36387014 5.68359375 35.7421875 C5.68028962 37.89063232 5.67388333 40.03907508 5.6640625 42.1875 C5.67418365 43.19594971 5.68430481 44.20439941 5.69473267 45.2434082 C5.61598667 49.96233118 5.56169025 52.25807021 2.64599609 56.109375 C-0.44730992 58.31961321 -2.19014775 59.07937192 -6 59 C-8.74716387 57.22960551 -10.53145922 55.93708156 -12 53 C-12.1149054 51.48500543 -12.16942263 49.96520981 -12.19287109 48.44604492 C-12.20893402 47.50133835 -12.22499695 46.55663177 -12.24154663 45.58329773 C-12.28597262 41.26086107 -12.32706033 36.93857833 -12.35009766 32.6159668 C-12.36666096 30.33558957 -12.39395565 28.05526434 -12.43212891 25.77514648 C-12.48686781 22.4891463 -12.50876757 19.20436334 -12.5234375 15.91796875 C-12.54610687 14.90010788 -12.56877625 13.88224701 -12.59213257 12.83354187 C-12.5779698 8.09199117 -12.56193946 5.76334359 -9.68603516 1.85668945 C-6.1258249 -0.60426301 -4.24334583 -0.75774033 0 0 Z " fill="#76E5F6" transform="translate(972,546)"/>
<path d="M0 0 C3.45396088 1.19634399 5.38284119 3.61785869 7.09765625 6.7265625 C7.80094839 10.22482355 7.752206 13.64088376 7.69140625 17.19921875 C7.69144653 18.19988876 7.69148682 19.20055878 7.69152832 20.23155212 C7.68618203 22.34038599 7.66863763 24.44921995 7.63964844 26.55786133 C7.5977476 29.78203298 7.59858689 33.0041172 7.60546875 36.22851562 C7.5949771 38.28126448 7.58203914 40.33400261 7.56640625 42.38671875 C7.56620483 43.34828384 7.56600342 44.30984894 7.5657959 45.30055237 C7.47868094 50.23453987 7.35016426 53.74364386 4.09765625 57.7265625 C1.57465709 59.64056186 0.29006946 59.73057111 -2.90234375 59.6640625 C-6.88602126 58.41916328 -7.77654482 57.33507807 -9.90234375 53.7265625 C-10.49636602 50.0380591 -10.46281391 46.38970687 -10.43359375 42.66015625 C-10.43742065 41.58911148 -10.44124756 40.51806671 -10.44519043 39.41456604 C-10.44790818 37.15437884 -10.4405567 34.89416012 -10.42382812 32.6340332 C-10.40239678 29.17262825 -10.42364658 25.71329406 -10.44921875 22.25195312 C-10.44657586 20.05468292 -10.4414517 17.857414 -10.43359375 15.66015625 C-10.44169067 14.62467148 -10.4497876 13.58918671 -10.45812988 12.52232361 C-10.36517799 5.41139279 -10.36517799 5.41139279 -8.11523438 2.08227539 C-5.46255329 0.45712777 -3.08609125 0.15951963 0 0 Z " fill="#7A71F1" transform="translate(574.90234375,545.2734375)"/>
<path d="M0 0 C0.66 0 1.32 0 2 0 C3.7588688 6.95804071 5.32239463 13.77435046 5.79418945 20.94726562 C5.93104105 22.97714985 6.08615189 25.00588805 6.25976562 27.03295898 C6.87085463 34.68750821 7.06036645 42.27022793 6.9921875 49.94921875 C6.98434235 50.90342712 6.97649719 51.8576355 6.96841431 52.84075928 C6.93181365 56.80181892 6.88913171 60.76261646 6.82861328 64.72338867 C6.78641476 67.65286694 6.7629108 70.58202086 6.7421875 73.51171875 C6.71425613 74.85383675 6.71425613 74.85383675 6.6857605 76.22306824 C6.65519386 81.06870956 6.65519386 81.06870956 8.31689453 85.54614258 C10.70361503 87.60777887 12.91951756 87.72617934 16 88 C16 88.66 16 89.32 16 90 C12.20161286 89.78086228 9.75123013 89.63575233 6.79711914 87.13574219 C4.13538292 82.49135419 4.45439509 78.28089555 4.49609375 73.015625 C4.48667252 71.92779724 4.47725128 70.83996948 4.46754456 69.71917725 C4.43889814 66.22926243 4.43581003 62.74002255 4.4375 59.25 C4.41861308 41.60206293 3.51186241 24.47924447 1 7 C0.8421553 5.88582703 0.8421553 5.88582703 0.68112183 4.74914551 C0.45629595 3.16578095 0.22858443 1.58282632 0 0 Z " fill="#89E3E7" transform="translate(955,407)"/>
<path d="M0 0 C0.33 0 0.66 0 1 0 C2.29228429 10.84595746 2.00700273 21.14070026 1 32 C0.81037944 34.24982228 0.62280907 36.4998185 0.4375 38.75 C0.29166667 40.5 0.14583333 42.25 0 44 C0.66 44.33 1.32 44.66 2 45 C1.67 45.66 1.34 46.32 1 47 C0.95364101 49.20784668 0.96217543 51.41699062 1 53.625 C1.04320379 58.87426071 0.82845754 63.82214038 0 69 C-0.33 69 -0.66 69 -1 69 C-1.02327012 61.33241584 -1.04098938 53.66483539 -1.05181217 45.99722385 C-1.05700911 42.43604336 -1.06404815 38.8748872 -1.07543945 35.3137207 C-1.08848122 31.21044697 -1.09325457 27.10719842 -1.09765625 23.00390625 C-1.10281754 21.73793106 -1.10797882 20.47195587 -1.11329651 19.1676178 C-1.11370408 12.68924938 -0.87488736 6.42088615 0 0 Z " fill="#8569D8" transform="translate(566,422)"/>
<path d="M0 0 C0 0.66 0 1.32 0 2 C-1.32 2 -2.64 2 -4 2 C-4 2.66 -4 3.32 -4 4 C-3.19535309 3.98525131 -2.39070618 3.97050262 -1.56167603 3.95530701 C6.05808174 3.8166884 13.67790827 3.68375109 21.29787254 3.5570364 C25.21443159 3.49171058 29.13092918 3.42426478 33.04736328 3.35180664 C36.83390557 3.28183244 40.6205075 3.21764568 44.40721512 3.15730476 C45.84476852 3.1334122 47.2822901 3.10750894 48.71976852 3.07946587 C56.542646 2.92823936 64.23047368 2.94709468 72 4 C72 4.33 72 4.66 72 5 C44.61 5 17.22 5 -11 5 C-11 4.34 -11 3.68 -11 3 C-9.54293274 2.49632243 -8.08429904 1.99717444 -6.625 1.5 C-5.81289063 1.2215625 -5.00078125 0.943125 -4.1640625 0.65625 C-2 0 -2 0 0 0 Z " fill="#7698EF" transform="translate(639,700)"/>
<path d="M0 0 C0 3 0 3 -1.68066406 5.00537109 C-2.45120117 5.75383301 -3.22173828 6.50229492 -4.015625 7.2734375 C-4.85480469 8.0984375 -5.69398438 8.9234375 -6.55859375 9.7734375 C-7.44675781 10.63195312 -8.33492187 11.49046875 -9.25 12.375 C-10.98662031 14.06801241 -12.72106781 15.76325702 -14.453125 17.4609375 C-15.22817383 18.21165527 -16.00322266 18.96237305 -16.80175781 19.73583984 C-19.08664729 22.00567518 -19.08664729 22.00567518 -21.15917969 24.78369141 C-21.76665039 25.51507324 -22.37412109 26.24645508 -23 27 C-23.66 27 -24.32 27 -25 27 C-23.34703574 22.95072661 -20.50872751 20.02101103 -17.5625 16.875 C-17.03624023 16.30821533 -16.50998047 15.74143066 -15.96777344 15.1574707 C-10.9193634 9.7888257 -5.5526334 4.84215865 0 0 Z " fill="#1E203D" transform="translate(647,307)"/>
<path d="M0 0 C0 3 0 3 -2.38671875 5.4609375 C-3.48057419 6.43949878 -4.58135364 7.41035388 -5.6875 8.375 C-10.70588127 12.8672324 -15.56920229 17.46763283 -20.3125 22.25 C-20.88121826 22.82282715 -21.44993652 23.3956543 -22.03588867 23.98583984 C-23.35936443 25.32181089 -24.68001909 26.66057583 -26 28 C-26.66 27.67 -27.32 27.34 -28 27 C-27.25556641 26.27296875 -27.25556641 26.27296875 -26.49609375 25.53125 C-23.02303478 22.10432274 -19.65522562 18.66110345 -16.5 14.9375 C-11.6193498 9.26569418 -5.88386181 4.59676704 0 0 Z " fill="#B38CE9" transform="translate(640,290)"/>
<path d="M0 0 C0 3 0 3 -1.2421875 4.60546875 C-1.78101563 5.12753906 -2.31984375 5.64960938 -2.875 6.1875 C-3.40867187 6.71730469 -3.94234375 7.24710937 -4.4921875 7.79296875 C-6 9 -6 9 -8 9 C-8.22429688 9.55171875 -8.44859375 10.1034375 -8.6796875 10.671875 C-10.40385183 13.71211744 -12.62515822 15.81425673 -15.125 18.25 C-16.03507813 19.14203125 -16.94515625 20.0340625 -17.8828125 20.953125 C-18.58148437 21.62859375 -19.28015625 22.3040625 -20 23 C-20.66 22.67 -21.32 22.34 -22 22 C-15.04822797 14.17421407 -7.88450894 6.89322639 0 0 Z " fill="#9E8BE0" transform="translate(673,331)"/>
<path d="M0 0 C0.66 0.33 1.32 0.66 2 1 C-2.16704183 5.85743929 -6.41844996 10.53019508 -11 15 C-11.66 14.67 -12.32 14.34 -13 14 C-11.02108364 11.85393535 -9.04187901 9.70813786 -7.0625 7.5625 C-6.49853516 6.95083984 -5.93457031 6.33917969 -5.35351562 5.70898438 C-4.81533203 5.12568359 -4.27714844 4.54238281 -3.72265625 3.94140625 C-3.22515869 3.40201416 -2.72766113 2.86262207 -2.21508789 2.30688477 C-1.48918929 1.52614632 -0.75381738 0.75381738 0 0 Z " fill="#1E2443" transform="translate(678,350)"/>
<path d="M0 0 C0 6.10260373 -5.85632048 11.44436069 -9.51171875 16.046875 C-11.04285166 17.93037595 -11.04285166 17.93037595 -12 20 C-12.66 19.67 -13.32 19.34 -14 19 C-12.60784291 16.95574318 -11.21141633 14.91462445 -9.8125 12.875 C-9.42513672 12.30523437 -9.03777344 11.73546875 -8.63867188 11.1484375 C-5.95343625 7.24264023 -3.08177287 3.60178783 0 0 Z " fill="#A27DDB" transform="translate(610,320)"/>
<path d="M0 0 C0 0.66 0 1.32 0 2 C-1.32 2 -2.64 2 -4 2 C-4 2.66 -4 3.32 -4 4 C-0.7 4 2.6 4 6 4 C6 4.33 6 4.66 6 5 C0.39 5 -5.22 5 -11 5 C-11 4.34 -11 3.68 -11 3 C-9.54293274 2.49632243 -8.08429904 1.99717444 -6.625 1.5 C-5.81289063 1.2215625 -5.00078125 0.943125 -4.1640625 0.65625 C-2 0 -2 0 0 0 Z " fill="#606FD6" transform="translate(639,700)"/>
<path d="M0 0 C0 3 0 3 -1.96875 5.26171875 C-2.8040625 6.06222656 -3.639375 6.86273437 -4.5 7.6875 C-5.3353125 8.49574219 -6.170625 9.30398438 -7.03125 10.13671875 C-7.6809375 10.75160156 -8.330625 11.36648438 -9 12 C-9.66 11.67 -10.32 11.34 -11 11 C-9.92173635 9.72486237 -8.83714481 8.45507431 -7.75 7.1875 C-7.14671875 6.47980469 -6.5434375 5.77210938 -5.921875 5.04296875 C-4.07629602 3.08110329 -2.20054668 1.54330375 0 0 Z " fill="#7AC2EC" transform="translate(746,572)"/>
<path d="M0 0 C0.33 0 0.66 0 1 0 C1.98815501 4.34788204 1.94264476 6.11471048 0 10 C0 11.32 0 12.64 0 14 C0 17.58453376 -0.07253036 19.10879553 -2 22 C-2.33 22 -2.66 22 -3 22 C-2.55761615 14.46783285 -1.86094772 7.3197277 0 0 Z " fill="#8466CC" transform="translate(570,400)"/>
<path d="M0 0 C2.97 0 5.94 0 9 0 C5.71195019 2.91227269 3.40114397 4.49701212 -1 5 C-0.34 4.67 0.32 4.34 1 4 C0.67 2.68 0.34 1.36 0 0 Z " fill="#78E6EE" transform="translate(804,558)"/>
<path d="M0 0 C0 3 0 3 -2.1875 5.26171875 C-3.115625 6.06222656 -4.04375 6.86273438 -5 7.6875 C-5.928125 8.49574219 -6.85625 9.30398438 -7.8125 10.13671875 C-8.8953125 11.05904297 -8.8953125 11.05904297 -10 12 C-10 9 -10 9 -7.8125 6.73828125 C-6.884375 5.93777344 -5.95625 5.13726562 -5 4.3125 C-4.071875 3.50425781 -3.14375 2.69601562 -2.1875 1.86328125 C-1.1046875 0.94095703 -1.1046875 0.94095703 0 0 Z " fill="#B58FE9" transform="translate(640,290)"/>
<path d="M0 0 C0.33 0.66 0.66 1.32 1 2 C0.04060332 3.69036558 -0.96642853 5.35394174 -2 7 C-2.33 7.886875 -2.66 8.77375 -3 9.6875 C-4 12 -4 12 -7 14 C-5.53967505 8.68972746 -3.01679014 4.53669968 0 0 Z " fill="#A680E6" transform="translate(595,341)"/>
<path d="M0 0 C-1.875 3.875 -1.875 3.875 -3 5 C-3.04346799 6.99952758 -3.039992 9.00039988 -3 11 C-3 11.99 -3 12.98 -3 14 C-5 12 -5 12 -5.3125 8.125 C-5.2447898 5.26033786 -5.04049306 4.07362374 -3.625 1.5 C-2 0 -2 0 0 0 Z " fill="#716AE3" transform="translate(490,652)"/>
<path d="M0 0 C2 3 2 3 1.7578125 5.69921875 C1.44457031 7.17841797 1.44457031 7.17841797 1.125 8.6875 C0.81949219 10.17830078 0.81949219 10.17830078 0.5078125 11.69921875 C0.34023438 12.45847656 0.17265625 13.21773437 0 14 C-0.33 14 -0.66 14 -1 14 C-1.02705729 12.22925083 -1.04642195 10.45838289 -1.0625 8.6875 C-1.07410156 7.70136719 -1.08570313 6.71523438 -1.09765625 5.69921875 C-1 3 -1 3 0 0 Z " fill="#8E6DDF" transform="translate(486,503)"/>
<path d="M0 0 C0.66 0.33 1.32 0.66 2 1 C0.35 2.98 -1.3 4.96 -3 7 C-3.99 6.67 -4.98 6.34 -6 6 C-4.02 4.02 -2.04 2.04 0 0 Z " fill="#A683D7" transform="translate(627,301)"/>
<path d="M0 0 C-0.33 0.99 -0.66 1.98 -1 3 C-4.80269732 4.6900877 -7.05272168 5.19873962 -11 4 C-9.5437455 3.32880451 -8.08492133 2.66318193 -6.625 2 C-5.81289063 1.62875 -5.00078125 1.2575 -4.1640625 0.875 C-2 0 -2 0 0 0 Z " fill="#AE96DD" transform="translate(689,262)"/>
</svg>
