<?xml version="1.0" encoding="UTF-8"?>
<svg version="1.1" xmlns="http://www.w3.org/2000/svg" width="1536" height="1024">
<path d="M0 0 C506.88 0 1013.76 0 1536 0 C1536 337.92 1536 675.84 1536 1024 C1029.12 1024 522.24 1024 0 1024 C0 686.08 0 348.16 0 0 Z " fill="#121825" transform="translate(0,0)"/>
<path d="M0 0 C1.35262248 1.10173282 2.68463739 2.22904015 4 3.375 C5.2065625 4.41914062 5.2065625 4.41914062 6.4375 5.484375 C29.95950976 26.28127388 29.95950976 26.28127388 31.0546875 43.58984375 C30.8550428 53.75746324 25.33508049 63.77739135 18.484375 71.04296875 C15.72543453 73.58513532 12.90429582 76.00054193 10 78.375 C9.08734375 79.12394531 8.1746875 79.87289062 7.234375 80.64453125 C5.41023766 82.13250614 3.58209415 83.61558313 1.75 85.09375 C-1.08099578 87.44218968 -3.79383598 89.88409902 -6.5 92.375 C-10.87170463 96.39474536 -15.37786886 100.17488195 -19.99609375 103.90625 C-23.48717154 106.77538025 -26.90356069 109.72168791 -30.3125 112.6875 C-30.94607422 113.23792969 -31.57964844 113.78835938 -32.23242188 114.35546875 C-34.77703694 116.56750494 -37.32041199 118.78091833 -39.85888672 121 C-66.88436049 144.60480235 -66.88436049 144.60480235 -87.35546875 143.82421875 C-101.65956527 142.78861493 -111.50679041 133.58733762 -120.515625 123.3203125 C-128.0706012 114.36362688 -132.87385367 103.97954135 -132.30859375 92.0234375 C-130.15186875 73.51382296 -115.50106257 62.76901911 -101.8828125 51.7890625 C-98.07280219 48.59856606 -94.46475671 45.21502858 -90.83862305 41.8190918 C-86.62935005 37.899296 -82.24265137 34.26241021 -77.7578125 30.66015625 C-73.62285613 27.23388221 -69.70872119 23.58101559 -65.76953125 19.93359375 C-62.23990802 16.67279937 -58.64664282 13.50357733 -55 10.375 C-54.07445312 9.55902344 -53.14890625 8.74304688 -52.1953125 7.90234375 C-37.75486072 -4.66305661 -17.44716952 -12.5119144 0 0 Z " fill="#9DABF7" transform="translate(640,552.625)"/>
<path d="M0 0 C0.9089502 0.27473145 1.81790039 0.54946289 2.75439453 0.83251953 C15.79299047 4.83770113 28.06839488 9.3848472 40 16 C41.15113281 16.61359375 42.30226563 17.2271875 43.48828125 17.859375 C57.76307261 25.68383595 70.82553281 35.06572674 82.43945312 46.47460938 C84.01948394 48.019045 85.62449851 49.53362975 87.234375 51.046875 C113.34023862 75.93097796 131.04222517 109.47131839 137 145 C137.16773926 145.83192871 137.33547852 146.66385742 137.50830078 147.52099609 C139.18118718 156.3070134 139.39765343 164.96728819 139.375 173.875 C139.37478851 174.64390564 139.37457703 175.41281128 139.37435913 176.20501709 C139.33893953 189.14844896 138.258984 201.42776187 135 214 C134.80212891 214.77456543 134.60425781 215.54913086 134.40039062 216.34716797 C133.10577392 221.2920591 131.62501878 226.15441956 130 231 C129.46632813 232.61841797 129.46632813 232.61841797 128.921875 234.26953125 C121.86659145 254.01935668 110.17168523 271.81635944 97 288 C93.5356477 287.42762875 92.0711861 286.34161554 89.75 283.75 C86.23027512 280.04703565 82.43255935 277.49835164 78 275 C79.61487169 271.2963269 81.95346272 268.4937023 84.5 265.375 C109.15714037 234.14654178 118.65726035 193.32329367 114.3125 154.1875 C110.04612277 121.19153694 93.87852171 91.72226861 71 68 C70.18402344 67.10925781 69.36804688 66.21851563 68.52734375 65.30078125 C41.23707819 36.40768711 -1.51716759 17.36568741 -41.16503906 15.79174805 C-45.63104395 15.67240324 -50.09522256 15.66553277 -54.5625 15.6875 C-55.35302765 15.68965515 -56.1435553 15.6918103 -56.95803833 15.69403076 C-104.5376182 15.90170487 -147.6953746 33.84590671 -181.49560547 67.43896484 C-185.83658474 71.94338248 -189.91717927 76.81200909 -193.33984375 82.05078125 C-194.86868865 84.28999852 -196.15226395 85.82904283 -198.87890625 86.37890625 C-206.16302142 86.15738575 -212.0653491 81.84597512 -218 78 C-215.86910824 71.99763657 -212.04874397 67.83403295 -208 63 C-207.0872135 61.88674014 -206.17445423 60.77345795 -205.26171875 59.66015625 C-173.55263974 21.39370586 -126.38690328 -1.33092445 -77.27734375 -6.53125 C-51.45864352 -8.74392225 -24.89252703 -7.55733044 0 0 Z " fill="#B8E0F3" transform="translate(871,251)"/>
<path d="M0 0 C3.32094993 1.25221506 6.28838916 2.66618952 9.30078125 4.5390625 C10.10515625 5.03317627 10.90953125 5.52729004 11.73828125 6.03637695 C12.58777344 6.56062256 13.43726563 7.08486816 14.3125 7.625 C21.22001493 11.83584023 28.1661165 15.73152389 35.4465332 19.25439453 C41.49143308 22.19011093 47.25152408 25.5160752 53 29 C52.74831055 29.55349121 52.49662109 30.10698242 52.23730469 30.67724609 C51.07256668 33.24212516 49.91127296 35.80855035 48.75 38.375 C48.35425781 39.24511719 47.95851563 40.11523438 47.55078125 41.01171875 C46.35073762 43.66755301 45.16918695 46.33044219 44 49 C43.63285889 49.83805176 43.26571777 50.67610352 42.88745117 51.53955078 C40.45788588 57.31819058 38.94030709 62.96726845 37.8125 69.125 C37.64814453 69.96675781 37.48378906 70.80851562 37.31445312 71.67578125 C32.3826434 97.43300612 33.71221024 125.36139746 43 150 C43.29036133 150.79003418 43.58072266 151.58006836 43.87988281 152.39404297 C48.00699134 163.53895028 52.61704204 173.95747948 59 184 C60.03060547 185.62808594 60.03060547 185.62808594 61.08203125 187.2890625 C66.22382537 195.05270839 72.05201955 201.80354912 78.52539062 208.46972656 C79.89798447 209.89413355 81.23944287 211.3483636 82.578125 212.8046875 C100.17108376 231.42300275 123.20899767 243.32647421 147 252 C148.09183594 252.40992188 149.18367187 252.81984375 150.30859375 253.2421875 C185.23354662 265.20850601 223.10803856 262.48720895 258.1784668 253.41137695 C260 253 260 253 262 253 C262.32613281 253.94101562 262.65226562 254.88203125 262.98828125 255.8515625 C263.42527344 257.09679687 263.86226562 258.34203125 264.3125 259.625 C264.74175781 260.85476563 265.17101562 262.08453125 265.61328125 263.3515625 C266.88649993 266.70138291 268.33657706 269.82925245 270 273 C261.43720325 276.1027138 252.73856903 277.96862435 243.8125 279.6875 C242.7085791 279.90172607 241.6046582 280.11595215 240.46728516 280.33666992 C228.58725467 282.56873496 217.07331895 283.20583174 205 283.1875 C204.2666745 283.18689575 203.533349 283.1862915 202.77780151 283.18566895 C182.00568656 283.13919572 162.89467505 280.22772921 142.9375 274.5 C142.27161865 274.31074951 141.6057373 274.12149902 140.91967773 273.92651367 C135.73488525 272.38085367 130.9035311 270.2722352 126 268 C125.13334717 267.6071582 124.26669434 267.21431641 123.3737793 266.80957031 C110.87771089 261.12098723 99.04472498 255.18816476 88 247 C87.42040527 246.57299805 86.84081055 246.14599609 86.24365234 245.70605469 C79.57882366 240.76326565 73.13284982 235.59553065 67 230 C66.75507812 230.57234375 66.51015625 231.1446875 66.2578125 231.734375 C64.78889901 234.38024402 63.04651756 236.14853139 60.875 238.25 C60.15054688 238.95640625 59.42609375 239.6628125 58.6796875 240.390625 C58.12539063 240.92171875 57.57109375 241.4528125 57 242 C52.54650074 240.58985802 50.13232907 238.42521808 46.9375 235.0625 C44.09541297 232.08903761 41.37471033 229.36151785 38 227 C38.54619452 223.23456806 39.97481823 221.81182464 42.875 219.4375 C45.36338916 217.37608537 47.75309443 215.32462871 50 213 C48.60399043 208.95011806 46.68360668 206.13346327 44 202.8125 C31.97684638 187.29241608 17.71731681 163.3858987 16.3125 143.4375 C16.24675781 142.59058594 16.18101562 141.74367188 16.11328125 140.87109375 C16.07589844 140.25363281 16.03851562 139.63617188 16 139 C15.2575 139.165 14.515 139.33 13.75 139.5 C8.49590599 140.20054587 3.29248251 140.07707499 -2 140 C-2.19335938 138.99839844 -2.38671875 137.99679687 -2.5859375 136.96484375 C-2.84880049 135.62236492 -3.11183026 134.27991873 -3.375 132.9375 C-3.50132812 132.28072266 -3.62765625 131.62394531 -3.7578125 130.94726562 C-4.62384507 126.55215035 -5.71626553 122.29213829 -7 118 C-0.94192336 117.23072043 4.89738302 116.94009701 11 117 C10.98428955 116.13536133 10.9685791 115.27072266 10.95239258 114.37988281 C10.54377065 88.41428716 11.5755244 63.29052448 22 39 C21.29496338 38.74331543 20.58992676 38.48663086 19.86352539 38.22216797 C14.96623406 36.13197781 10.62912323 33.10836315 6.16137695 30.23291016 C4.44332538 29.12874389 2.71911495 28.03471714 0.99414062 26.94140625 C-0.09833984 26.24144531 -1.19082031 25.54148437 -2.31640625 24.8203125 C-3.80829468 23.86535889 -3.80829468 23.86535889 -5.33032227 22.89111328 C-7.8445597 21.11010888 -9.90146326 19.2471195 -12 17 C-11.55269531 16.52691406 -11.10539063 16.05382812 -10.64453125 15.56640625 C-6.22545994 10.73275256 -2.93720153 5.84733207 0 0 Z " fill="#ACB9F4" transform="translate(612,322)"/>
<path d="M0 0 C7.35062237 4.6349395 17.28050604 12.47033978 20.44921875 20.82421875 C21.32423942 26.94936341 20.98943545 30.82124131 17.49609375 35.9140625 C11.82536559 42.77257832 4.43374475 48.12576242 -2.453125 53.6953125 C-5.29359487 56.05772293 -8.02004024 58.51000903 -10.73828125 61.01171875 C-15.23073884 65.14580366 -19.8719923 69.02902087 -24.62109375 72.86328125 C-27.05063613 74.85768171 -29.4026157 76.90878856 -31.73828125 79.01171875 C-35.86496562 82.72647027 -40.14855323 86.21675642 -44.46875 89.703125 C-47.23594747 92.00977339 -49.85896408 94.42497566 -52.48828125 96.88671875 C-58.95850451 102.70687249 -63.75344743 104.31756417 -72.4921875 104.5078125 C-78.75791633 103.3758814 -82.89975211 98.61010773 -86.98828125 94.07421875 C-87.70951172 93.30561523 -87.70951172 93.30561523 -88.4453125 92.52148438 C-92.77832486 87.77206832 -94.52245193 83.97768571 -94.61328125 77.57421875 C-94.64164063 76.66800781 -94.67 75.76179687 -94.69921875 74.828125 C-93.72494293 68.87513463 -89.52508002 65.06170352 -85.17578125 61.19921875 C-84.20253906 60.33425781 -83.22929688 59.46929688 -82.2265625 58.578125 C-78.58464578 55.45036123 -74.85800896 52.43873568 -71.12109375 49.42578125 C-67.31029323 46.23462309 -63.70144352 42.85041872 -60.07470703 39.45361328 C-56.7274634 36.33632539 -53.30832219 33.37605393 -49.73828125 30.51171875 C-43.78638724 25.73282575 -38.25615986 20.54580486 -32.67626953 15.34521484 C-10.92624825 -4.82432951 -10.92624825 -4.82432951 0 0 Z " fill="#131928" transform="translate(626.23828125,569.98828125)"/>
<path d="M0 0 C5.39265194 3.61140033 9.43254642 7.07976815 12.828125 12.64453125 C13.41207031 13.58554687 13.99601563 14.5265625 14.59765625 15.49609375 C18.61735291 22.64960351 17.91389789 32.05914606 17.015625 40.01953125 C14.0954484 50.06235262 7.38022986 57.65668911 -1.546875 62.89453125 C-10.61816017 67.79885556 -21.1293052 68.5220123 -31.12109375 66.33203125 C-40.24150023 63.27917552 -47.4076559 57.82693799 -52.984375 50.01953125 C-53.71720703 49.01212891 -53.71720703 49.01212891 -54.46484375 47.984375 C-59.74178582 39.36684775 -59.28203544 28.6444293 -57.390625 18.98828125 C-54.22633425 9.7298009 -47.2402009 2.8405826 -38.671875 -1.54296875 C-25.7908202 -7.48677574 -12.25055915 -6.79107083 0 0 Z " fill="#A7DEF8" transform="translate(944.984375,536.98046875)"/>
<path d="M0 0 C10.81364859 11.84351988 12.38919967 25.33948228 11.9765625 40.7890625 C11.38027906 52.3758364 7.31403053 62.68508085 -1.1875 70.6875 C-7.58720314 75.91710816 -13.40115593 77.4148886 -21.6328125 77.1640625 C-29.18132746 76.3683501 -36.23020456 73.62170253 -41.19140625 67.7109375 C-48.88134393 57.33995683 -50.55353288 47.23304414 -50.5625 34.5625 C-50.57474609 33.66337891 -50.58699219 32.76425781 -50.59960938 31.83789062 C-50.62368395 20.73950952 -48.35355634 10.069193 -40.375 1.875 C-27.55663979 -8.12531604 -13.87295134 -8.73482121 0 0 Z " fill="#A8D9F5" transform="translate(855.375,432.125)"/>
<path d="M0 0 C7.87406499 6.26020704 12.110842 15.59425758 13.47924805 25.45263672 C13.66730583 28.96288301 13.69416632 32.4230769 13.625 35.9375 C13.61098145 37.1637207 13.59696289 38.38994141 13.58251953 39.65332031 C13.34327945 48.60161349 12.41826807 56.06586875 8 64 C7.56558594 64.80050781 7.13117187 65.60101563 6.68359375 66.42578125 C2.52164672 72.91177848 -3.88735396 75.62911799 -11 78 C-20.05468694 78.82422378 -27.52113985 78.49876838 -35 73 C-43.15034041 65.91752693 -47.29470247 55.2404066 -48.20678711 44.58398438 C-48.3036653 41.96902804 -48.32889586 39.36668421 -48.3125 36.75 C-48.30758545 35.82413086 -48.3026709 34.89826172 -48.29760742 33.94433594 C-48.1019103 22.48350981 -45.97301521 11.83963572 -38.25 2.99609375 C-27.40163485 -7.48045244 -12.56396632 -7.36508371 0 0 Z " fill="#ADB8F2" transform="translate(743,332)"/>
<path d="M0 0 C7.00056843 5.68539315 11.66523905 12.36933793 13.40234375 21.2734375 C15.0027225 36.78949052 16.19161642 53.39079588 6.9375 66.6875 C1.88457389 72.79153605 -3.82454767 77.6962581 -11.94921875 78.53515625 C-20.70577168 78.79303169 -28.49158239 77.74183471 -35.5 72.1875 C-39.71793197 68.13114204 -42.06422059 63.65471122 -44.1875 58.25 C-44.5071875 57.486875 -44.826875 56.72375 -45.15625 55.9375 C-49.72387264 42.7421457 -49.09183846 24.90215385 -43.1875 12.25 C-39.56867804 5.2050744 -34.67865988 -0.49916813 -27.21484375 -3.55859375 C-18.01622487 -6.21028309 -7.87823998 -5.6357447 0 0 Z " fill="#AFE5F5" transform="translate(871.1875,331.75)"/>
<path d="M0 0 C6.58928857 5.42304281 11.52858777 13.52882681 12.5 22.07421875 C12.99510409 31.92988452 9.5167149 40.36718776 3.234375 47.87109375 C-3.87216831 55.04758335 -12.08179258 58.9677553 -22.125 59.25 C-31.89908543 58.97912465 -40.348914 56.46555414 -47.75 49.875 C-55.57811548 40.82079414 -58.30484599 33.60452756 -58.12890625 21.640625 C-57.58011828 16.1866909 -55.82908223 12.35069512 -52.75 7.875 C-52.31558594 7.23046875 -51.88117187 6.5859375 -51.43359375 5.921875 C-46.59458465 -0.41984632 -38.93557342 -5.34652824 -31.0703125 -6.875 C-19.00591918 -8.17486729 -9.98188571 -7.02552022 0 0 Z " fill="#B599F1" transform="translate(591.75,284.125)"/>
<path d="M0 0 C6.19292613 5.30537311 11.20679635 13.16539168 11.86328125 21.44140625 C12.10639417 33.09803112 10.01971881 40.90519395 1.90234375 49.4609375 C-5.0720704 55.51420261 -14.54728115 59.02606474 -23.7890625 58.7421875 C-35.84008683 57.32227829 -43.8872443 52.34282389 -51.3125 42.9375 C-56.56838632 34.79993807 -56.14564179 24.77189874 -55.375 15.4375 C-54.53243173 12.29223096 -53.32963505 10.02344574 -51.375 7.4375 C-50.93929687 6.82648438 -50.50359375 6.21546875 -50.0546875 5.5859375 C-45.2392698 -0.59779562 -37.94176016 -5.66705683 -30.1875 -7.1875 C-18.86544891 -8.30114437 -9.45711107 -6.92573397 0 0 Z " fill="#A89DF5" transform="translate(588.375,433.5625)"/>
<path d="M0 0 C2.29416573 1.12012792 4.58529094 2.24582841 6.875 3.375 C7.52597656 3.69210937 8.17695312 4.00921875 8.84765625 4.3359375 C11.58177041 5.68890121 13.82772518 6.82772518 16 9 C18.06874034 9.6425235 18.06874034 9.6425235 20 10 C20 10.66 20 11.32 20 12 C20.72574219 12.24363281 21.45148437 12.48726563 22.19921875 12.73828125 C25.34439883 14.15514759 27.30204281 15.83115811 29.8125 18.1875 C32.7676206 20.94242097 35.72735681 23.59505714 38.875 26.125 C55.83807993 41.03194903 68.15811617 64.1524754 73 86 C73.16846436 86.67998047 73.33692871 87.35996094 73.51049805 88.06054688 C75.1871523 95.37957211 75.3439528 102.51276031 75.3125 110 C75.31121094 111.27061279 75.30992187 112.54122559 75.30859375 113.8503418 C75.20745386 123.81578115 74.184325 133.2875549 72 143 C71.34 143 70.68 143 70 143 C69.81824219 144.01320313 69.81824219 144.01320313 69.6328125 145.046875 C69.46523438 145.93890625 69.29765625 146.8309375 69.125 147.75 C68.96257812 148.63171875 68.80015625 149.5134375 68.6328125 150.421875 C68.03203736 152.86947744 67.22002883 154.80599857 66 157 C65.34 157 64.68 157 64 157 C64.11470137 155.24929483 64.24219028 153.49942464 64.375 151.75 C64.44460938 150.77546875 64.51421875 149.8009375 64.5859375 148.796875 C64.98465249 146.10366811 65.63507063 144.33036721 67 142 C66.67 141.67 66.34 141.34 66 141 C65.87853362 139.58941058 65.82031339 138.17327708 65.7890625 136.7578125 C65.76279785 135.86562012 65.7365332 134.97342773 65.70947266 134.05419922 C65.66765869 132.60424561 65.66765869 132.60424561 65.625 131.125 C65.00493418 114.5131931 63.33739307 96.54361985 56.078125 81.375 C54.84236064 78.65273649 53.87512292 75.87974765 52.875 73.0625 C45.64088709 54.16117451 33.78224056 37.65765975 20 23 C18.9696089 21.87007865 17.94107949 20.73845779 16.9140625 19.60546875 C15.83874735 18.42429188 14.76322813 17.24330077 13.6875 16.0625 C12.93158569 15.2279126 12.93158569 15.2279126 12.16040039 14.37646484 C10.09566076 12.12784781 8.09739801 10.07252356 5.64453125 8.24609375 C5.10183594 7.83488281 4.55914063 7.42367188 4 7 C4 6.34 4 5.68 4 5 C2.68 4.34 1.36 3.68 0 3 C0 2.01 0 1.02 0 0 Z " fill="#79A5AE" transform="translate(885,308)"/>
<path d="M0 0 C9.9 0 19.8 0 30 0 C30 26.4 30 52.8 30 80 C24.39 80 18.78 80 13 80 C13 58.55 13 37.1 13 15 C8.71 15 4.42 15 0 15 C0 10.05 0 5.1 0 0 Z " fill="#ABD0EF" transform="translate(771,329)"/>
<path d="M0 0 C9.57 0 19.14 0 29 0 C29 26.4 29 52.8 29 80 C23.39 80 17.78 80 12 80 C12 58.55 12 37.1 12 15 C8.04 15 4.08 15 0 15 C0 10.05 0 5.1 0 0 Z " fill="#A8E9F0" transform="translate(885,428)"/>
<path d="M0 0 C9.24 0 18.48 0 28 0 C28 26.07 28 52.14 28 79 C22.72 79 17.44 79 12 79 C12 57.22 12 35.44 12 13 C8.04 13 4.08 13 0 13 C0 8.71 0 4.42 0 0 Z " fill="#AAC9F8" transform="translate(752,429)"/>
<path d="M0 0 C4.07877339 0.05826819 6.55823288 0.5276104 9.75 3.25 C14.42747336 9.48663115 15.09175262 16.53320041 15 24.0625 C14.99395752 24.85567627 14.98791504 25.64885254 14.98168945 26.46606445 C14.88423543 32.23711475 14.43707751 37.70068216 12.75 43.25 C12.55535156 43.91386719 12.36070312 44.57773437 12.16015625 45.26171875 C10.49769002 49.9540051 8.16444433 52.0860567 3.75 54.25 C-0.17852437 54.90475406 -1.87594235 54.44069606 -5.4375 52.625 C-11.04598784 47.8889436 -12.85602733 40.91954492 -13.45849609 33.77880859 C-13.55331063 31.12048983 -13.57208874 28.47241744 -13.5625 25.8125 C-13.57861328 24.92240234 -13.59472656 24.03230469 -13.61132812 23.11523438 C-13.61680072 15.62325331 -12.66656543 9.01178906 -7.625 3.25 C-6.449375 2.26 -6.449375 2.26 -5.25 1.25 C-3.68966377 -0.31033623 -2.16052864 0.04292441 0 0 Z " fill="#161E2B" transform="translate(835.25,440.75)"/>
<path d="M0 0 C9.24 0 18.48 0 28 0 C28 23.76 28 47.52 28 72 C20 72 20 72 17.72265625 70.3203125 C17.17480469 69.59585938 16.62695312 68.87140625 16.0625 68.125 C15.49660156 67.40570313 14.93070313 66.68640625 14.34765625 65.9453125 C12.1822517 62.81959811 11.87680986 61.04415294 11.88647461 57.27490234 C11.88655014 56.29403656 11.88662567 55.31317078 11.88670349 54.30258179 C11.89186478 53.24108917 11.89702606 52.17959656 11.90234375 51.0859375 C11.9037587 50.00116119 11.90517365 48.91638489 11.90663147 47.79873657 C11.91224198 44.32413 11.92479628 40.84958719 11.9375 37.375 C11.94251365 35.02343843 11.94707679 32.67187585 11.95117188 30.3203125 C11.96221483 24.54685032 11.97948653 18.77343598 12 13 C8.04 13 4.08 13 0 13 C0 8.71 0 4.42 0 0 Z " fill="#A4A4F7" transform="translate(698,429)"/>
<path d="M0 0 C4.3737349 2.27097773 7.00090433 4.47573086 9 9 C10.23061296 15.42171977 10.25480796 21.8519528 10.3125 28.375 C10.34150391 29.46039063 10.37050781 30.54578125 10.40039062 31.6640625 C10.46430933 39.80632167 9.23890841 46.18951952 3.875 52.5 C0.74419701 55.00464239 -1.85777406 55.51720205 -5.8984375 55.48046875 C-9.92904281 54.55897348 -11.88063458 51.34342136 -14 48 C-19.26767173 37.71549805 -18.18205608 21.3109014 -15.8359375 10.27734375 C-12.9995593 2.55020127 -8.04788637 -0.6706572 0 0 Z " fill="#151D2A" transform="translate(858,341)"/>
<path d="M0 0 C4.77561709 2.48332088 7.55757357 5.20560737 10 10 C11.21585884 16.25253835 11.18264398 22.7156787 11.1875 29.0625 C11.19974609 29.90876953 11.21199219 30.75503906 11.22460938 31.62695312 C11.24119385 38.79697444 10.64328137 46.19589829 6 52 C1.65446832 54.86410043 -1.83561023 55.82999121 -7 55 C-11.76830266 52.05880397 -13.77449539 47.83919002 -15.40234375 42.65991211 C-16.53073399 37.63793023 -16.43023157 32.62426278 -16.375 27.5 C-16.38660156 26.42363281 -16.39820313 25.34726562 -16.41015625 24.23828125 C-16.38322081 16.86694822 -15.87800563 9.90934905 -11.38671875 3.80859375 C-7.57905507 0.73620306 -5.08409705 -1.08172278 0 0 Z " fill="#151B2A" transform="translate(728,341)"/>
<path d="M0 0 C1.65128931 1.31429149 3.290755 2.64869858 4.83984375 4.08203125 C19.73859151 17.31039499 39.74569799 29.00822973 58.5625 35.4375 C59.73167969 35.84226562 60.90085937 36.24703125 62.10546875 36.6640625 C62.72470215 36.87579102 63.34393555 37.08751953 63.98193359 37.30566406 C67.78868211 38.61541398 71.58018943 39.96864528 75.375 41.3125 C77.91639794 42.20909761 80.45820606 43.10452538 83 44 C83 44.99 83 45.98 83 47 C67.75049367 47.44753986 53.35439204 46.67979541 39 41 C38.13890625 40.67515625 37.2778125 40.3503125 36.390625 40.015625 C17.88065617 32.71169136 2.4857249 22.63829675 -12 9 C-12.85658203 8.20529297 -12.85658203 8.20529297 -13.73046875 7.39453125 C-14.86650691 6.30940797 -15.94322371 5.16245391 -17 4 C-17 3.34 -17 2.68 -17 2 C-5.98962423 -1.92120022 -5.98962423 -1.92120022 0 0 Z " fill="#84A5CD" transform="translate(725,510)"/>
<path d="M0 0 C3 1 3 1 4 2.875 C4.33 3.57625 4.66 4.2775 5 5 C5.515625 5.495 6.03125 5.99 6.5625 6.5 C8.26316011 8.27460185 8.58794182 9.61006256 9 12 C10.918125 12.2784375 10.918125 12.2784375 12.875 12.5625 C13.59429688 12.66691406 14.31359375 12.77132813 15.0546875 12.87890625 C17.08140667 13.1684297 17.08140667 13.1684297 19 12 C21.875 11.625 21.875 11.625 25 12 C26.32 13.65 27.64 15.3 29 17 C24.05 18.32 19.1 19.64 14 21 C12.2255394 18.77363942 10.45537533 16.54408033 8.6875 14.3125 C7.93823242 13.37374023 7.93823242 13.37374023 7.17382812 12.41601562 C0 3.34183568 0 3.34183568 0 0 Z " fill="#545D87" transform="translate(693,492)"/>
<path d="M0 0 C0.33 0.66 0.66 1.32 1 2 C0.175 2.2475 -0.65 2.495 -1.5 2.75 C-5.52373471 4.18704811 -9.21979024 6.02354515 -13 8 C-14.37562854 6.71034824 -15.70766393 5.37310707 -17 4 C-17 3.34 -17 2.68 -17 2 C-10.99723113 -0.13780702 -6.26163459 -1.73194148 0 0 Z " fill="#717CB4" transform="translate(725,510)"/>
<path d="M0 0 C3 1 3 1 4 2.875 C4.33 3.57625 4.66 4.2775 5 5 C5.515625 5.495 6.03125 5.99 6.5625 6.5 C8.26316011 8.27460185 8.58794182 9.61006256 9 12 C10.918125 12.2784375 10.918125 12.2784375 12.875 12.5625 C13.59429688 12.66691406 14.31359375 12.77132813 15.0546875 12.87890625 C17.08140667 13.1684297 17.08140667 13.1684297 19 12 C20.99960012 11.960008 23.00047242 11.95653201 25 12 C25.33 12.66 25.66 13.32 26 14 C23.43758606 14.30411728 20.88077438 14.56886039 18.3125 14.8125 C17.2306543 14.94688477 17.2306543 14.94688477 16.12695312 15.08398438 C12.1106908 15.43242723 10.37131991 15.29073124 7.15625 12.7734375 C5.38240102 10.49185639 3.68994015 8.2784097 2.1875 5.8125 C1.76855469 5.13832031 1.34960938 4.46414063 0.91796875 3.76953125 C0 2 0 2 0 0 Z " fill="#3C4464" transform="translate(693,492)"/>
<path d="M0 0 C-0.70125 0.556875 -1.4025 1.11375 -2.125 1.6875 C-5.11344261 4.09124732 -8.05940238 6.53810432 -11 9 C-11.99 8.34 -12.98 7.68 -14 7 C-12.78904348 3.36713045 -11.20640617 2.56993248 -7.921875 0.78515625 C-5.22544616 -0.31643358 -2.86858211 -0.27986167 0 0 Z " fill="#7C8AC7" transform="translate(727,512)"/>
<path d="M0 0 C4.55384615 -0.36923077 4.55384615 -0.36923077 6.8125 1.5 C7.204375 1.995 7.59625 2.49 8 3 C5.65147472 4.17426264 4.26225935 4.11508173 1.6484375 4.09765625 C0.79765625 4.09443359 -0.053125 4.09121094 -0.9296875 4.08789062 C-1.81914063 4.07951172 -2.70859375 4.07113281 -3.625 4.0625 C-4.5221875 4.05798828 -5.419375 4.05347656 -6.34375 4.04882812 C-8.56256648 4.03702591 -10.78125018 4.02056155 -13 4 C-13 3.67 -13 3.34 -13 3 C-8.71 3 -4.42 3 0 3 C0 2.01 0 1.02 0 0 Z " fill="#425469" transform="translate(808,554)"/>
<path d="M0 0 C5.61 0 11.22 0 17 0 C17.33 0.66 17.66 1.32 18 2 C16.51886719 2.07347656 16.51886719 2.07347656 15.0078125 2.1484375 C13.72648438 2.22320312 12.44515625 2.29796875 11.125 2.375 C9.21074219 2.47941406 9.21074219 2.47941406 7.2578125 2.5859375 C3.91938301 2.67241106 3.91938301 2.67241106 2 5 C1.34 3.35 0.68 1.7 0 0 Z " fill="#485175" transform="translate(703,506)"/>
<path d="M0 0 C0.33 0.99 0.66 1.98 1 3 C-0.26220093 5.04563599 -1.60287726 7.04402816 -3 9 C-3.69429379 10.3191582 -4.37530495 11.64649406 -5 13 C-5.99 13 -6.98 13 -8 13 C-8 9.45086418 -7.43877595 9.02411922 -5.125 6.5 C-3.18980185 4.36847741 -1.60997764 2.41496646 0 0 Z " fill="#AA94DC" transform="translate(609,328)"/>
<path d="M0 0 C-3 1 -3 1 -5.75 1.375 C-9.53047094 2.10201364 -12.5093378 3.39429539 -16 5 C-16.33 4.01 -16.66 3.02 -17 2 C-10.91708727 -0.1663492 -6.3552245 -1.5197276 0 0 Z " fill="#636F9F" transform="translate(725,510)"/>
<path d="M0 0 C0.33 0.99 0.66 1.98 1 3 C1.99 2.67 2.98 2.34 4 2 C2.77472971 6.05281712 1.30119506 9.44360764 -1 13 C-2.12758089 9.61725734 -1.81750262 8.23221777 -1.0625 4.8125 C-0.86785156 3.91144531 -0.67320312 3.01039063 -0.47265625 2.08203125 C-0.23869141 1.05142578 -0.23869141 1.05142578 0 0 Z " fill="#425B6A" transform="translate(948,462)"/>
<path d="M0 0 C0.66 0.33 1.32 0.66 2 1 C0.90653119 2.34212062 -0.2001575 3.67347975 -1.3125 5 C-2.23482422 6.11375 -2.23482422 6.11375 -3.17578125 7.25 C-5 9 -5 9 -8 9 C-6.85459775 7.68712379 -5.70866567 6.37470979 -4.5625 5.0625 C-3.92441406 4.33160156 -3.28632812 3.60070312 -2.62890625 2.84765625 C-1.77458541 1.87860647 -0.91348825 0.91348825 0 0 Z " fill="#A2CAE7" transform="translate(900,539)"/>
<path d="M0 0 C3 1 3 1 4 2.875 C4.33 3.57625 4.66 4.2775 5 5 C6.5412312 6.70921589 6.5412312 6.70921589 8 8 C7.67 8.66 7.34 9.32 7 10 C6.34 10 5.68 10 5 10 C3.7109375 8.3203125 3.7109375 8.3203125 2.375 6.125 C1.92898438 5.40570313 1.48296875 4.68640625 1.0234375 3.9453125 C0 2 0 2 0 0 Z " fill="#2B3348" transform="translate(693,492)"/>
<path d="M0 0 C0 3.77910478 -0.99703962 4.46106101 -3.5 7.1875 C-4.1496875 7.90292969 -4.799375 8.61835938 -5.46875 9.35546875 C-5.9740625 9.89816406 -6.479375 10.44085938 -7 11 C-7.66 10.67 -8.32 10.34 -9 10 C-7.87970983 8.51726301 -6.75361382 7.03891114 -5.625 5.5625 C-4.99851562 4.73878906 -4.37203125 3.91507812 -3.7265625 3.06640625 C-2 1 -2 1 0 0 Z " fill="#977CD4" transform="translate(545,433)"/>
<path d="M0 0 C5.445 1.485 5.445 1.485 11 3 C10.34 4.32 9.68 5.64 9 7 C7.4972763 6.02501855 5.99788037 5.04490611 4.5 4.0625 C3.6646875 3.51722656 2.829375 2.97195313 1.96875 2.41015625 C1.3190625 1.94480469 0.669375 1.47945313 0 1 C0 0.67 0 0.34 0 0 Z " fill="#405667" transform="translate(875,304)"/>
<path d="M0 0 C0 2 0 2 -1.42578125 3.54296875 C-2.04839844 4.08566406 -2.67101562 4.62835938 -3.3125 5.1875 C-3.92738281 5.73792969 -4.54226563 6.28835938 -5.17578125 6.85546875 C-5.77777344 7.23316406 -6.37976563 7.61085938 -7 8 C-7.99 7.67 -8.98 7.34 -10 7 C-8.71372289 5.82739389 -7.42080217 4.6620717 -6.125 3.5 C-5.04605469 2.52546875 -5.04605469 2.52546875 -3.9453125 1.53125 C-2 0 -2 0 0 0 Z " fill="#A1C6DD" transform="translate(842,330)"/>
<path d="M0 0 C2.88437779 1.29299694 4.87219421 2.65941363 7 5 C6.34 5 5.68 5 5 5 C4.67 5.66 4.34 6.32 4 7 C2 5.1875 2 5.1875 0 3 C0 2.01 0 1.02 0 0 Z " fill="#1F233B" transform="translate(713,497)"/>
<path d="M0 0 C0 3 0 3 -2.5 5.6875 C-3.325 6.450625 -4.15 7.21375 -5 8 C-5.66 7.67 -6.32 7.34 -7 7 C-2.25 1.125 -2.25 1.125 0 0 Z " fill="#AA89DB" transform="translate(547,284)"/>
<path d="M0 0 C4.55384615 -0.36923077 4.55384615 -0.36923077 6.8125 1.5 C7.204375 1.995 7.59625 2.49 8 3 C5.36 3 2.72 3 0 3 C0 2.01 0 1.02 0 0 Z " fill="#556C82" transform="translate(808,554)"/>
<path d="M0 0 C0.66 0.33 1.32 0.66 2 1 C-0.97 3.475 -0.97 3.475 -4 6 C-4 4.68 -4 3.36 -4 2 C-2.125 0.9375 -2.125 0.9375 0 0 Z " fill="#7784BF" transform="translate(718,514)"/>
<path d="M0 0 C0 3 0 3 -1.53125 4.60546875 C-2.1809375 5.12753906 -2.830625 5.64960937 -3.5 6.1875 C-4.1496875 6.71730469 -4.799375 7.24710938 -5.46875 7.79296875 C-5.9740625 8.19128906 -6.479375 8.58960938 -7 9 C-6.19095897 4.20719998 -3.74015409 2.86479887 0 0 Z " fill="#9FA7E5" transform="translate(657,540)"/>
<path d="M0 0 C0.99 0 1.98 0 3 0 C3.1875 2.875 3.1875 2.875 3 6 C2.01 6.66 1.02 7.32 0 8 C0 5.36 0 2.72 0 0 Z " fill="#A694DA" transform="translate(624,398)"/>
<path d="M0 0 C-2.64 1.65 -5.28 3.3 -8 5 C-8.33 4.01 -8.66 3.02 -9 2 C-3.375 -1.125 -3.375 -1.125 0 0 Z " fill="#6A76AB" transform="translate(719,512)"/>
<path d="M0 0 C0.66 0.99 1.32 1.98 2 3 C1.01 4.98 0.02 6.96 -1 9 C-1.66 9 -2.32 9 -3 9 C-2.01 6.03 -1.02 3.06 0 0 Z " fill="#9ED9E0" transform="translate(975,482)"/>
</svg>
