<?xml version="1.0" encoding="UTF-8"?>
<svg version="1.1" xmlns="http://www.w3.org/2000/svg" width="1250" height="420" viewBox="150 300 1250 420">
<path d="M0 0 C506.88 0 1013.76 0 1536 0 C1536 337.92 1536 675.84 1536 1024 C1029.12 1024 522.24 1024 0 1024 C0 686.08 0 348.16 0 0 Z " fill="#151B28" transform="translate(0,0)"/>
<path d="M0 0 C2.0011761 -0.01254152 4.00216219 -0.03236567 6.00325775 -0.0541153 C9.79626094 -0.08986778 13.58834036 -0.09817066 17.38149261 -0.09848785 C18.53759537 -0.11276825 19.69369812 -0.12704865 20.88483429 -0.14176178 C22.48721703 -0.13266785 22.48721703 -0.13266785 24.12197113 -0.1233902 C25.05598251 -0.12624023 25.9899939 -0.12909027 26.95230865 -0.13202667 C30.23334447 0.52011942 31.41900002 1.74041247 33.44008636 4.36244965 C34.2736775 10.61438314 33.05492568 15.14700984 29.44008636 20.36244965 C10.43675578 44.69197323 -21.39890723 52.16575368 -50.70693207 55.86588287 C-57.75868346 56.72743579 -64.81497509 57.5490311 -71.87241364 58.36244965 C-77.55716801 59.01943159 -83.24105295 59.68321449 -88.92319489 60.36244965 C-89.94847164 60.48492223 -89.94847164 60.48492223 -90.99446106 60.609869 C-106.7422618 62.50836374 -122.23122487 65.26845203 -137.55991364 69.36244965 C-139.05562799 69.73766321 -140.55175921 70.11121705 -142.04819489 70.4835434 C-150.52470097 72.61725252 -158.69946905 74.92966395 -166.79819489 78.2491684 C-168.75566731 79.03824851 -170.74519928 79.74980738 -172.75131989 80.4054184 C-175.62647914 81.26811364 -175.62647914 81.26811364 -178.18491364 82.98744965 C-180.55991364 84.36244965 -180.55991364 84.36244965 -184.55991364 84.36244965 C-184.55991364 85.02244965 -184.55991364 85.68244965 -184.55991364 86.36244965 C-186.10678864 86.95026215 -186.10678864 86.95026215 -187.68491364 87.54994965 C-191.62481039 89.21898941 -194.39508785 91.50638735 -197.55991364 94.36244965 C-180.06949689 111.85286639 -149.27851902 117.82970022 -126.12241364 123.86244965 C-122.93453872 124.69435855 -119.74697484 125.52742828 -116.55991364 126.36244965 C-115.69156891 126.58900238 -114.82322418 126.81555511 -113.92856598 127.04897308 C-78.81278943 136.30567209 -78.81278943 136.30567209 -69.55991364 148.36244965 C-69.30991364 151.86244965 -69.30991364 151.86244965 -70.55991364 155.36244965 C-72.67104564 157.45164782 -74.96835362 158.92984815 -77.55991364 160.36244965 C-78.13741364 160.70534027 -78.71491364 161.0482309 -79.30991364 161.40151215 C-82.51688059 162.77115428 -85.83290091 163.32126124 -89.24741364 163.92494965 C-89.9170816 164.05063324 -90.58674957 164.17631683 -91.27671051 164.30580902 C-99.73998812 165.84973073 -108.05778811 166.51860766 -116.65756989 166.5304184 C-118.07326263 166.53677055 -118.07326263 166.53677055 -119.51755524 166.54325104 C-122.55255399 166.55308247 -125.58740187 166.55318223 -128.62241364 166.54994965 C-129.65735962 166.5493454 -130.6923056 166.54874115 -131.75861359 166.54811859 C-154.21554454 166.51240111 -175.55354182 165.08465026 -197.55991364 160.36244965 C-197.55991364 159.70244965 -197.55991364 159.04244965 -197.55991364 158.36244965 C-198.17302399 158.33231781 -198.78613434 158.30218597 -199.41782379 158.27114105 C-205.8604127 157.8120989 -211.05863878 156.36208399 -216.93491364 153.73744965 C-218.17253448 153.19568085 -218.17253448 153.19568085 -219.43515778 152.64296722 C-235.34886057 145.54928204 -249.39851968 136.90063281 -256.55991364 120.36244965 C-257.11678864 119.26610199 -257.11678864 119.26610199 -257.68491364 118.1476059 C-260.51862163 109.12781215 -260.05594903 95.88439636 -255.81381989 87.4444809 C-255.19313629 86.41387543 -255.19313629 86.41387543 -254.55991364 85.36244965 C-254.13581207 84.62381683 -253.71171051 83.88518402 -253.27475739 83.1241684 C-228.097255 42.51755591 -174.25454471 25.17067486 -130.32389069 14.83644867 C-112.25183606 10.67207789 -94.07036166 6.78446413 -75.6390152 4.61391449 C-73.679398 4.37690114 -71.72478982 4.09947829 -69.77085114 3.8194809 C-65.70603065 3.25040603 -61.64222271 2.78390947 -57.55991364 2.36244965 C-56.70945465 2.27076508 -55.85899567 2.17908051 -54.9827652 2.08461761 C-36.69983774 0.21455702 -18.36180023 0.09141279 0 0 Z " fill="#7992F0" transform="translate(568.5599136352539,342.6375503540039)"/>
<path d="M0 0 C14.71132286 -0.2229508 29.32136648 -0.09669198 44 0.875 C45.21961426 0.95347168 46.43922852 1.03194336 47.69580078 1.11279297 C54.33585095 1.58805965 60.81960292 2.37822669 67.37304688 3.54492188 C70.65319234 4.11315525 73.93948974 4.46859996 77.25 4.8125 C107.40003337 8.32937967 143.52972924 15.51674547 164 40 C171.88014921 51.04915545 173.13538454 61.79062851 172 75 C168.62344738 94.02596419 154.13644206 108.98979351 139 120 C134.77808016 122.86932085 130.43695293 125.48085932 126 128 C125.33564941 128.38269043 124.67129883 128.76538086 123.98681641 129.15966797 C85.81369241 150.93651796 41.52443905 161.09405166 -1.0002594 170.64405823 C-7.51406292 172.10934386 -14.00935652 173.64491831 -20.4987793 175.21411133 C-25.02298473 176.30422119 -29.55350712 177.35138915 -34.09765625 178.35546875 C-64.06756647 185.01293275 -94.30196096 193.13443423 -121.2265625 208.25 C-123.9533358 209.40317285 -126.18880257 208.63890851 -129 208 C-131.45016298 201.83083963 -132.58232659 196.62533841 -132 190 C-131.94199219 189.19175781 -131.88398438 188.38351562 -131.82421875 187.55078125 C-130.14795983 174.0397304 -122.52001721 162.34460651 -113 153 C-112.24074219 152.18273437 -111.48148437 151.36546875 -110.69921875 150.5234375 C-71.87403339 109.47422351 -5.48480328 105.1030557 47.12522888 97.4463501 C54.75613049 96.33558566 62.38054208 95.18695896 70 94 C70 94.66 70 95.32 70 96 C59.03229619 99.34545602 48.04052245 102.59002703 37 105.6875 C35.98752197 105.97246338 34.97504395 106.25742676 33.93188477 106.55102539 C27.87056302 108.24266048 21.78902501 109.81621639 15.6796875 111.32470703 C12.43103833 112.14338083 9.21840516 113.07015417 6 114 C4.56369076 114.37567617 3.12608821 114.74642872 1.6875 115.11328125 C-7.22088969 117.38772343 -15.95348935 119.8833318 -24.64453125 122.8828125 C-27.64310419 123.88117322 -30.62589503 124.72258818 -33.6875 125.5 C-39.71985905 127.10331423 -45.31144147 129.4497287 -51 132 C-51.65307129 132.29036133 -52.30614258 132.58072266 -52.97900391 132.87988281 C-70.07216749 140.5235868 -85.90852478 149.34295677 -98 164 C-96.99324219 163.38253906 -95.98648438 162.76507812 -94.94921875 162.12890625 C-80.76364641 153.54002552 -66.280629 145.97230838 -50.39453125 141.0703125 C-48.02330478 140.32265306 -45.67632756 139.49553707 -43.35302734 138.61010742 C-28.86287412 133.14879702 -13.71022709 129.55214747 1.33813477 126.01245117 C4.32925289 125.30855758 7.31805002 124.59540045 10.30664062 123.88085938 C19.80531724 121.62102479 29.30154695 119.49142453 38.88647461 117.62866211 C43.01778566 116.79449556 47.07241779 115.77830214 51.125 114.625 C51.88232422 114.41077393 52.63964844 114.19654785 53.41992188 113.97583008 C60.11550456 112.03901515 66.57407855 109.70448758 73 107 C73.6909375 106.71785645 74.381875 106.43571289 75.09375 106.14501953 C93.3295058 98.66946773 109.75391823 89.45350899 118.0390625 70.640625 C121.07047861 62.4246374 120.58889444 55.79557811 117.37109375 47.734375 C108.97524762 30.99052232 87.78434934 23.97856789 71.12109375 18.3046875 C56.58323897 13.52306053 41.75461561 10.11906994 26.8125 6.875 C25.64855713 6.62105469 24.48461426 6.36710937 23.28540039 6.10546875 C15.55814998 4.45349242 7.82240824 3.11598287 0 2 C0 1.34 0 0.68 0 0 Z " fill="#6AB9F8" transform="translate(401,435)"/>
<path d="M0 0 C0 0.33 0 0.66 0 1 C-1.8871875 1.34611328 -1.8871875 1.34611328 -3.8125 1.69921875 C-17.59906809 4.29655079 -30.92391561 7.12388951 -43.38671875 13.7734375 C-46.46856839 15.21992597 -49.54725128 16.15829165 -52.8125 17.125 C-82.59175239 25.63185571 -82.59175239 25.63185571 -107.7421875 42.78125 C-109 44 -109 44 -111 44 C-111.226875 44.515625 -111.45375 45.03125 -111.6875 45.5625 C-113.17829735 48.33112365 -114.96979954 50.72614776 -116.87890625 53.21875 C-119.49742241 57.37917986 -119.47215645 62.21941595 -119 67 C-117.6777523 72.74594406 -115.43492294 77.19110789 -112 82 C-111.67 82.99 -111.34 83.98 -111 85 C-109.11891351 86.06570938 -109.11891351 86.06570938 -107 87 C-105.90048303 87.85457507 -104.81815942 88.73153955 -103.75 89.625 C-83.06791844 105.03445035 -54.28691385 111.22687299 -29.65429688 117.33496094 C10.28572791 127.34200909 10.28572791 127.34200909 20 140 C20.25 143.5 20.25 143.5 19 147 C16.88886799 149.08919817 14.59156002 150.5673985 12 152 C11.4225 152.34289062 10.845 152.68578125 10.25 153.0390625 C7.04303304 154.40870464 3.72701272 154.9588116 0.3125 155.5625 C-0.35716797 155.68818359 -1.02683594 155.81386719 -1.71679688 155.94335938 C-10.18007449 157.48728108 -18.49787448 158.15615802 -27.09765625 158.16796875 C-28.513349 158.17432091 -28.513349 158.17432091 -29.9576416 158.18080139 C-32.99264036 158.19063282 -36.02748823 158.19073259 -39.0625 158.1875 C-40.09744598 158.18689575 -41.13239197 158.1862915 -42.19869995 158.18566895 C-64.6556309 158.14995146 -85.99362818 156.72220062 -108 152 C-108 151.34 -108 150.68 -108 150 C-108.61311035 149.96986816 -109.2262207 149.93973633 -109.85791016 149.90869141 C-116.30049906 149.44964926 -121.49872514 147.99963435 -127.375 145.375 C-128.61262085 144.8332312 -128.61262085 144.8332312 -129.87524414 144.28051758 C-145.78894693 137.18683239 -159.83860605 128.53818316 -167 112 C-167.556875 110.90365234 -167.556875 110.90365234 -168.125 109.78515625 C-170.95870799 100.76536251 -170.49603539 87.52194672 -166.25390625 79.08203125 C-165.63322266 78.05142578 -165.63322266 78.05142578 -165 77 C-164.57589844 76.26136719 -164.15179688 75.52273438 -163.71484375 74.76171875 C-138.56932428 34.20668874 -84.74316993 16.79341168 -40.85528564 6.49682617 C-35.51996053 5.27242535 -30.1702113 4.12190527 -24.8125 3 C-23.7206842 2.76863342 -23.7206842 2.76863342 -22.60681152 2.53259277 C-15.02527458 0.94089602 -7.77887805 -0.41533498 0 0 Z " fill="#9D8DFA" transform="translate(479,351)"/>
<path d="M0 0 C1.56113144 1.3207172 3.05195587 2.72437387 4.515625 4.15234375 C2.98469012 8.82433466 0.40805105 12.1740438 -2.609375 15.96484375 C-3.31126953 16.86106445 -3.31126953 16.86106445 -4.02734375 17.77539062 C-5.17443065 19.23851167 -6.32868734 20.69600672 -7.484375 22.15234375 C-8.15082031 21.70503906 -8.81726563 21.25773437 -9.50390625 20.796875 C-26.47615546 9.66402901 -44.39066002 4.29649306 -64.7109375 7.69140625 C-71.16920863 9.46694303 -76.83304485 12.34766505 -80.484375 18.15234375 C-81.40279657 22.85925431 -81.28440481 26.86658155 -78.734375 30.96484375 C-68.1368668 38.09778196 -56.5167974 39.69156717 -44.15087891 41.71582031 C-6.33443533 47.90660965 -6.33443533 47.90660965 5.515625 61.15234375 C12.1325171 70.88016273 12.96685721 81.43265192 11.0546875 92.921875 C8.16540271 102.62647273 0.64401259 110.33245351 -7.796875 115.59375 C-14.06649633 118.95965248 -20.53440474 120.74715851 -27.484375 122.15234375 C-28.80115234 122.43271484 -28.80115234 122.43271484 -30.14453125 122.71875 C-56.09183009 126.08734669 -81.56463933 122.82019082 -103.484375 108.15234375 C-105.94780663 106.2461169 -108.20261301 104.27853106 -110.484375 102.15234375 C-109.04678968 97.90914838 -106.94446637 94.9168736 -104.109375 91.46484375 C-103.33851563 90.51222656 -102.56765625 89.55960937 -101.7734375 88.578125 C-99.69763215 86.37833811 -98.26341791 85.23731256 -95.484375 84.15234375 C-94.71867188 84.80589844 -94.71867188 84.80589844 -93.9375 85.47265625 C-87.87733816 90.43683137 -81.66347071 94.0345137 -74.484375 97.15234375 C-73.56785156 97.56871094 -72.65132812 97.98507812 -71.70703125 98.4140625 C-57.96277066 103.671934 -39.28879078 103.35324211 -25.62109375 98.0390625 C-22.12233064 96.32595201 -19.12755176 94.79552051 -16.359375 92.02734375 C-14.94325254 87.37436996 -14.73772412 82.95845575 -15.484375 78.15234375 C-20.860769 70.00103672 -32.52704256 68.04752672 -41.484375 66.15234375 C-46.76045082 65.0990379 -52.04613274 64.09892418 -57.3359375 63.1171875 C-92.63936871 56.53212623 -92.63936871 56.53212623 -102.484375 43.15234375 C-106.88675023 34.46839018 -109.27935193 25.13736825 -106.80078125 15.4921875 C-102.58212632 4.16658691 -95.17447142 -3.72410438 -84.421875 -9.03515625 C-57.47499531 -20.59682423 -23.70904028 -17.63266675 0 0 Z " fill="#E7ECF6" transform="translate(746.484375,411.84765625)"/>
<path d="M0 0 C0.93328125 -0.00773437 1.8665625 -0.01546875 2.828125 -0.0234375 C15.70450246 0.01253003 27.31541432 3.63914813 37 12.5625 C43.30885344 19.49910005 46.13111534 27.54556026 46.11352539 36.76269531 C46.11367142 37.40701508 46.11381744 38.05133484 46.1139679 38.71517944 C46.1132735 40.83619603 46.10550336 42.95712383 46.09765625 45.078125 C46.09579039 46.55214388 46.09436728 48.02616338 46.09336853 49.50018311 C46.08955661 53.37338992 46.07973765 57.24655903 46.06866455 61.11975098 C46.05842193 65.07462046 46.0538648 69.02949606 46.04882812 72.984375 C46.03811417 80.73960248 46.02052812 88.49479115 46 96.25 C38.41 96.25 30.82 96.25 23 96.25 C23 92.62 23 88.99 23 85.25 C22.00033203 86.04664063 22.00033203 86.04664063 20.98046875 86.859375 C6.57336526 97.90146271 -8.26822342 99.73144663 -26 98.25 C-35.33262795 96.60343675 -43.04439767 91.65986789 -48.59375 84.0703125 C-52.69590158 77.11944454 -53.00041146 70.14947543 -52 62.25 C-50.05454314 55.14336054 -44.85250857 49.75277405 -38.78125 45.80859375 C-25.54262286 38.60901568 -11.8038236 38.85557315 2.8125 39.0625 C4.68032768 39.07758275 6.54816722 39.09126476 8.41601562 39.10351562 C12.9443089 39.1362169 17.47201982 39.18779809 22 39.25 C21.71015585 37.64324705 21.41160201 36.0380636 21.109375 34.43359375 C20.94405273 33.53954834 20.77873047 32.64550293 20.60839844 31.72436523 C19.785122 28.37608807 18.53405275 26.57288169 16 24.25 C7.27123217 19.049883 -5.00695633 18.56202394 -14.83203125 20.93359375 C-19.51903252 22.91182021 -23.24925074 25.84299305 -26.98046875 29.2734375 C-29 30.25 -29 30.25 -31.83984375 29.671875 C-35.29614157 28.1167546 -38.25480707 26.27446624 -41.375 24.125 C-42.43460938 23.40054687 -43.49421875 22.67609375 -44.5859375 21.9296875 C-45.38257813 21.37539063 -46.17921875 20.82109375 -47 20.25 C-43.91010565 12.8931087 -36.46075459 8.6385135 -29.37573242 5.64794922 C-19.50439646 1.71135145 -10.64825432 -0.0882452 0 0 Z " fill="#E4EAF5" transform="translate(1196,436.75)"/>
<path d="M0 0 C8.58 0 17.16 0 26 0 C27.85610762 3.97826777 29.71026832 7.9574276 31.5625 11.9375 C31.98893295 12.85314728 31.98893295 12.85314728 32.42398071 13.78729248 C36.03761097 21.55080077 39.61279523 29.33028433 43.1328125 37.13671875 C43.47229416 37.88853928 43.81177582 38.6403598 44.1615448 39.41496277 C45.82962084 43.10997694 47.49279148 46.80707728 49.14868164 50.50756836 C49.75909075 51.86190052 50.36967749 53.21615264 50.98046875 54.5703125 C51.51567139 55.76414551 52.05087402 56.95797852 52.60229492 58.18798828 C53.83974242 61.05205566 53.83974242 61.05205566 56 63 C56.63276855 61.56841553 56.63276855 61.56841553 57.27832031 60.10791016 C66.02551564 40.32785318 74.87861424 20.61097939 84 1 C92.58 1 101.16 1 110 1 C108.31422208 5.2144448 106.484517 9.30131425 104.53515625 13.39453125 C104.19031693 14.1217186 103.8454776 14.84890594 103.4901886 15.59812927 C102.34905111 18.00359891 101.20576679 20.40804174 100.0625 22.8125 C99.25523457 24.51328156 98.44810817 26.21412912 97.64111328 27.91503906 C95.0961816 33.2776942 92.54838339 38.63898445 90 44 C89.59235413 44.85760925 89.18470825 45.71521851 88.76470947 46.59881592 C87.95756613 48.29688531 87.15041188 49.99494952 86.34324646 51.69300842 C84.74973345 55.0454122 83.15637922 58.39789142 81.56307983 61.75039673 C80.77026215 63.41840727 79.97731348 65.08635557 79.18423462 66.75424194 C74.93562898 75.68976074 70.69706291 84.62974398 66.4921875 93.5859375 C66.13099823 94.35502441 65.76980896 95.12411133 65.39767456 95.91650391 C63.70820991 99.51501612 62.020939 103.11453101 60.33740234 106.71582031 C56.35711185 115.21399692 52.22718579 123.62150098 48 132 C39.42 132 30.84 132 22 132 C23.36730075 128.58174812 24.73631802 125.41830019 26.390625 122.15625 C26.85049805 121.24552734 27.31037109 120.33480469 27.78417969 119.39648438 C28.26790039 118.44064453 28.75162109 117.48480469 29.25 116.5 C30.72342283 113.55701905 32.19377519 110.61251713 33.6640625 107.66796875 C34.47751794 106.04343639 35.29434234 104.42057784 36.1171875 102.80078125 C37.0094616 101.04121672 37.88084887 99.27110042 38.75 97.5 C39.21921875 96.5615625 39.6884375 95.623125 40.171875 94.65625 C42.34508915 87.6855631 37.97502935 81.36405137 34.9375 75.25 C33.84096656 73.00593157 32.74599992 70.76109708 31.65234375 68.515625 C31.3613681 67.92003784 31.07039246 67.32445068 30.77059937 66.71081543 C27.0976624 59.17967636 23.55484144 51.58737168 20 44 C16.138993 35.76432398 12.27318799 27.5320655 8.3125 19.34375 C7.75046875 18.18101562 7.1884375 17.01828125 6.609375 15.8203125 C5.56086269 13.65711963 4.50894646 11.49557231 3.453125 9.3359375 C2.99421875 8.38976562 2.5353125 7.44359375 2.0625 6.46875 C1.66160156 5.64826172 1.26070312 4.82777344 0.84765625 3.98242188 C0 2 0 2 0 0 Z " fill="#E3E9F5" transform="translate(758,439)"/>
<path d="M0 0 C9.04957815 6.795594 13.43577151 15.50055425 15.1015625 26.578125 C15.36489021 31.46535641 15.33557709 36.34589583 15.296875 41.23828125 C15.29313724 42.6378916 15.29029388 44.03750461 15.28829956 45.43711853 C15.28072311 49.09165887 15.26112736 52.74603608 15.2388916 56.4005127 C15.21830291 60.14133499 15.20927021 63.88218406 15.19921875 67.62304688 C15.17787472 74.94148865 15.14274274 82.25976303 15.1015625 89.578125 C7.1815625 89.578125 -0.7384375 89.578125 -8.8984375 89.578125 C-8.90254639 87.81291504 -8.90665527 86.04770508 -8.91088867 84.22900391 C-8.93037541 78.36149938 -8.972825 72.49439546 -9.03052807 66.62716103 C-9.0646509 63.07378518 -9.08988481 59.52083251 -9.09399414 55.96728516 C-9.09913715 51.87091175 -9.14439813 47.7757961 -9.19140625 43.6796875 C-9.1874736 42.4188736 -9.18354095 41.15805969 -9.17948914 39.85903931 C-9.3056753 32.1471596 -10.2886507 25.93844591 -14.8984375 19.578125 C-20.92187887 14.1581861 -27.35854306 13.86448401 -35.2421875 14.1640625 C-44.28099101 15.18768768 -50.68565144 19.01510835 -56.8984375 25.578125 C-59.20718964 29.04125321 -59.16669779 30.42916474 -59.21728516 34.51831055 C-59.23715485 35.73934982 -59.25702454 36.9603891 -59.27749634 38.21842957 C-59.29482315 40.19665459 -59.29482315 40.19665459 -59.3125 42.21484375 C-59.33121097 43.57820306 -59.35078433 44.94155079 -59.3711853 46.30488586 C-59.42252034 49.89032155 -59.46213849 53.47579478 -59.49932861 57.06140137 C-59.53935981 60.72136738 -59.59045615 64.38117701 -59.640625 68.04101562 C-59.73740056 75.21995296 -59.82077703 82.39895077 -59.8984375 89.578125 C-67.4884375 89.578125 -75.0784375 89.578125 -82.8984375 89.578125 C-82.8984375 58.558125 -82.8984375 27.538125 -82.8984375 -4.421875 C-75.3084375 -4.421875 -67.7184375 -4.421875 -59.8984375 -4.421875 C-59.5684375 -0.131875 -59.2384375 4.158125 -58.8984375 8.578125 C-57.9496875 7.52625 -57.0009375 6.474375 -56.0234375 5.390625 C-41.61862323 -8.89871981 -17.02630934 -10.27769946 0 0 Z " fill="#E8EDF7" transform="translate(959.8984375,443.421875)"/>
<path d="M0 0 C8.25 0 16.5 0 25 0 C25 8.91 25 17.82 25 27 C36.55 27 48.1 27 60 27 C60 33.27 60 39.54 60 46 C48.45 46 36.9 46 25 46 C25.05107893 52.72709574 25.11405809 59.45188957 25.20751953 66.17822266 C25.23570652 68.46525621 25.25693231 70.75238677 25.27099609 73.03955078 C25.29245638 76.33155906 25.33912471 79.62240378 25.390625 82.9140625 C25.39185364 83.93303619 25.39308228 84.95200989 25.39434814 86.00186157 C25.51626687 91.94082286 25.98682601 95.50506177 30 100 C34.44335953 102.20005006 38.18124195 102.15367314 43.0625 101.75 C44.24972656 101.66234375 45.43695312 101.5746875 46.66015625 101.484375 C49.77823406 101.03216255 52.111724 100.1884306 55 99 C56.32 99 57.64 99 59 99 C60.95928381 105.01339937 62.41632611 110.69632197 63 117 C61.45925192 117.62726108 59.91735077 118.2516901 58.375 118.875 C57.51648437 119.22304688 56.65796875 119.57109375 55.7734375 119.9296875 C54.85820313 120.28289062 53.94296875 120.63609375 53 121 C52.10023437 121.36609375 51.20046875 121.7321875 50.2734375 122.109375 C45.89402659 123.30090923 41.77075935 123.38343268 37.25 123.375 C36.35909668 123.37338867 35.46819336 123.37177734 34.55029297 123.37011719 C28.00575385 123.24792371 22.7028577 122.39120551 17 119 C15.9275 118.401875 14.855 117.80375 13.75 117.1875 C5.84628906 110.9004572 1.39799705 103.42413928 0.20249939 93.35044861 C-0.16984507 89.02857629 -0.12138126 84.70984911 -0.09765625 80.375 C-0.0962413 79.38749756 -0.09482635 78.39999512 -0.09336853 77.38256836 C-0.08780927 74.25501364 -0.07526446 71.12753277 -0.0625 68 C-0.05747973 65.86849062 -0.05291775 63.73698012 -0.04882812 61.60546875 C-0.03870775 56.40359508 -0.01912456 51.20187938 0 46 C-6.6 46 -13.2 46 -20 46 C-20 39.73 -20 33.46 -20 27 C-13.4 27 -6.8 27 0 27 C0 18.09 0 9.18 0 0 Z " fill="#E6EAF3" transform="translate(999,412)"/>
<path d="M0 0 C-0.57665391 4.7871428 -2.64082996 8.25128824 -5.0625 12.3125 C-5.43955078 12.95767578 -5.81660156 13.60285156 -6.20507812 14.26757812 C-7.13037493 15.84878152 -8.06432681 17.4249146 -9 19 C-9.59425781 18.7834375 -10.18851563 18.566875 -10.80078125 18.34375 C-18.87009688 15.63306232 -26.65262384 14.33930747 -34.75 17.625 C-40.97757167 20.78342793 -45.7698093 24.75458853 -49 31 C-49.46640247 33.88170153 -49.46640247 33.88170153 -49.43237305 36.98364258 C-49.45216721 38.16448929 -49.47196136 39.345336 -49.49235535 40.56196594 C-49.49874527 41.82671249 -49.50513519 43.09145905 -49.51171875 44.39453125 C-49.52966995 45.69702316 -49.54762115 46.99951508 -49.56611633 48.34147644 C-49.61350911 51.7920939 -49.64338725 55.24264646 -49.66955566 58.69348145 C-49.69941575 62.21961276 -49.74592722 65.74552072 -49.79101562 69.27148438 C-49.87692644 76.18087711 -49.94278541 83.09031065 -50 90 C-57.59 90 -65.18 90 -73 90 C-73 59.31 -73 28.62 -73 -3 C-65.41 -3 -57.82 -3 -50 -3 C-49.67 0.96 -49.34 4.92 -49 9 C-48.175 7.948125 -47.35 6.89625 -46.5 5.8125 C-34.85952027 -7.61882277 -14.76811735 -9.84541157 0 0 Z " fill="#EBF0F8" transform="translate(1147,443)"/>
<path d="M0 0 C1.0971936 0.00290039 1.0971936 0.00290039 2.21655273 0.00585938 C8.42530498 0.05474184 14.57601491 0.4588282 20.75 1.125 C21.79955844 14.21949099 21.79955844 14.21949099 19.54296875 18.31640625 C11.79573008 25.26533461 0.96689315 27.31528969 -9.0625 27.4375 C-9.84431641 27.46650391 -10.62613281 27.49550781 -11.43164062 27.52539062 C-18.39253901 27.60098935 -22.56724035 25.67018223 -27.6875 20.8125 C-29.79737157 17.1835209 -29.9642895 15.26787911 -29.25 11.125 C-26.13288381 5.7719312 -22.17011719 2.96227775 -16.25 1.125 C-10.79527209 0.29817809 -5.51128355 -0.03572542 0 0 Z " fill="#191F2C" transform="translate(1197.25,490.875)"/>
<path d="M0 0 C-1.32 0.66 -2.64 1.32 -4 2 C-0.37 2 3.26 2 7 2 C7 2.33 7 2.66 7 3 C5.89785156 3.24234375 4.79570312 3.4846875 3.66015625 3.734375 C-0.414032 4.63213901 -4.48492533 5.54426217 -8.55566406 6.45751953 C-10.68836933 6.93083866 -12.82352886 7.38839415 -14.9609375 7.83984375 C-42.28794587 13.85400279 -69.11676599 23.20173697 -94 36 C-93.67 35.01 -93.34 34.02 -93 33 C-92.01 33 -91.02 33 -90 33 C-89.855625 32.278125 -89.71125 31.55625 -89.5625 30.8125 C-83.65663996 20.18195194 -59.96938663 15.33306612 -49 12 C-46.18211317 11.22042267 -43.35885827 10.46612222 -40.53125 9.72265625 C-38.20196827 9.05766069 -35.99883767 8.27021038 -33.75 7.375 C-30 6 -30 6 -26.87109375 5.609375 C-21.28022752 4.729279 -16.10225486 2.83698443 -10.76367188 0.99609375 C-9.95091797 0.72667969 -9.13816406 0.45726562 -8.30078125 0.1796875 C-7.57028564 -0.07055176 -6.83979004 -0.32079102 -6.0871582 -0.57861328 C-3.72246157 -1.05603361 -2.26857621 -0.75181979 0 0 Z " fill="#805EF0" transform="translate(371,608)"/>
<path d="M0 0 C-1.98 0.99 -1.98 0.99 -4 2 C-0.37 2 3.26 2 7 2 C7 2.33 7 2.66 7 3 C5.89785156 3.24234375 4.79570312 3.4846875 3.66015625 3.734375 C-16.40062115 7.95432406 -16.40062115 7.95432406 -36.1171875 13.484375 C-38 14 -38 14 -41 14 C-40.67 13.01 -40.34 12.02 -40 11 C-39.34 11 -38.68 11 -38 11 C-37.67 10.01 -37.34 9.02 -37 8 C-33.61693312 6.78209592 -30.43473566 6.04980782 -26.86328125 5.640625 C-21.28531396 4.71566379 -16.09805705 2.83553691 -10.76367188 0.99609375 C-9.95091797 0.72667969 -9.13816406 0.45726562 -8.30078125 0.1796875 C-7.57028564 -0.07055176 -6.83979004 -0.32079102 -6.0871582 -0.57861328 C-3.72246157 -1.05603361 -2.26857621 -0.75181979 0 0 Z " fill="#676AEA" transform="translate(371,608)"/>
<path d="M0 0 C0 0.66 0 1.32 0 2 C-13.6310005 6.12883152 -27.29526305 10.12294737 -41 14 C-41.33 13.34 -41.66 12.68 -42 12 C-40.4188708 11.49307308 -38.83498617 10.99473557 -37.25 10.5 C-36.36828125 10.2215625 -35.4865625 9.943125 -34.578125 9.65625 C-32 9 -32 9 -28 9 C-27.67 7.35 -27.34 5.7 -27 4 C-22.87540518 3.33081007 -18.75026023 2.66507463 -14.625 2 C-12.8615625 1.71382812 -12.8615625 1.71382812 -11.0625 1.421875 C-9.38027344 1.15117188 -9.38027344 1.15117188 -7.6640625 0.875 C-6.10872803 0.62363281 -6.10872803 0.62363281 -4.52197266 0.3671875 C-2 0 -2 0 0 0 Z " fill="#3FA6E3" transform="translate(471,529)"/>
<path d="M0 0 C-4.82888449 1.63837152 -9.66845385 3.20775199 -14.54589844 4.69604492 C-15.21137695 4.8994751 -15.87685547 5.10290527 -16.5625 5.3125 C-17.23958008 5.51915283 -17.91666016 5.72580566 -18.61425781 5.9387207 C-24.44326178 7.75229438 -30.12799337 9.88219616 -35.77172852 12.20825195 C-41.5305203 14.4894231 -41.5305203 14.4894231 -45 13 C-7.44853278 -2.49996732 -7.44853278 -2.49996732 0 0 Z " fill="#9879DC" transform="translate(370,548)"/>
<path d="M0 0 C-0.763125 0.598125 -1.52625 1.19625 -2.3125 1.8125 C-4.86229114 3.75934788 -4.86229114 3.75934788 -6.21875 5.40625 C-8.87196955 7.78018329 -12.00492364 9.1584588 -15.1875 10.6875 C-15.84169922 11.00783203 -16.49589844 11.32816406 -17.16992188 11.65820312 C-18.77727907 12.44428292 -20.38828858 13.22288683 -22 14 C-21.67 13.01 -21.34 12.02 -21 11 C-20.01 11 -19.02 11 -18 11 C-17.855625 10.278125 -17.71125 9.55625 -17.5625 8.8125 C-15.07821639 4.34078951 -5.06877659 -2.53438829 0 0 Z " fill="#9165F5" transform="translate(299,630)"/>
<path d="M0 0 C0 0.33 0 0.66 0 1 C-4.8828125 1.9765625 -9.765625 2.953125 -14.6484375 3.9296875 C-15.52854492 4.1059668 -16.40865234 4.28224609 -17.31542969 4.46386719 C-19.12818304 4.82589032 -20.94134618 5.18586665 -22.75488281 5.54394531 C-23.63241211 5.71764648 -24.50994141 5.89134766 -25.4140625 6.0703125 C-26.19990723 6.22516113 -26.98575195 6.38000977 -27.79541016 6.53955078 C-29.25073399 6.84350878 -30.69958946 7.18052634 -32.13916016 7.55200195 C-34.39062606 8.0940434 -36.43760732 8.09650577 -38.75 8.0625 C-39.54921875 8.05347656 -40.3484375 8.04445313 -41.171875 8.03515625 C-41.77515625 8.02355469 -42.3784375 8.01195312 -43 8 C-37.90484619 5.08870774 -32.06319672 4.41225366 -26.37524414 3.28564453 C-24.33444881 2.8793695 -22.29720725 2.45788654 -20.25976562 2.03515625 C-13.42140728 0.64846386 -6.98939218 -0.35447855 0 0 Z " fill="#A083E2" transform="translate(479,351)"/>
<path d="M0 0 C-3.53589738 1.9673414 -7.17939398 3.02254088 -11.0625 4.125 C-12.29097656 4.47820313 -13.51945312 4.83140625 -14.78515625 5.1953125 C-18 6 -18 6 -21 6 C-20.67 5.01 -20.34 4.02 -20 3 C-19.34 3 -18.68 3 -18 3 C-17.67 2.01 -17.34 1.02 -17 0 C-11.35663625 -3.11870102 -5.94372022 -1.3748819 0 0 Z " fill="#6E65E3" transform="translate(351,616)"/>
<path d="M0 0 C0.66 0.33 1.32 0.66 2 1 C0.33424841 2.52183555 -1.33265671 4.0424085 -3 5.5625 C-3.50257324 6.02213135 -4.00514648 6.4817627 -4.52294922 6.95532227 C-7.33694613 9.52039214 -10.19558875 12.00620726 -13.125 14.4375 C-18.07118543 18.70640693 -21.9911033 23.86824103 -26 29 C-26.33 28.34 -26.66 27.68 -27 27 C-19.12454233 16.660712 -10.5170491 7.67185708 0 0 Z " fill="#BD6FE7" transform="translate(344,396)"/>
<path d="M0 0 C0.66 0.33 1.32 0.66 2 1 C-1.520637 3.85046498 -5.38910505 5.94793565 -9.375 8.0625 C-10.02210938 8.41376953 -10.66921875 8.76503906 -11.3359375 9.12695312 C-15.14191266 11.15655077 -18.84809229 12.75956937 -23 14 C-20.81731062 11.62865131 -18.66237908 10.09835454 -15.83984375 8.5546875 C-14.6497168 7.89919922 -14.6497168 7.89919922 -13.43554688 7.23046875 C-12.61119141 6.78316406 -11.78683594 6.33585938 -10.9375 5.875 C-9.69516602 5.19244141 -9.69516602 5.19244141 -8.42773438 4.49609375 C-2.59821429 1.29910714 -2.59821429 1.29910714 0 0 Z " fill="#9C76E3" transform="translate(326,586)"/>
<path d="M0 0 C6.6 0 13.2 0 20 0 C20 1.32 20 2.64 20 4 C19.14277344 3.86722656 18.28554688 3.73445313 17.40234375 3.59765625 C11.60543791 2.70230552 5.80940292 1.81061436 0 1 C0 0.67 0 0.34 0 0 Z " fill="#71A7E6" transform="translate(407,437)"/>
<path d="M0 0 C0.556875 0.226875 1.11375 0.45375 1.6875 0.6875 C-1.31586223 4.14851743 -3.62530768 5.38102564 -8.0625 6.4375 C-9.04734375 6.67984375 -10.0321875 6.9221875 -11.046875 7.171875 C-11.79453125 7.34203125 -12.5421875 7.5121875 -13.3125 7.6875 C-12.9825 6.3675 -12.6525 5.0475 -12.3125 3.6875 C-11.2296875 3.5328125 -11.2296875 3.5328125 -10.125 3.375 C-7.22876471 2.82584224 -7.22876471 2.82584224 -4.75 1.0625 C-2.3125 -0.3125 -2.3125 -0.3125 0 0 Z " fill="#6E57EA" transform="translate(331.3125,618.3125)"/>
<path d="M0 0 C0 3 0 3 -2 5.1875 C-2.66 5.785625 -3.32 6.38375 -4 7 C-3.67 7.66 -3.34 8.32 -3 9 C-6.63 10.98 -10.26 12.96 -14 15 C-12.20953774 11.41907547 -10.90408119 9.65890215 -8.125 6.9375 C-7.44695312 6.26589844 -6.76890625 5.59429688 -6.0703125 4.90234375 C-4.1292063 3.11872353 -2.1380399 1.53881347 0 0 Z " fill="#292545" transform="translate(316,585)"/>
<path d="M0 0 C6.93998648 2.16163513 13.43117569 4.8936214 20 8 C19.01 8.495 19.01 8.495 18 9 C16.32700041 8.34938905 14.66140763 7.67966676 13 7 C11.0075675 6.62406934 9.0081326 6.28020455 7 6 C7 5.34 7 4.68 7 4 C4.69 3.34 2.38 2.68 0 2 C0 1.34 0 0.68 0 0 Z " fill="#3DAEE5" transform="translate(468,474)"/>
<path d="M0 0 C-1.65 0.66 -3.3 1.32 -5 2 C-5.66 1.34 -6.32 0.68 -7 0 C-3.86650268 -1.04449911 -3.01031744 -0.93423645 0 0 Z M0.625 1.9375 C1.81351562 1.94652344 3.00203125 1.95554687 4.2265625 1.96484375 C5.14179688 1.97644531 6.05703125 1.98804688 7 2 C7 2.33 7 2.66 7 3 C4.73139163 3.5304408 2.46001511 4.04905434 0.1875 4.5625 C-1.70935547 4.99755859 -1.70935547 4.99755859 -3.64453125 5.44140625 C-7 6 -7 6 -10 5 C-9.34 5 -8.68 5 -8 5 C-8 4.34 -8 3.68 -8 3 C-5.11584117 1.55792059 -2.58278472 1.90605113 0.625 1.9375 Z " fill="#5B6CDF" transform="translate(371,608)"/>
<path d="M0 0 C0 0.66 0 1.32 0 2 C-6.08291273 4.1663492 -10.6447755 5.5197276 -17 4 C-13.83648131 2.21583543 -10.9462452 1.48143786 -7.375 0.875 C-6.41335938 0.70742188 -5.45171875 0.53984375 -4.4609375 0.3671875 C-2 0 -2 0 0 0 Z " fill="#53BAE2" transform="translate(471,529)"/>
<path d="M0 0 C6.57534861 0.62031591 12.66692592 2.14897283 19 4 C19 4.33 19 4.66 19 5 C16.03 5 13.06 5 10 5 C10 4.34 10 3.68 10 3 C9.01 3.33 8.02 3.66 7 4 C4.64811553 3.40206327 2.31074405 2.74118205 0 2 C0 1.34 0 0.68 0 0 Z " fill="#7FB7F1" transform="translate(425,463)"/>
<path d="M0 0 C1.23105469 0.17144531 2.46210938 0.34289062 3.73046875 0.51953125 C6.8125 1.1875 6.8125 1.1875 8.8125 3.1875 C6.06165453 3.07338196 3.31238053 2.94664051 0.5625 2.8125 C-0.21480469 2.7815625 -0.99210937 2.750625 -1.79296875 2.71875 C-8.91181144 2.35368114 -8.91181144 2.35368114 -12.1875 0.1875 C-7.89317173 -0.96583388 -4.3778696 -0.64122642 0 0 Z " fill="#767AD0" transform="translate(400.1875,504.8125)"/>
<path d="M0 0 C-1.70828921 2.10633718 -2.52148416 2.93801608 -5.26171875 3.29296875 C-6.06222656 3.25816406 -6.86273438 3.22335937 -7.6875 3.1875 C-8.49574219 3.16042969 -9.30398438 3.13335938 -10.13671875 3.10546875 C-10.75160156 3.07066406 -11.36648438 3.03585937 -12 3 C-12 2.34 -12 1.68 -12 1 C-10.56496445 0.63597631 -9.12683494 0.28413409 -7.6875 -0.0625 C-6.88699219 -0.25972656 -6.08648437 -0.45695313 -5.26171875 -0.66015625 C-3 -1 -3 -1 0 0 Z " fill="#615CEC" transform="translate(357,613)"/>
<path d="M0 0 C7.47394574 -0.37369729 13.82140651 0.95938459 21 3 C14.10005304 5.10963895 6.68448679 3.17972395 0 1 C0 0.67 0 0.34 0 0 Z " fill="#67D5F6" transform="translate(478,441)"/>
<path d="M0 0 C0.66 0.33 1.32 0.66 2 1 C2.05447047 2.41623216 2.09300508 3.83308191 2.125 5.25 C2.14820313 6.03890625 2.17140625 6.8278125 2.1953125 7.640625 C1.9828378 10.20731941 1.28654105 11.7916067 0 14 C-0.85380428 11.03878992 -1.13517764 8.3912356 -1.125 5.3125 C-1.12757813 4.52488281 -1.13015625 3.73726562 -1.1328125 2.92578125 C-1 1 -1 1 0 0 Z " fill="#9868E0" transform="translate(270,624)"/>
<path d="M0 0 C-2.05762909 0.70194375 -4.12136031 1.38601697 -6.1875 2.0625 C-7.91033203 2.63677734 -7.91033203 2.63677734 -9.66796875 3.22265625 C-12.97454508 3.99406151 -14.79082314 3.96093996 -18 3 C-15.03837914 1.37522189 -12.30733073 0.48304114 -9 -0.1875 C-8.154375 -0.36667969 -7.30875 -0.54585937 -6.4375 -0.73046875 C-3.96978589 -1.00334098 -2.34150494 -0.76424119 0 0 Z " fill="#68B2D7" transform="translate(442,554)"/>
<path d="M0 0 C0.66 0.33 1.32 0.66 2 1 C1.57405412 2.44096586 1.13373367 3.87768712 0.6875 5.3125 C0.44386719 6.11300781 0.20023438 6.91351562 -0.05078125 7.73828125 C-1.04182023 10.09964573 -2.08074943 11.33879993 -4 13 C-4.63934602 7.88523181 -2.40533547 4.32745622 0 0 Z " fill="#4FF5FA" transform="translate(523,508)"/>
<path d="M0 0 C0.66 0.99 1.32 1.98 2 3 C1.54625 3.845625 1.0925 4.69125 0.625 5.5625 C-1.02858414 9.06046645 -2.03009521 12.26959695 -3 16 C-3.33 16 -3.66 16 -4 16 C-3.6083965 10.04492601 -2.62875405 5.37180176 0 0 Z " fill="#9564D9" transform="translate(274,607)"/>
<path d="M0 0 C0.66 0.33 1.32 0.66 2 1 C0.02 3.31 -1.96 5.62 -4 8 C-4.99 7.01 -5.98 6.02 -7 5 C-4.69 3.35 -2.38 1.7 0 0 Z " fill="#2E2363" transform="translate(377,431)"/>
<path d="M0 0 C-1.55780332 0.67756882 -3.12150096 1.34159457 -4.6875 2 C-5.55761719 2.37125 -6.42773438 2.7425 -7.32421875 3.125 C-10.0572002 4.01870488 -12.14700934 4.16449676 -15 4 C-14 2 -14 2 -11.85546875 1.11328125 C-10.97503906 0.84902344 -10.09460938 0.58476563 -9.1875 0.3125 C-8.31480469 0.04050781 -7.44210937 -0.23148438 -6.54296875 -0.51171875 C-3.93126166 -1.01319861 -2.48283616 -0.86233704 0 0 Z " fill="#65DEF3" transform="translate(465,548)"/>
<path d="M0 0 C0.33 0 0.66 0 1 0 C1 2.64 1 5.28 1 8 C1.99 8.33 2.98 8.66 4 9 C2.68 10.32 1.36 11.64 0 13 C0 8.71 0 4.42 0 0 Z " fill="#323743" transform="translate(900,440)"/>
<path d="M0 0 C-1.76641683 0.6987693 -3.53832664 1.38366583 -5.3125 2.0625 C-6.79169922 2.63677734 -6.79169922 2.63677734 -8.30078125 3.22265625 C-11 4 -11 4 -14 3 C-12.42274653 2.29866401 -10.83788667 1.614417 -9.25 0.9375 C-7.92742187 0.36322266 -7.92742187 0.36322266 -6.578125 -0.22265625 C-3.84743691 -1.04600008 -2.63098653 -0.9773992 0 0 Z " fill="#9484E7" transform="translate(368,560)"/>
<path d="M0 0 C1.64666203 0.1135629 3.29236082 0.24117381 4.9375 0.375 C5.85402344 0.44460938 6.77054687 0.51421875 7.71484375 0.5859375 C8.84599609 0.79089844 8.84599609 0.79089844 10 1 C10.33 1.66 10.66 2.32 11 3 C6.09432112 3.28301994 3.75471067 3.16492205 0 0 Z " fill="#5AB9E9" transform="translate(447,469)"/>
<path d="M0 0 C3.96 0.33 7.92 0.66 12 1 C12 1.33 12 1.66 12 2 C4.08 2.495 4.08 2.495 -4 3 C-2.68 2.67 -1.36 2.34 0 2 C0 1.34 0 0.68 0 0 Z " fill="#6C9CD9" transform="translate(517,395)"/>
<path d="M0 0 C-1.8125 2 -1.8125 2 -4 4 C-4.99 4 -5.98 4 -7 4 C-7 2.68 -7 1.36 -7 0 C-3.86650268 -1.04449911 -3.01031744 -0.93423645 0 0 Z " fill="#7662EF" transform="translate(333,619)"/>
<path d="M0 0 C0 0.66 0 1.32 0 2 C-2.31 2.33 -4.62 2.66 -7 3 C-6.67 2.01 -6.34 1.02 -6 0 C-3.50907189 -1.24546405 -2.58919267 -0.7767578 0 0 Z " fill="#6558DC" transform="translate(337,619)"/>
<path d="M0 0 C0.99 0.33 1.98 0.66 3 1 C1.35 2.65 -0.3 4.3 -2 6 C-2.99 5.67 -3.98 5.34 -5 5 C-3.35 3.35 -1.7 1.7 0 0 Z " fill="#CFD8E7" transform="translate(649,496)"/>
</svg>
