<svg xmlns="http://www.w3.org/2000/svg" width="64" height="64" viewBox="510 235 520 520" version="1.1"><path d="M 919.828 306.505 C 919.581 306.753, 910.855 307.218, 900.439 307.539 C 890.023 307.859, 879.475 308.335, 877 308.596 C 861.450 310.236, 829.432 314.238, 829.083 314.585 C 828.854 314.813, 830.978 315, 833.802 315 C 838.272 315, 838.854 315.227, 838.292 316.750 C 837.936 317.712, 837.163 318.831, 836.573 319.235 C 835.968 319.649, 836.481 319.976, 837.750 319.985 C 838.987 319.993, 840 320.477, 840 321.059 C 840 321.641, 839.550 321.840, 839 321.500 C 838.405 321.132, 838 322.323, 838 324.441 C 838 326.406, 838.503 328, 839.122 328 C 839.854 328, 839.767 328.589, 838.872 329.692 C 837.701 331.136, 837.708 331.259, 838.920 330.528 C 840.006 329.873, 840.178 330.094, 839.651 331.467 C 839.196 332.654, 839.879 334.464, 841.668 336.810 C 843.622 339.370, 843.902 340.177, 842.678 339.707 C 841.275 339.168, 841.349 339.554, 843.108 341.933 C 844.278 343.515, 844.931 345.303, 844.559 345.905 C 844.175 346.526, 844.582 347, 845.500 347 C 846.390 347, 846.840 347.450, 846.500 348 C 846.160 348.550, 846.359 349, 846.941 349 C 848.363 349, 848.278 347.700, 846.750 346.053 C 845.923 345.162, 845.897 344.930, 846.674 345.366 C 847.337 345.737, 848.049 345.256, 848.308 344.262 C 848.607 343.118, 848.809 343.427, 848.884 345.143 C 848.948 346.597, 849.726 348.065, 850.613 348.405 C 851.637 348.798, 852.037 349.751, 851.707 351.014 C 851.421 352.108, 851.514 352.800, 851.915 352.553 C 852.943 351.917, 855.979 355.672, 855.168 356.575 C 854.801 356.984, 855.311 357.027, 856.302 356.671 C 857.301 356.311, 857.851 356.432, 857.536 356.942 C 857.223 357.448, 857.432 358.149, 858 358.500 C 858.568 358.851, 858.803 359.510, 858.522 359.964 C 858.241 360.419, 858.753 361.075, 859.659 361.423 C 861.141 361.991, 861.115 362.199, 859.403 363.478 C 857.605 364.822, 857.633 364.867, 859.919 364.290 C 861.909 363.787, 862.221 363.982, 861.680 365.391 C 861.317 366.338, 861.434 366.850, 861.942 366.536 C 862.448 366.223, 863.144 366.425, 863.490 366.984 C 863.835 367.543, 863.704 368, 863.198 368 C 862.691 368, 862.492 369.125, 862.755 370.500 C 863.172 372.681, 862.867 373.013, 860.367 373.100 C 858.790 373.155, 856.375 373.589, 855 374.064 C 850.531 375.610, 864.841 373.948, 878.500 371.335 C 885.650 369.966, 896.900 367.094, 903.500 364.952 C 910.100 362.810, 915.854 361.060, 916.286 361.064 C 916.718 361.068, 917.767 360.376, 918.616 359.527 C 919.466 358.677, 920.575 358.237, 921.081 358.550 C 921.586 358.862, 922 358.744, 922 358.286 C 922 357.472, 928.347 353.667, 929.406 353.847 C 929.702 353.897, 931.394 352.614, 933.165 350.996 C 934.937 349.378, 936.567 348.234, 936.788 348.454 C 937.008 348.675, 938.532 347.325, 940.174 345.454 C 941.817 343.584, 943.666 342.154, 944.285 342.277 C 944.903 342.400, 945.430 341.985, 945.455 341.356 C 945.480 340.726, 947.363 338.164, 949.640 335.662 C 951.917 333.160, 953.540 330.873, 953.247 330.580 C 952.954 330.287, 953.451 329.764, 954.351 329.419 C 955.252 329.073, 955.740 328.388, 955.435 327.895 C 955.131 327.403, 955.385 327, 956 327 C 956.615 327, 956.864 326.588, 956.553 326.085 C 956.242 325.582, 956.427 325.020, 956.965 324.835 C 957.502 324.651, 958.147 323.375, 958.397 322 C 958.647 320.625, 958.917 319.500, 958.998 319.500 C 959.079 319.500, 959.225 317.925, 959.322 316 C 959.448 313.531, 958.837 311.848, 957.250 310.286 C 956.013 309.068, 955 308.335, 955 308.658 C 955 308.981, 954.438 308.821, 953.750 308.302 C 953.063 307.784, 945.525 307.234, 937 307.081 C 928.475 306.927, 921.225 306.634, 920.889 306.428 C 920.554 306.223, 920.076 306.257, 919.828 306.505 M 775.500 424.033 C 789.432 425.316, 791.667 425.795, 791.667 427.498 C 791.667 428.687, 791.380 428.732, 790.170 427.734 C 788.867 426.660, 788.829 426.794, 789.883 428.771 C 791.406 431.630, 790.415 433.335, 787.637 432.637 C 785.556 432.114, 785.551 432.137, 787.441 433.550 C 790.140 435.566, 788.380 435.385, 776.812 432.452 C 771.285 431.051, 766.587 430.080, 766.373 430.294 C 766.159 430.508, 771.500 432.126, 778.242 433.890 C 808.913 441.914, 836.792 453.859, 845.744 462.811 C 847.764 464.831, 849.033 465.812, 848.564 464.992 C 848.095 464.171, 849.774 465.480, 852.296 467.900 C 857.125 472.534, 863.550 483.301, 862.500 485 C 862.160 485.550, 862.389 486, 863.008 486 C 863.663 486, 863.880 486.802, 863.527 487.916 C 863.192 488.970, 863.387 490.121, 863.959 490.475 C 865.237 491.264, 865.348 498.667, 864.094 499.442 C 863.596 499.750, 863.423 500.902, 863.711 502.001 C 863.998 503.100, 863.745 504, 863.148 504 C 862.551 504, 862.307 504.636, 862.605 505.413 C 863.261 507.122, 858.081 518.032, 856.287 518.720 C 855.585 518.989, 855.222 519.549, 855.478 519.965 C 856.274 521.252, 845.360 532.545, 838.255 537.787 C 830.372 543.603, 813.120 552.410, 801 556.806 C 790.270 560.698, 768.053 567.056, 752.625 570.650 C 746.093 572.172, 741.269 573.590, 741.903 573.801 C 742.909 574.136, 749.270 572.961, 755.500 571.288 C 756.600 570.993, 757.166 571.104, 756.759 571.534 C 756.351 571.964, 756.576 573.006, 757.259 573.850 C 758.249 575.074, 758.247 575.232, 757.250 574.633 C 756.014 573.891, 755.500 575.654, 755.977 579 C 756.094 579.825, 755.855 580.171, 755.446 579.768 C 755.037 579.365, 754.657 577.827, 754.601 576.350 C 754.489 573.364, 752.564 572.087, 751.674 574.407 C 751.270 575.460, 751.567 575.720, 752.687 575.290 C 753.769 574.875, 754.113 575.129, 753.772 576.091 C 753.496 576.866, 753.749 578.400, 754.334 579.500 C 755.613 581.903, 755.239 586.174, 753.648 587.344 C 752.925 587.876, 753.137 587.984, 754.219 587.638 C 756.526 586.898, 761.710 589.514, 759.567 590.336 C 758.716 590.662, 757.582 590.168, 756.979 589.208 C 756.105 587.819, 756.034 587.965, 756.596 589.992 C 757.215 592.219, 757.114 592.339, 755.644 591.120 C 754.603 590.256, 754 590.160, 754 590.859 C 754 591.465, 755.130 592.246, 756.511 592.592 C 757.892 592.939, 759.967 594.549, 761.121 596.170 C 763.110 598.963, 763.128 599.186, 761.459 600.407 C 759.509 601.832, 761.082 603.685, 763.155 602.405 C 763.821 601.993, 764.039 602.127, 763.671 602.723 C 763.321 603.290, 759.655 605.239, 755.527 607.054 C 751.398 608.868, 748.182 610.515, 748.380 610.713 C 748.937 611.270, 769.126 602.459, 780.915 596.513 C 803.336 585.205, 820.181 573.347, 838.286 556.128 C 846.331 548.478, 848.029 547.156, 844.347 551.412 C 839.741 556.736, 839.317 557.620, 840.085 560.298 C 841.091 563.804, 842.105 564.970, 842.702 563.306 C 842.937 562.650, 843.773 562.359, 844.559 562.661 C 845.345 562.963, 845.728 563.630, 845.410 564.145 C 844.892 564.984, 849.842 564.284, 850.908 563.368 C 851.132 563.175, 851.920 563.519, 852.658 564.131 C 853.653 564.957, 854 564.936, 854 564.051 C 854 563.254, 854.491 563.349, 855.478 564.335 C 856.429 565.286, 858.394 565.698, 860.986 565.490 C 863.220 565.310, 864.766 565.569, 864.456 566.072 C 863.825 567.092, 866.882 566.165, 868.661 564.796 C 869.370 564.251, 870.091 564.338, 870.512 565.020 C 870.892 565.634, 871.944 565.839, 872.851 565.477 C 875.981 564.224, 878.898 564.291, 879.410 565.626 C 879.693 566.363, 880.616 566.701, 881.462 566.376 C 882.308 566.052, 883 566.258, 883 566.834 C 883 568.903, 880.833 569.161, 878.687 567.348 C 876.511 565.509, 876.509 565.510, 878.261 567.591 C 879.996 569.650, 879.897 569.767, 871.761 575.258 C 867.218 578.325, 861.568 581.827, 859.207 583.040 C 856.846 584.254, 855.131 585.465, 855.397 585.731 C 856.019 586.352, 872.711 576.398, 881.628 570.088 C 904.257 554.076, 919.422 534.401, 923.125 516.250 C 923.826 512.813, 924.648 509.999, 924.950 509.999 C 925.767 509.997, 925.451 496.539, 924.602 495.165 C 924.200 494.514, 924.155 493.086, 924.503 491.991 C 924.850 490.896, 924.711 490, 924.192 490 C 923.273 490, 921.592 484.741, 921.716 482.250 C 921.750 481.563, 921.408 481, 920.956 481 C 920.091 481, 918.463 477.033, 918.802 475.750 C 918.911 475.337, 918.580 475, 918.067 475 C 917.554 475, 916.870 474.164, 916.545 473.143 C 915.784 470.743, 902.475 457.537, 898.250 454.989 C 896.462 453.911, 895 452.573, 895 452.015 C 895 451.457, 894.663 451.079, 894.250 451.175 C 893.048 451.454, 888 448.761, 888 447.839 C 888 447.378, 887.663 447.107, 887.250 447.238 C 885.985 447.639, 880 444.817, 880 443.820 C 880 443.304, 879.550 443.160, 879 443.500 C 878.450 443.840, 878 443.615, 878 443 C 878 442.385, 877.550 442.160, 877 442.500 C 876.450 442.840, 876 442.615, 876 442 C 876 441.385, 875.615 441.120, 875.145 441.411 C 874.322 441.919, 857.022 436.171, 856 435.049 C 855.725 434.747, 854.825 434.485, 854 434.467 C 849.546 434.370, 843.090 432.663, 843.665 431.733 C 844.019 431.160, 843.850 430.974, 843.290 431.321 C 842.729 431.667, 834.222 430.660, 824.385 429.082 C 801.652 425.436, 790.272 424.124, 776.500 423.561 L 765.500 423.112 775.500 424.033 M 758.500 457.569 C 762.900 458.962, 770.550 461.259, 775.500 462.673 C 780.450 464.087, 790.112 466.965, 796.971 469.068 C 803.829 471.171, 809.600 472.733, 809.794 472.539 C 810.516 471.818, 761.036 456.900, 753.500 455.567 C 751.850 455.275, 754.100 456.176, 758.500 457.569 M 796.362 539.394 C 791.371 540.293, 790.476 540.734, 791.570 541.750 C 793.266 543.326, 794.349 543.373, 793.395 541.830 C 792.914 541.052, 793.210 540.866, 794.277 541.276 C 795.160 541.615, 798.272 541.033, 801.191 539.982 C 807.039 537.878, 805.684 537.713, 796.362 539.394" stroke="none" fill="#7adbfb" fill-rule="evenodd"/><path d="M 849.216 310.516 C 799.631 316.421, 750.049 328.235, 711.500 343.329 C 668.245 360.265, 634.270 385.927, 620.559 412.020 C 604.192 443.167, 619.113 475.660, 658.189 493.966 C 685.696 506.852, 722.340 513.190, 769 513.133 C 798.622 513.097, 815.962 510.554, 828.154 504.458 C 840.547 498.262, 842.271 492.778, 834.250 485.064 C 825.567 476.715, 810.641 470.224, 780 461.472 C 748.075 452.354, 728.079 445.971, 718 441.681 C 707.210 437.088, 694.784 430.057, 690.825 426.305 L 688.149 423.769 692.325 420.617 C 710.434 406.949, 736.890 396.570, 774 388.578 C 792.994 384.488, 814.042 381.277, 853.500 376.453 C 876.238 373.673, 903.545 367.493, 911 363.439 C 914.787 361.380, 913.229 361.710, 903.438 365.038 C 893.526 368.407, 869.066 373.554, 859 374.390 C 854.720 374.745, 853.354 374.634, 855 374.064 C 856.375 373.589, 858.790 373.155, 860.367 373.100 C 862.867 373.013, 863.172 372.681, 862.755 370.500 C 862.492 369.125, 862.691 368, 863.198 368 C 863.704 368, 863.835 367.543, 863.490 366.984 C 863.144 366.425, 862.448 366.223, 861.942 366.536 C 861.434 366.850, 861.317 366.338, 861.680 365.391 C 862.221 363.982, 861.909 363.787, 859.919 364.290 C 857.633 364.867, 857.605 364.822, 859.403 363.478 C 861.115 362.199, 861.141 361.991, 859.659 361.423 C 858.753 361.075, 858.241 360.419, 858.522 359.964 C 858.803 359.510, 858.568 358.851, 858 358.500 C 857.432 358.149, 857.223 357.448, 857.536 356.942 C 857.851 356.432, 857.301 356.311, 856.302 356.671 C 855.311 357.027, 854.801 356.984, 855.168 356.575 C 855.979 355.672, 852.943 351.917, 851.915 352.553 C 851.514 352.800, 851.421 352.108, 851.707 351.014 C 852.037 349.751, 851.637 348.798, 850.613 348.405 C 849.726 348.065, 848.948 346.597, 848.884 345.143 C 848.809 343.427, 848.607 343.118, 848.308 344.262 C 848.049 345.256, 847.337 345.737, 846.674 345.366 C 845.897 344.930, 845.923 345.162, 846.750 346.053 C 848.278 347.700, 848.363 349, 846.941 349 C 846.359 349, 846.160 348.550, 846.500 348 C 846.840 347.450, 846.390 347, 845.500 347 C 844.582 347, 844.175 346.526, 844.559 345.905 C 844.931 345.303, 844.278 343.515, 843.108 341.933 C 841.349 339.554, 841.275 339.168, 842.678 339.707 C 843.902 340.177, 843.622 339.370, 841.668 336.810 C 839.879 334.464, 839.196 332.654, 839.651 331.467 C 840.178 330.094, 840.006 329.873, 838.920 330.528 C 837.708 331.259, 837.701 331.136, 838.872 329.692 C 839.767 328.589, 839.854 328, 839.122 328 C 838.503 328, 838 326.406, 838 324.441 C 838 322.323, 838.405 321.132, 839 321.500 C 839.550 321.840, 840 321.641, 840 321.059 C 840 320.477, 838.987 319.993, 837.750 319.985 C 836.481 319.976, 835.968 319.649, 836.573 319.235 C 837.163 318.831, 837.936 317.712, 838.292 316.750 C 838.854 315.227, 838.272 315, 833.802 315 C 830.978 315, 828.854 314.813, 829.083 314.585 C 829.475 314.194, 867.834 309.415, 876.500 308.677 C 879.024 308.462, 878.286 308.315, 874.500 308.278 C 871.200 308.246, 859.822 309.253, 849.216 310.516 M 723.117 420.867 C 718.753 422.090, 722.876 423.526, 740.500 426.920 C 771.001 432.796, 793.950 438.968, 813.775 446.628 C 826.955 451.721, 831.017 453.702, 840.500 459.663 C 844.350 462.083, 846.150 462.904, 844.500 461.487 C 834.490 452.891, 806.826 441.368, 778.242 433.890 C 771.500 432.126, 766.159 430.508, 766.373 430.294 C 766.587 430.080, 771.285 431.051, 776.812 432.452 C 788.380 435.385, 790.140 435.566, 787.441 433.550 C 785.551 432.137, 785.556 432.114, 787.637 432.637 C 790.415 433.335, 791.406 431.630, 789.883 428.771 C 788.829 426.794, 788.867 426.660, 790.170 427.734 C 791.380 428.732, 791.667 428.687, 791.667 427.498 C 791.667 425.795, 789.425 425.315, 775.500 424.036 L 765.500 423.117 777 423.592 C 794.713 424.324, 824.348 428.336, 843.411 432.582 C 849.412 433.918, 854.499 434.834, 854.717 434.617 C 855.371 433.962, 833.362 429.156, 820 427.036 C 787.627 421.898, 732.064 418.360, 723.117 420.867 M 864.940 438.527 C 870.132 440.411, 874.543 441.790, 874.743 441.590 C 875.212 441.122, 858.278 434.984, 856.698 435.050 C 856.039 435.077, 859.748 436.642, 864.940 438.527 M 758.500 457.569 C 762.900 458.962, 770.550 461.259, 775.500 462.673 C 780.450 464.087, 790.112 466.965, 796.971 469.068 C 803.829 471.171, 809.600 472.733, 809.794 472.539 C 810.516 471.818, 761.036 456.900, 753.500 455.567 C 751.850 455.275, 754.100 456.176, 758.500 457.569 M 852.180 468.593 C 854.713 471.394, 857.521 475.106, 858.419 476.843 C 859.317 478.579, 860.294 480, 860.590 480 C 861.991 480, 856.199 471.649, 852.137 467.811 L 847.573 463.500 852.180 468.593 M 923.144 516.158 C 919.421 534.405, 904.303 554.043, 881.628 570.088 C 872.711 576.398, 856.019 586.352, 855.397 585.731 C 855.131 585.465, 856.846 584.254, 859.207 583.040 C 861.568 581.827, 867.218 578.325, 871.761 575.258 C 879.897 569.767, 879.996 569.650, 878.261 567.591 C 876.509 565.510, 876.511 565.509, 878.687 567.348 C 880.833 569.161, 883 568.903, 883 566.834 C 883 566.258, 882.308 566.052, 881.462 566.376 C 880.616 566.701, 879.693 566.363, 879.410 565.626 C 878.898 564.291, 875.981 564.224, 872.851 565.477 C 871.944 565.839, 870.892 565.634, 870.512 565.020 C 870.091 564.338, 869.370 564.251, 868.661 564.796 C 866.882 566.165, 863.825 567.092, 864.456 566.072 C 864.766 565.569, 863.220 565.310, 860.986 565.490 C 858.394 565.698, 856.429 565.286, 855.478 564.335 C 854.491 563.349, 854 563.254, 854 564.051 C 854 564.936, 853.653 564.957, 852.658 564.131 C 851.920 563.519, 851.132 563.175, 850.908 563.368 C 849.842 564.284, 844.892 564.984, 845.410 564.145 C 845.728 563.630, 845.345 562.963, 844.559 562.661 C 843.773 562.359, 842.937 562.650, 842.702 563.306 C 842.105 564.970, 841.091 563.804, 840.085 560.298 C 839.317 557.620, 839.741 556.736, 844.347 551.412 C 848.029 547.156, 846.331 548.478, 838.286 556.128 C 820.181 573.347, 803.336 585.205, 780.915 596.513 C 769.126 602.459, 748.937 611.270, 748.380 610.713 C 748.182 610.515, 751.398 608.868, 755.527 607.054 C 759.655 605.239, 763.321 603.290, 763.671 602.723 C 764.039 602.127, 763.821 601.993, 763.155 602.405 C 761.082 603.685, 759.509 601.832, 761.459 600.407 C 763.128 599.186, 763.110 598.963, 761.121 596.170 C 759.967 594.549, 757.892 592.939, 756.511 592.592 C 755.130 592.246, 754 591.465, 754 590.859 C 754 590.160, 754.603 590.256, 755.644 591.120 C 757.114 592.339, 757.215 592.219, 756.596 589.992 C 756.034 587.965, 756.105 587.819, 756.979 589.208 C 757.582 590.168, 758.716 590.662, 759.567 590.336 C 761.710 589.514, 756.526 586.898, 754.219 587.638 C 753.137 587.984, 752.925 587.876, 753.648 587.344 C 755.239 586.174, 755.613 581.903, 754.334 579.500 C 753.749 578.400, 753.496 576.866, 753.772 576.091 C 754.113 575.129, 753.769 574.875, 752.687 575.290 C 751.567 575.720, 751.270 575.460, 751.674 574.407 C 752.564 572.087, 754.489 573.364, 754.601 576.350 C 754.657 577.827, 755.037 579.365, 755.446 579.768 C 755.855 580.171, 756.094 579.825, 755.977 579 C 755.500 575.654, 756.014 573.891, 757.250 574.633 C 758.247 575.232, 758.249 575.074, 757.259 573.850 C 756.576 573.006, 756.351 571.964, 756.759 571.534 C 757.166 571.104, 756.600 570.993, 755.500 571.288 C 749.270 572.961, 742.909 574.136, 741.903 573.801 C 741.269 573.590, 746.093 572.172, 752.625 570.650 C 781.975 563.813, 803.515 556.703, 820.500 548.247 C 835.688 540.686, 847.411 531.672, 854.034 522.462 C 854.840 521.341, 853.475 522.663, 851 525.400 C 841.446 535.965, 823.810 546.904, 804.002 554.551 C 793.271 558.694, 772.986 564.355, 743.277 571.496 C 681.704 586.297, 648.334 598.239, 617.340 616.563 C 609.183 621.385, 609.268 620.836, 618 612.317 C 623.289 607.157, 643.618 593.231, 652.148 588.925 C 661.340 584.285, 678.213 577.616, 692 573.175 C 705.721 568.754, 710.273 567.452, 748.500 557.013 C 791.872 545.170, 815.233 537, 805.728 537 C 804.344 537, 796.077 538.104, 787.356 539.454 C 697.590 553.347, 663.769 561.604, 632.500 577.259 C 605.809 590.623, 584.778 610.181, 574.081 631.585 C 568.729 642.296, 565.646 655.257, 566.233 664.586 C 567.134 678.912, 572.343 683.292, 581.230 677.194 C 591.515 670.136, 615.747 659.909, 640.500 652.179 C 655.572 647.472, 671.725 643.321, 736.500 627.509 C 830.169 604.643, 878.448 582.253, 907.623 548.150 C 916.569 537.692, 926.537 516.112, 924.812 510.936 C 924.607 510.320, 923.856 512.669, 923.144 516.158 M 796.362 539.394 C 791.371 540.293, 790.476 540.734, 791.570 541.750 C 793.266 543.326, 794.349 543.373, 793.395 541.830 C 792.914 541.052, 793.210 540.866, 794.277 541.276 C 795.160 541.615, 798.272 541.033, 801.191 539.982 C 807.039 537.878, 805.684 537.713, 796.362 539.394" stroke="none" fill="#7184f9" fill-rule="evenodd"/></svg>